<svg width="57" height="57" viewBox="0 0 57 57" fill="none" xmlns="http://www.w3.org/2000/svg">
<circle opacity="0.1" cx="28.9592" cy="28.1592" r="28" fill="#E05A49"/>
<path opacity="0.4" d="M35.3707 16.959H24.1591C20.0755 16.959 17.7595 19.2738 17.7595 23.3586V34.5594C17.7595 38.643 20.0743 40.959 24.1591 40.959H35.3707C39.4555 40.959 41.7595 38.6442 41.7595 34.5594V23.3586C41.7595 19.275 39.4555 16.959 35.3707 16.959Z" fill="#E05A49"/>
<path d="M24.2019 25.8022C23.9374 25.8041 23.6844 25.9108 23.4984 26.0988C23.3124 26.2868 23.2085 26.5409 23.2095 26.8054V35.0494C23.2095 35.3139 23.3145 35.5675 23.5016 35.7545C23.6886 35.9415 23.9422 36.0466 24.2067 36.0466C24.4712 36.0466 24.7248 35.9415 24.9118 35.7545C25.0988 35.5675 25.2039 35.3139 25.2039 35.0494V26.8054C25.204 26.6737 25.1782 26.5433 25.128 26.4216C25.0777 26.2999 25.0039 26.1893 24.9108 26.0961C24.8178 26.0029 24.7073 25.929 24.5856 25.8786C24.464 25.8282 24.3336 25.8022 24.2019 25.8022ZM29.8011 21.8662C29.5368 21.8684 29.2842 21.9752 29.0984 22.1632C28.9127 22.3512 28.8089 22.6051 28.8099 22.8694V35.0494C28.8099 35.3139 28.9149 35.5675 29.102 35.7545C29.289 35.9415 29.5426 36.0466 29.8071 36.0466C30.0716 36.0466 30.3252 35.9415 30.5122 35.7545C30.6992 35.5675 30.8043 35.3139 30.8043 35.0494V22.8706C30.8044 22.7388 30.7786 22.6083 30.7282 22.4865C30.6779 22.3647 30.604 22.2541 30.5108 22.1609C30.4176 22.0677 30.307 21.9938 30.1852 21.9435C30.0634 21.8931 29.9329 21.8673 29.8011 21.8674V21.8662ZM35.3271 30.1558C35.1954 30.1557 35.065 30.1815 34.9433 30.2317C34.8216 30.282 34.711 30.3558 34.6178 30.4489C34.5246 30.5419 34.4507 30.6524 34.4003 30.7741C34.3498 30.8957 34.3239 31.0261 34.3239 31.1578V35.0518C34.3239 35.3164 34.429 35.5702 34.6161 35.7574C34.8033 35.9445 35.057 36.0496 35.3217 36.0496C35.5863 36.0496 35.8401 35.9445 36.0272 35.7574C36.2144 35.5702 36.3195 35.3164 36.3195 35.0518V31.1554C36.3201 30.8911 36.2161 30.6373 36.0301 30.4496C35.8441 30.2618 35.5914 30.1553 35.3271 30.1534" fill="#E05A49"/>
</svg>
