<svg width="52" height="52" viewBox="0 0 52 52" fill="none" xmlns="http://www.w3.org/2000/svg">
<circle opacity="0.1" cx="26" cy="26" r="26" fill="#E05A49"/>
<path opacity="0.4" d="M30.891 14H34.953C35.3548 14.0016 35.7523 14.0823 36.1229 14.2375C36.4935 14.3928 36.8299 14.6195 37.1128 14.9048C37.3957 15.1901 37.6197 15.5283 37.7719 15.9002C37.9241 16.272 38.0015 16.6702 37.9998 17.072V21.17C38.0015 21.5718 37.9241 21.97 37.7719 22.3418C37.6197 22.7137 37.3957 23.0519 37.1128 23.3372C36.8299 23.6225 36.4935 23.8492 36.1229 24.0045C35.7523 24.1597 35.3548 24.2404 34.953 24.242H30.891C30.4893 24.2404 30.0917 24.1597 29.7211 24.0045C29.3505 23.8492 29.0142 23.6225 28.7312 23.3372C28.4483 23.0519 28.2243 22.7137 28.0722 22.3418C27.92 21.97 27.8425 21.5718 27.8443 21.17V17.072C27.8425 16.6702 27.92 16.272 28.0722 15.9002C28.2243 15.5283 28.4483 15.1901 28.7312 14.9048C29.0142 14.6195 29.3505 14.3928 29.7211 14.2375C30.0917 14.0823 30.4893 14.0016 30.891 14Z" fill="#E05A49"/>
<path d="M21.1088 27.7592C21.5106 27.7608 21.9081 27.8415 22.2787 27.9967C22.6493 28.152 22.9856 28.3787 23.2686 28.664C23.5515 28.9493 23.7755 29.2875 23.9277 29.6594C24.0799 30.0312 24.1573 30.4294 24.1556 30.8312V34.928C24.1587 35.7394 23.8396 36.5188 23.2682 37.0948C22.6969 37.6709 21.9201 37.9965 21.1088 38H17.048C16.6462 37.9984 16.2486 37.9177 15.8779 37.7625C15.5073 37.6073 15.1708 37.3805 14.8878 37.0953C14.6048 36.81 14.3807 36.4718 14.2284 36.0999C14.076 35.7281 13.9985 35.3298 14 34.928V30.83C13.9983 30.4282 14.0757 30.03 14.2279 29.6582C14.3801 29.2863 14.6041 28.9481 14.887 28.6628C15.1699 28.3775 15.5063 28.1508 15.8769 27.9955C16.2475 27.8403 16.645 27.7596 17.0468 27.758H21.1088V27.7592ZM34.9531 27.7592C35.3549 27.7608 35.7524 27.8415 36.123 27.9967C36.4936 28.152 36.8299 28.3787 37.1129 28.664C37.3958 28.9493 37.6198 29.2875 37.772 29.6594C37.9241 30.0312 38.0016 30.4294 37.9998 30.8312V34.928C38.003 35.7394 37.6839 36.5188 37.1125 37.0948C36.5412 37.6709 35.7644 37.9965 34.9531 38H30.8911C30.0798 37.9965 29.303 37.6709 28.7317 37.0948C28.1603 36.5188 27.8411 35.7394 27.8443 34.928V30.83C27.8426 30.4282 27.92 30.03 28.0722 29.6582C28.2244 29.2863 28.4484 28.9481 28.7313 28.6628C29.0142 28.3775 29.3506 28.1508 29.7212 27.9955C30.0918 27.8403 30.4893 27.7596 30.8911 27.758H34.9531V27.7592ZM21.1088 14C21.5106 14.0016 21.9081 14.0823 22.2787 14.2375C22.6493 14.3928 22.9856 14.6195 23.2686 14.9048C23.5515 15.1901 23.7755 15.5283 23.9277 15.9002C24.0799 16.272 24.1573 16.6702 24.1556 17.072V21.17C24.1573 21.5718 24.0799 21.97 23.9277 22.3418C23.7755 22.7137 23.5515 23.0519 23.2686 23.3372C22.9856 23.6225 22.6493 23.8492 22.2787 24.0045C21.9081 24.1597 21.5106 24.2404 21.1088 24.242H17.048C16.646 24.2406 16.2483 24.1599 15.8775 24.0047C15.5066 23.8494 15.1701 23.6226 14.887 23.3372C14.6039 23.0518 14.3799 22.7134 14.2277 22.3413C14.0755 21.9692 13.9981 21.5708 14 21.1688V17.072C13.9983 16.6702 14.0757 16.272 14.2279 15.9002C14.3801 15.5283 14.6041 15.1901 14.887 14.9048C15.1699 14.6195 15.5063 14.3928 15.8769 14.2375C16.2475 14.0823 16.645 14.0016 17.0468 14H21.1088Z" fill="#E05A49"/>
</svg>
