<svg width="56" height="56" viewBox="0 0 56 56" fill="none" xmlns="http://www.w3.org/2000/svg">
<circle opacity="0.1" cx="28" cy="28" r="28" fill="#E05A49"/>
<path d="M25.7836 20.2684C25.8436 20.392 25.8844 20.5252 25.9036 20.662L26.2372 25.6298L26.4028 28.1269C26.404 28.3837 26.4448 28.6393 26.5228 28.8841C26.7232 29.3605 27.2044 29.6629 27.7288 29.6413L35.7172 29.1193C36.064 29.1133 36.3976 29.2429 36.646 29.4793C36.8536 29.6749 36.9868 29.9329 37.03 30.2089L37.0432 30.3769C36.7132 34.9547 33.3508 38.773 28.7824 39.7582C24.2152 40.7433 19.5304 38.6614 17.2732 34.6427C16.6231 33.4783 16.2161 32.194 16.0768 30.8677C16.0192 30.476 15.9939 30.0803 16.0012 29.6845C15.994 24.7767 19.4884 20.5336 24.3808 19.5112C24.97 19.4188 25.5472 19.7308 25.7836 20.2672V20.2684Z" fill="#E05A49"/>
<path opacity="0.4" d="M29.0439 16.001C34.5159 16.1414 39.1143 20.0761 39.9999 25.3751L39.9915 25.4147L39.9675 25.4711L39.9711 25.6271C39.9581 25.836 39.8772 26.0348 39.7407 26.1935C39.5972 26.3608 39.4022 26.4756 39.1863 26.5199L39.0543 26.5379L29.8383 27.1354C29.687 27.1505 29.5343 27.1341 29.3898 27.0872C29.2452 27.0403 29.1119 26.964 28.9983 26.8631C28.8099 26.6962 28.687 26.4678 28.6515 26.2187L28.0335 17.015C28.0227 16.9839 28.0227 16.9501 28.0335 16.919C28.0379 16.7929 28.0675 16.669 28.1207 16.5546C28.1739 16.4402 28.2495 16.3376 28.3431 16.253C28.5343 16.0799 28.7862 15.9893 29.0439 16.001Z" fill="#E05A49"/>
</svg>
