<svg id="Layer_1" enable-background="new 0 0 511 511" height="512" viewBox="0 0 511 511" width="512" xmlns="http://www.w3.org/2000/svg"><path d="m291.479 0h-71.826l-37.38 59.369 69.389 95.621 87.849-136.529z" fill="#de5c6e"/><path d="m219.235 0 58.393 192.794h-60.512l-56.354-80.421c-33.158-47.319.693-112.373 58.473-112.373z" fill="#eb6773"/><path d="m291.479 0-58.393 192.794h60.512l56.354-80.421c33.158-47.319-.693-112.373-58.473-112.373z" fill="#ef7d92"/><path d="m196.967 228.48v-1.13c0-32.248 26.142-58.39 58.39-58.39 32.248 0 58.39 26.142 58.39 58.39v1.134l-58.247 14.976z" fill="#b3e6fd"/><path d="m402.885 351.208c-4.699-58.734-45.367-110.32-101.295-128.696-59.356-19.502-126.26 1.328-164.083 51.047-37.291 49.021-39.894 118.088-6.47 169.803 34.782 53.815 102.427 79.632 164.186 62.274 67.286-18.913 113.326-84.613 107.662-154.428z" fill="#f9ef90"/><path d="m183.371 376.943c-10.176-47.013-9.943-96.234.538-143.174-17.81 9.74-33.737 23.143-46.402 39.791-37.291 49.021-39.894 118.088-6.47 169.803 25.598 39.606 68.997 64.045 114.749 67.27-30.386-39.189-51.924-85.219-62.415-133.69z" fill="#f4d37f"/><path d="m255.357 462.161c-54.621 0-99.058-44.438-99.058-99.058 0-54.621 44.438-99.059 99.058-99.059s99.058 44.438 99.058 99.059c.001 54.62-44.437 99.058-99.058 99.058z" fill="#f4d37f"/><path d="m183.289 376.881c-5.178-23.923-7.621-48.426-7.364-72.901-12.322 16.513-19.626 36.981-19.626 59.122 0 37.766 21.247 70.659 52.413 87.366-11.333-23.416-19.92-48.161-25.423-73.587z" fill="#f3be77"/><path d="m261.721 311.436 14.997 27.422c.666 1.217 1.666 2.218 2.883 2.883l27.422 14.997c5.031 2.751 5.031 9.977 0 12.728l-27.422 14.997c-1.217.666-2.218 1.666-2.883 2.883l-14.997 27.422c-2.751 5.031-9.977 5.031-12.728 0l-14.997-27.422c-.666-1.217-1.666-2.218-2.883-2.883l-27.422-14.997c-5.031-2.751-5.031-9.977 0-12.728l27.422-14.997c1.217-.666 2.218-1.666 2.883-2.883l14.997-27.422c2.752-5.031 9.977-5.031 12.728 0z" fill="#f7ad55"/></svg>