<?xml version="1.0" encoding="UTF-8"?>
<svg width="41px" height="48px" viewBox="0 0 41 48" version="1.1" xmlns="http://www.w3.org/2000/svg" xmlns:xlink="http://www.w3.org/1999/xlink">
    <!-- Generator: Sketch 57.1 (83088) - https://sketch.com -->
    <title>acquisition</title>
    <desc>Created with Sketch.</desc>
    <g id="Pages" stroke="none" stroke-width="1" fill="none" fill-rule="evenodd">
        <g id="1---Home-Slide-Recruitment" transform="translate(-204.000000, -2153.000000)" fill-rule="nonzero">
            <g id="Group-3" transform="translate(0.000000, 1954.000000)">
                <g id="Group-2" transform="translate(75.000000, 173.000000)">
                    <g id="acquisition" transform="translate(129.000000, 26.000000)">
                        <path d="M34.7585449,34.7585449 L38.8967286,34.7585449 C39.8096924,34.7559815 40.5490723,34.0166016 40.5516357,33.1032714 L40.5516357,9.10327144 L31.4483643,0 L13.2414551,0 C12.3284912,0.00256348125 11.5891114,0.742309594 11.5861817,1.65527344 L11.5861817,5.79309084 L34.7585449,34.7585449 Z" id="Path" fill="#B0D3F0"></path>
                        <path d="M31.4483643,0 L31.4483643,8.276001 C31.4483643,8.73303225 31.8189698,9.10327144 32.276001,9.10327144 L40.5516357,9.10327144 L31.4483643,0 Z" id="Path" fill="#90BAE1"></path>
                        <path d="M28.9654541,41.3792724 L33.1032714,41.3792724 C34.0166016,41.3767089 34.7559815,40.6369629 34.7585449,39.723999 L34.7585449,14.8967286 L25.6552734,5.79309084 L7.44836428,5.79309084 C6.53540044,5.79565425 5.79565425,6.53540044 5.79309084,7.44836428 L5.79309084,11.5861817 L28.9654541,41.3792724 Z" id="Path" fill="#955BA5"></path>
                        <path d="M25.6552734,5.79309084 L25.6552734,14.0690918 C25.6552734,14.526123 26.0255127,14.8967286 26.4829102,14.8967286 L34.7585449,14.8967286 L25.6552734,5.79309084 Z" id="Path" fill="#894B9D"></path>
                        <path d="M28.9654541,20.6898193 L28.9654541,46.3447266 C28.9654541,47.2587891 28.2246094,48 27.3101807,48 L1.65527344,48 C0.741210938,48 0,47.2587891 0,46.3447266 L0,13.2414551 C0,12.3273926 0.741210938,11.5861817 1.65527344,11.5861817 L19.8621826,11.5861817 L28.9654541,20.6898193 Z" id="Path" fill="#B0D3F0"></path>
                        <path d="M19.8621826,11.5861817 L19.8621826,19.8621826 C19.8621826,20.3192138 20.2324219,20.6898193 20.6898193,20.6898193 L28.9654541,20.6898193 L19.8621826,11.5861817 Z" id="Path" fill="#90BAE1"></path>
                        <path d="M14.0690917,23.1723661 C13.552002,23.1734619 13.0894776,22.8519287 12.9104004,22.3670654 L10.7999268,15.9832763 C10.7072754,15.7023926 10.7717286,15.3933105 10.96875,15.1728516 C11.1657714,14.9520263 11.465332,14.8535156 11.7550049,14.9135742 C12.0446777,14.973999 12.2797852,15.1842041 12.3724365,15.4650879 L14.0690917,20.6070557 L15.7653808,15.461792 C15.8580322,15.1809082 16.0935058,14.9707031 16.3828125,14.9102783 C16.6724854,14.8502197 16.9720459,14.9487305 17.1690674,15.1695557 C17.3660888,15.3900146 17.430542,15.6990967 17.3378906,15.9799805 L15.2424317,22.3322754 C15.0710449,22.8343506 14.5993652,23.1719971 14.0690917,23.1723661 Z" id="Path" fill="#804169"></path>
                        <path d="M6.62072756,23.1723633 L4.96545412,23.1723633 C3.59436037,23.1723633 2.48291016,22.0609131 2.48291016,20.6898193 L2.48291016,17.3792724 C2.48291016,16.0081787 3.59436037,14.8967286 4.96545412,14.8967286 L6.62072756,14.8967286 C7.99182131,14.8967286 9.10327144,16.0081787 9.10327144,17.3792724 C9.10327144,17.8363037 8.73303225,18.2069092 8.276001,18.2069092 C7.81896975,18.2069092 7.44836428,17.8363037 7.44836428,17.3792724 C7.44836428,16.9222412 7.07775881,16.5516357 6.62072756,16.5516357 L4.96545412,16.5516357 C4.50842287,16.5516357 4.13781741,16.9222412 4.13781741,17.3792724 L4.13781741,20.6898193 C4.13781741,21.1468506 4.50842287,21.5170898 4.96545412,21.5170898 L6.62072756,21.5170898 C7.07775881,21.5170898 7.44836428,21.1468506 7.44836428,20.6898193 C7.44836428,20.2324219 7.81896975,19.8621826 8.276001,19.8621826 C8.73303225,19.8621826 9.10327144,20.2324219 9.10327144,20.6898193 C9.10327144,22.0609131 7.99182131,23.1723633 6.62072756,23.1723633 Z" id="Path" fill="#804169"></path>
                        <g id="Group" transform="translate(3.281250, 25.593750)" fill="#3D324C">
                            <path d="M21.5463867,1.71643069 L9.96020512,1.71643069 C9.50317387,1.71643069 9.13256831,1.34619141 9.13256831,0.889160156 C9.13256831,0.431762719 9.50317387,0.0615234375 9.96020512,0.0615234375 L21.5463867,0.0615234375 C22.003418,0.0615234375 22.3740234,0.431762719 22.3740234,0.889160156 C22.3740234,1.34619141 22.003418,1.71643069 21.5463867,1.71643069 L21.5463867,1.71643069 Z" id="Path"></path>
                            <path d="M12.442749,5.02697756 L0.856567406,5.02697756 C0.399536156,5.02697756 0.0289306875,4.65637209 0.0289306875,4.19934084 C0.0289306875,3.74230959 0.399536156,3.37170413 0.856567406,3.37170413 L12.442749,3.37170413 C12.8997802,3.37170413 13.2703857,3.74230959 13.2703857,4.19934084 C13.2703857,4.65637209 12.8997802,5.02697756 12.442749,5.02697756 Z" id="Path"></path>
                            <path d="M21.5463867,8.33715825 L9.96020512,8.33715825 C9.50317387,8.33715825 9.13256831,7.96691897 9.13256831,7.50952144 C9.13256831,7.05249019 9.50317387,6.682251 9.96020512,6.682251 L21.5463867,6.682251 C22.003418,6.682251 22.3740234,7.05249019 22.3740234,7.50952144 C22.3740234,7.96691897 22.003418,8.33715825 21.5463867,8.33715825 Z" id="Path"></path>
                            <path d="M12.442749,11.6477051 L0.856567406,11.6477051 C0.399536156,11.6477051 0.0289306875,11.2770996 0.0289306875,10.8200683 C0.0289306875,10.3630371 0.399536156,9.99243169 0.856567406,9.99243169 L12.442749,9.99243169 C12.8997802,9.99243169 13.2703857,10.3630371 13.2703857,10.8200683 C13.2703857,11.2770996 12.8997802,11.6477051 12.442749,11.6477051 Z" id="Path"></path>
                            <path d="M21.5463867,14.9578857 L9.96020512,14.9578857 C9.50317387,14.9578857 9.13256831,14.5872802 9.13256831,14.130249 C9.13256831,13.6732177 9.50317387,13.3029786 9.96020512,13.3029786 L21.5463867,13.3029786 C22.003418,13.3029786 22.3740234,13.6732177 22.3740234,14.130249 C22.3740234,14.5872802 22.003418,14.9578857 21.5463867,14.9578857 Z" id="Path"></path>
                            <path d="M12.442749,18.2684326 L0.856567406,18.2684326 C0.399536156,18.2684326 0.0289306875,17.8978271 0.0289306875,17.4407959 C0.0289306875,16.9837646 0.399536156,16.6131592 0.856567406,16.6131592 L12.442749,16.6131592 C12.8997802,16.6131592 13.2703857,16.9837646 13.2703857,17.4407959 C13.2703857,17.8978271 12.8997802,18.2684326 12.442749,18.2684326 Z" id="Path"></path>
                            <path d="M6.64965825,1.71643069 L0.856567406,1.71643069 C0.399536156,1.71643069 0.0289306875,1.34619141 0.0289306875,0.889160156 C0.0289306875,0.431762719 0.399536156,0.0615234375 0.856567406,0.0615234375 L6.64965825,0.0615234375 C7.1066895,0.0615234375 7.47729488,0.431762719 7.47729488,0.889160156 C7.47729488,1.34619141 7.1066895,1.71643069 6.64965825,1.71643069 L6.64965825,1.71643069 Z" id="Path"></path>
                            <path d="M21.5463867,5.02697756 L15.7532959,5.02697756 C15.2962646,5.02697756 14.9256592,4.65637209 14.9256592,4.19934084 C14.9256592,3.74230959 15.2962646,3.37170413 15.7532959,3.37170413 L21.5463867,3.37170413 C22.003418,3.37170413 22.3740234,3.74230959 22.3740234,4.19934084 C22.3740234,4.65637209 22.003418,5.02697756 21.5463867,5.02697756 Z" id="Path"></path>
                            <path d="M6.64965825,8.33715825 L0.856567406,8.33715825 C0.399536156,8.33715825 0.0289306875,7.96691897 0.0289306875,7.50952144 C0.0289306875,7.05249019 0.399536156,6.682251 0.856567406,6.682251 L6.64965825,6.682251 C7.1066895,6.682251 7.47729488,7.05249019 7.47729488,7.50952144 C7.47729488,7.96691897 7.1066895,8.33715825 6.64965825,8.33715825 Z" id="Path"></path>
                            <path d="M21.5463867,11.6477051 L15.7532959,11.6477051 C15.2962646,11.6477051 14.9256592,11.2770996 14.9256592,10.8200683 C14.9256592,10.3630371 15.2962646,9.99243169 15.7532959,9.99243169 L21.5463867,9.99243169 C22.003418,9.99243169 22.3740234,10.3630371 22.3740234,10.8200683 C22.3740234,11.2770996 22.003418,11.6477051 21.5463867,11.6477051 Z" id="Path"></path>
                            <path d="M6.64965825,14.9578857 L0.856567406,14.9578857 C0.399536156,14.9578857 0.0289306875,14.5872802 0.0289306875,14.130249 C0.0289306875,13.6732177 0.399536156,13.3029786 0.856567406,13.3029786 L6.64965825,13.3029786 C7.1066895,13.3029786 7.47729488,13.6732177 7.47729488,14.130249 C7.47729488,14.5872802 7.1066895,14.9578857 6.64965825,14.9578857 Z" id="Path"></path>
                            <path d="M21.5463867,18.2684326 L15.7532959,18.2684326 C15.2962646,18.2684326 14.9256592,17.8978271 14.9256592,17.4407959 C14.9256592,16.9837646 15.2962646,16.6131592 15.7532959,16.6131592 L21.5463867,16.6131592 C22.003418,16.6131592 22.3740234,16.9837646 22.3740234,17.4407959 C22.3740234,17.8978271 22.003418,18.2684326 21.5463867,18.2684326 Z" id="Path"></path>
                        </g>
                    </g>
                </g>
            </g>
        </g>
    </g>
</svg>