<?xml version="1.0" encoding="UTF-8"?>
<svg width="170px" height="50px" viewBox="0 0 170 50" version="1.1" xmlns="http://www.w3.org/2000/svg" xmlns:xlink="http://www.w3.org/1999/xlink">
    <!-- Generator: Sketch 57.1 (83088) - https://sketch.com -->
    <title>App Store Badge US Black</title>
    <desc>Created with Sketch.</desc>
    <g id="Symbols" stroke="none" stroke-width="1" fill="none" fill-rule="evenodd">
        <g id="Footer/1" transform="translate(-75.000000, -633.000000)" fill-rule="nonzero">
            <g id="Group-4" transform="translate(75.000000, 600.000000)">
                <g id="App-Store-Badge-US-Black" transform="translate(0.000000, 33.000000)">
                    <path d="M10.9161345,49.9973858 C10.4768837,49.9973858 10.0482437,49.992288 9.6124385,49.9833996 C8.70963278,49.9727344 7.80893715,49.9014758 6.91773847,49.7702081 C6.08674067,49.6404478 5.28172717,49.3990699 4.52925107,49.0540364 C3.78367478,48.7118617 3.10364926,48.2631926 2.5152254,47.725217 C1.91828424,47.1935784 1.42130344,46.5769685 1.04397749,45.8998222 C0.66249372,45.218275 0.398484251,44.4877386 0.261145748,43.733661 C0.112832088,42.923396 0.0325882524,42.1040903 0.0211061817,41.2828087 C0.0119659363,41.0071369 0,40.0892764 0,40.0892764 L0,9.89404476 C0,9.89404476 0.012744443,8.99028809 0.0211782657,8.72477256 C0.0321722604,7.90479197 0.111949477,7.08675768 0.259819403,6.27775018 C0.397411414,5.52160682 0.661625269,4.7889638 1.04331432,4.10518404 C1.41925351,3.4285055 1.91347516,2.81143508 2.50682041,2.27789397 C3.09949876,1.73928346 3.78169955,1.28830403 4.52854465,0.941401757 C5.27929134,0.597476737 6.08278347,0.357801612 6.91210151,0.230406253 C7.80622703,0.0978199029 8.71004953,0.0261373057 9.61598503,0.0159599498 L10.9168409,0 L159.076109,0 L160.392506,0.0166004392 C161.290201,0.0262720873 162.185814,0.0973151808 163.071723,0.229125274 C163.909436,0.358118619 164.721302,0.599466086 165.480624,0.945231622 C166.976826,1.64434023 168.194256,2.75039599 168.962279,4.10837342 C169.337876,4.78743277 169.598015,5.5140996 169.733866,6.2637117 C169.883497,7.07935713 169.967241,7.90381985 169.98443,8.73052389 C169.988611,9.10070062 169.988611,9.49832688 169.988611,9.89404476 C170,10.3842152 170,10.850766 170,11.3211466 L170,38.6774548 C170,39.1523319 170,39.6157064 169.988611,40.0828715 C169.988611,40.5079473 169.988611,40.8973387 169.982988,41.2981021 C169.966171,42.1100539 169.883823,42.9198006 169.736605,43.7208512 C169.602082,44.4803685 169.33951,45.2166072 168.958099,45.9037436 C168.578105,46.5735401 168.083978,47.1848089 167.493929,47.7150214 C166.904976,48.2558881 166.22375,48.7071822 165.476444,49.0515529 C164.719225,49.3992388 163.908554,49.6415093 163.071723,49.7702081 C162.180592,49.9021763 161.27981,49.9734395 160.376936,49.9833996 C159.954669,49.992288 159.512506,49.9973858 159.083174,49.9973858 L157.520393,50 L10.9161345,49.9973858 Z" id="Background-Black" fill="#525F7F"></path>
                    <path d="M51.8778375,34.9245625 L45.9610875,34.9245625 L44.5401875,39.120125 L42.0340875,39.120125 L47.6383375,23.597625 L50.2420875,23.597625 L55.8463375,39.120125 L53.2975,39.120125 L51.8778375,34.9245625 Z M46.573875,32.988525 L51.263875,32.988525 L48.9518625,26.1794375 L48.8871625,26.1794375 L46.573875,32.988525 Z M67.9496125,33.4621625 C67.9496125,36.9790125 66.0672875,39.238525 63.2267125,39.238525 C61.7584441,39.3153308 60.3754155,38.5462884 59.665925,37.258525 L59.612175,37.258525 L59.612175,42.864 L57.289175,42.864 L57.289175,27.802975 L59.53775,27.802975 L59.53775,29.6853 L59.580475,29.6853 C60.3214854,28.4056099 61.7060053,27.6368985 63.1839875,27.6845625 C66.05625,27.684575 67.9496125,29.955075 67.9496125,33.4621625 Z M65.5619125,33.4621625 C65.5619125,31.1709125 64.377825,29.66455 62.5711875,29.66455 C60.7962875,29.66455 59.6024375,31.2026375 59.6024375,33.4621625 C59.6024375,35.7424375 60.7962875,37.2695375 62.5711875,37.2695375 C64.3778375,37.2695375 65.5619125,35.774175 65.5619125,33.4621625 Z M80.4056625,33.4621625 C80.4056625,36.9790125 78.5233375,39.238525 75.6827625,39.238525 C74.2144941,39.3153308 72.8314655,38.5462884 72.121975,37.258525 L72.068225,37.258525 L72.068225,42.864 L69.745225,42.864 L69.745225,27.802975 L71.99375,27.802975 L71.99375,29.6853 L72.036475,29.6853 C72.7774908,28.4056107 74.162016,27.6369038 75.64,27.684575 C78.51235,27.684575 80.4056625,29.955075 80.4056625,33.4621625 Z M78.017975,33.4621625 C78.017975,31.1709125 76.833875,29.66455 75.0272375,29.66455 C73.2523375,29.66455 72.0584875,31.2026375 72.0584875,33.4621625 C72.0584875,35.7424375 73.2523375,37.2695375 75.0272375,37.2695375 C76.8338875,37.2695375 78.017975,35.774175 78.017975,33.4621625 L78.017975,33.4621625 Z M88.6380875,34.7951625 C88.8102125,36.334475 90.3055875,37.3451625 92.349025,37.3451625 C94.3070375,37.3451625 95.715725,36.334425 95.715725,34.946475 C95.715725,33.7416375 94.8661125,33.020225 92.8544,32.525825 L90.8426875,32.0412 C87.99235,31.352725 86.6691,30.0197125 86.6691,27.856625 C86.6691,25.1784 89.0030875,23.3388 92.3172875,23.3388 C95.5972875,23.3388 97.84585,25.1784 97.9215375,27.856625 L95.5765375,27.856625 C95.4361625,26.30755 94.1556375,25.3725 92.2843,25.3725 C90.4129625,25.3725 89.13245,26.31855 89.13245,27.6955 C89.13245,28.7929125 89.950325,29.4386625 91.95105,29.933 L93.66125,30.352925 C96.8460625,31.1061 98.1693125,32.385425 98.1693125,34.6559 C98.1693125,37.55995 95.856075,39.3788 92.176875,39.3788 C88.7344875,39.3788 86.410275,37.602675 86.260125,34.79505 L88.6380875,34.7951625 Z M103.182762,25.12475 L103.182762,27.802975 L105.334862,27.802975 L105.334862,29.642575 L103.182762,29.642575 L103.182762,35.8815875 C103.182762,36.850825 103.613675,37.3024875 104.559712,37.3024875 C104.815202,37.2980324 105.070278,37.2800908 105.323875,37.2487375 L105.323875,39.07735 C104.898535,39.1568244 104.466214,39.1928181 104.033587,39.184775 C101.742337,39.184775 100.848775,38.324175 100.848775,36.12935 L100.848775,29.642575 L99.203275,29.642575 L99.203275,27.802975 L100.84875,27.802975 L100.84875,25.12475 L103.182762,25.12475 Z M106.58125,33.4621625 C106.58125,29.901375 108.678412,27.663825 111.948687,27.663825 C115.229937,27.663825 117.317337,29.901325 117.317337,33.4621625 C117.317337,37.032725 115.240925,39.2605 111.948687,39.2605 C108.657612,39.2605 106.58125,37.0327125 106.58125,33.4621625 Z M114.950387,33.4621625 C114.950387,31.0195375 113.831,29.5778875 111.948675,29.5778875 C110.06635,29.5778875 108.948187,31.030525 108.948187,33.4621625 C108.948187,35.91455 110.06635,37.345225 111.948675,37.345225 C113.831,37.345225 114.950387,35.91455 114.950387,33.4621625 L114.950387,33.4621625 Z M119.232562,27.802975 L121.44815,27.802975 L121.44815,29.729225 L121.5019,29.729225 C121.81087,28.4892105 122.947066,27.6357894 124.224062,27.68455 C124.491768,27.6836153 124.758734,27.7126884 125.019962,27.771225 L125.019962,29.944075 C124.682001,29.8408041 124.32945,29.7933891 123.976212,29.8037 C123.293273,29.7759943 122.632339,30.0481684 122.166952,30.5487575 C121.701565,31.0493465 121.478221,31.7283384 121.555562,32.40745 L121.555562,39.1201 L119.232562,39.1201 L119.232562,27.802975 Z M135.730375,35.7961375 C135.417875,37.850575 133.417137,39.2604875 130.857325,39.2604875 C127.565087,39.2604875 125.521637,37.054675 125.521637,33.5158625 C125.521637,29.9660625 127.576075,27.6638125 130.759675,27.6638125 C133.890775,27.6638125 135.859775,29.8146875 135.859775,33.2460875 L135.859775,34.0419875 L127.866612,34.0419875 L127.866612,34.1823625 C127.791984,35.024902 128.082914,35.8588993 128.6654,36.4722124 C129.247885,37.0855255 130.065784,37.4190416 130.91105,37.387925 C132.038353,37.4935495 133.101179,36.8462221 133.524575,35.796125 L135.730375,35.7961375 Z M127.877578,32.4184625 L133.53555,32.4184625 C133.577707,31.6613719 133.302121,30.9210289 132.775188,30.3757894 C132.248254,29.83055 131.517751,29.5298505 130.759675,29.5461375 C129.995602,29.5415778 129.261363,29.8424183 128.720157,30.3817916 C128.17895,30.9211648 127.87562,31.6543786 127.877578,32.4184625 L127.877578,32.4184625 Z" id="App-Store" fill="#FFFFFF"></path>
                    <path d="M46.2827375,11.91375 C47.2689207,11.8429802 48.2348653,12.2181843 48.9147016,12.9360898 C49.5945379,13.6539953 49.9166073,14.638931 49.7922625,15.6198 C49.7922625,18.0026125 48.504425,19.3723 46.2827375,19.3723 L43.58865,19.3723 L43.58865,11.91375 L46.2827375,11.91375 Z M44.7470875,18.3175 L46.1533375,18.3175 C46.8581149,18.3596275 47.5443582,18.0819488 48.0215231,17.5615647 C48.4986881,17.0411807 48.7159745,16.333493 48.61305,15.635 C48.7084863,14.9394057 48.4880707,14.2375578 48.0120888,13.7214175 C47.536107,13.2052772 46.8543696,12.9288579 46.1533375,12.9677625 L44.7470875,12.9677625 L44.7470875,18.3175 Z M51.10085,16.555425 C51.0043339,15.5465313 51.4881046,14.5701399 52.3492699,14.0357467 C53.2104352,13.5013535 54.3001023,13.5013535 55.1612676,14.0357467 C56.0224329,14.5701399 56.5062036,15.5465313 56.4096875,16.555425 C56.5080399,17.5654028 56.0247108,18.543688 55.1627819,19.0792316 C54.300853,19.6147753 53.2096845,19.6147753 52.3477556,19.0792316 C51.4858267,18.543688 51.0024976,17.5654028 51.10085,16.555425 Z M55.2671125,16.555425 C55.2671125,15.3353375 54.719,14.6218375 53.7571,14.6218375 C52.791525,14.6218375 52.24835,15.3353375 52.24835,16.5554375 C52.24835,17.7853 52.7915625,18.4933 53.7571,18.4933 C54.719025,18.4933 55.2671125,17.7804 55.2671125,16.555425 L55.2671125,16.555425 Z M63.466575,19.3721875 L62.3142375,19.3721875 L61.1509125,15.226675 L61.063025,15.226675 L59.904575,19.3721875 L58.7632125,19.3721875 L57.2117,13.743525 L58.3384125,13.743525 L59.3467125,18.038525 L59.429725,18.038525 L60.58695,13.743525 L61.652625,13.743525 L62.80985,18.038525 L62.8977375,18.038525 L63.90115,13.743525 L65.0119875,13.743525 L63.466575,19.3721875 Z M66.3169125,13.743525 L67.38625,13.743525 L67.38625,14.6376875 L67.4692625,14.6376875 C67.7579311,13.9793474 68.4324661,13.5766343 69.14895,13.634875 C69.703721,13.5931647 70.2473573,13.8059874 70.6263635,14.2132526 C71.0053696,14.6205178 71.1786163,15.1780297 71.0971875,15.728375 L71.0971875,19.372125 L69.98635,19.372125 L69.98635,16.007325 C69.98635,15.1027875 69.5932875,14.65295 68.77175,14.65295 C68.3954573,14.6354239 68.0302752,14.7831032 67.7719433,15.057271 C67.5136113,15.3314387 67.3878938,15.7047513 67.42775,16.0793375 L67.42775,19.3721875 L66.3169125,19.3721875 L66.3169125,13.743525 Z M72.8672125,11.54625 L73.97805,11.54625 L73.97805,19.372175 L72.8672125,19.372175 L72.8672125,11.54625 Z M75.5222375,16.555425 C75.4257955,15.5464653 75.9096425,14.5700492 76.7708717,14.0356478 C77.632101,13.5012463 78.721824,13.5012463 79.5830533,14.0356478 C80.4442825,14.5700492 80.9281295,15.5464653 80.8316875,16.555425 C80.929915,17.565439 80.4464973,18.5436965 79.5845257,19.0792166 C78.722554,19.6147366 77.631371,19.6147366 76.7693993,19.0792166 C75.9074277,18.5436965 75.42401,17.565439 75.5222375,16.555425 L75.5222375,16.555425 Z M79.6885,16.555425 C79.6885,15.3353375 79.1403875,14.6218375 78.1784875,14.6218375 C77.2129125,14.6218375 76.6697375,15.3353375 76.6697375,16.5554375 C76.6697375,17.7853 77.21295,18.4933 78.1784875,18.4933 C79.1404,18.4933 79.6885,17.7804 79.6885,16.555425 L79.6885,16.555425 Z M82.001125,17.7804 C82.001125,16.7672125 82.755525,16.1831125 84.094625,16.1001 L85.6192875,16.0122125 L85.6192875,15.526375 C85.6192875,14.9318875 85.226225,14.5962 84.46695,14.5962 C83.8468375,14.5962 83.41715,14.8238625 83.29385,15.2218125 L82.2184125,15.2218125 C82.3319375,14.2550125 83.2413625,13.6349 84.5182125,13.6349 C85.92935,13.6349 86.72525,14.3374 86.72525,15.526375 L86.72525,19.3722 L85.6559125,19.3722 L85.6559125,18.5811875 L85.568025,18.5811875 C85.2048357,19.1588454 84.5589671,19.496454 83.87735,19.4649375 C83.3995202,19.5146398 82.9229639,19.3598883 82.5654948,19.0389406 C82.2080256,18.7179928 82.0030076,18.2608041 82.001125,17.7804 L82.001125,17.7804 Z M85.6192875,17.2994375 L85.6192875,16.8288625 L84.244775,16.91675 C83.469625,16.968625 83.1180625,17.2323 83.1180625,17.7285125 C83.1180625,18.2351 83.5575125,18.5299 84.1618125,18.5299 C84.5195451,18.5661123 84.876658,18.4555938 85.1514005,18.2236445 C85.426143,17.9916952 85.5949895,17.6581763 85.6192875,17.2994375 Z M88.1852,16.555425 C88.1852,14.7768625 89.0995125,13.65015 90.521625,13.65015 C91.239721,13.6170627 91.9122844,14.0018411 92.2477,14.63765 L92.3307125,14.63765 L92.3307125,11.54625 L93.44155,11.54625 L93.44155,19.372175 L92.3771,19.372175 L92.3771,18.4828875 L92.2892125,18.4828875 C91.9284427,19.1134212 91.2475932,19.4916956 90.5216375,19.4649375 C89.08975,19.465 88.1852,18.3382625 88.1852,16.555425 Z M89.3327,16.555425 C89.3327,17.749275 89.89545,18.4676625 90.8366125,18.4676625 C91.7728625,18.4676625 92.3515,17.7389125 92.3515,16.5603125 C92.3515,15.3872125 91.7667875,14.648075 90.8366125,14.648075 C89.9015125,14.648075 89.3326625,15.3713375 89.3326625,16.555425 L89.3327,16.555425 Z M98.0375,16.555425 C97.9409839,15.5465313 98.4247546,14.5701399 99.2859199,14.0357467 C100.147085,13.5013535 101.236752,13.5013535 102.097918,14.0357467 C102.959083,14.5701399 103.442854,15.5465313 103.346337,16.555425 C103.44469,17.5654028 102.961361,18.543688 102.099432,19.0792316 C101.237503,19.6147753 100.146334,19.6147753 99.2844056,19.0792316 C98.4224767,18.543688 97.9391476,17.5654028 98.0375,16.555425 L98.0375,16.555425 Z M102.20375,16.555425 C102.20375,15.3353375 101.65565,14.6218375 100.69375,14.6218375 C99.728175,14.6218375 99.185,15.3353375 99.185,16.5554375 C99.185,17.7853 99.7282125,18.4933 100.69375,18.4933 C101.655662,18.4933 102.20375,17.7804 102.20375,16.555425 Z M104.836812,13.743525 L105.90615,13.743525 L105.90615,14.6376875 L105.989162,14.6376875 C106.277831,13.9793474 106.952366,13.5766343 107.66885,13.634875 C108.223621,13.5931647 108.767257,13.8059874 109.146263,14.2132526 C109.52527,14.6205178 109.698516,15.1780297 109.617087,15.728375 L109.617087,19.372125 L108.50625,19.372125 L108.50625,16.007325 C108.50625,15.1027875 108.113187,14.65295 107.29165,14.65295 C106.915357,14.6354239 106.550175,14.7831032 106.291843,15.057271 C106.033511,15.3314387 105.907794,15.7047513 105.94765,16.0793375 L105.94765,19.3721875 L104.836812,19.3721875 L104.836812,13.743525 Z M115.89395,12.3421625 L115.89395,13.7691625 L117.113437,13.7691625 L117.113437,14.7048375 L115.89395,14.7048375 L115.89395,17.599125 C115.89395,18.188725 116.136875,18.4469 116.68985,18.4469 C116.831419,18.4464469 116.972847,18.4378871 117.113437,18.4212625 L117.113437,19.34655 C116.913949,19.3822384 116.711832,19.4012251 116.509187,19.4033125 C115.273837,19.4033125 114.781887,18.9687375 114.781887,17.8835375 L114.781887,14.7047875 L113.888337,14.7047875 L113.888337,13.7691125 L114.781887,13.7691125 L114.781887,12.3421625 L115.89395,12.3421625 Z M118.630762,11.54625 L119.731837,11.54625 L119.731837,14.6480625 L119.819725,14.6480625 C120.12226,13.9839607 120.8086,13.5807344 121.535975,13.6397625 C122.087596,13.6097466 122.623873,13.8272546 122.998737,14.2330423 C123.3736,14.63883 123.548006,15.190632 123.47445,15.73815 L123.47445,19.3721875 L122.3625,19.3721875 L122.3625,16.0121875 C122.3625,15.1131375 121.94375,14.6578125 121.158887,14.6578125 C120.772424,14.6261171 120.391674,14.7666137 120.118428,15.0417419 C119.845182,15.3168701 119.707302,15.6985754 119.74165,16.0848125 L119.74165,19.3721875 L118.630812,19.3721875 L118.630762,11.54625 Z M129.951562,17.8524125 C129.640071,18.9141369 128.612624,19.6001288 127.5126,19.480825 C126.762055,19.5006377 126.040739,19.1895384 125.540035,18.630069 C125.039331,18.0705995 124.809858,17.3193199 124.9125,16.5755625 C124.812584,15.8297381 125.041198,15.0772547 125.539114,14.5130587 C126.037029,13.9488627 126.755253,13.6284709 127.507712,13.6348875 C129.073875,13.6348875 130.0187,14.7048875 130.0187,16.4723875 L130.0187,16.86 L126.044087,16.86 L126.044087,16.92225 C126.008915,17.3399252 126.151563,17.7530597 126.436951,18.0600509 C126.722339,18.3670421 127.123985,18.5394049 127.543112,18.53475 C128.086577,18.5999934 128.615603,18.3304163 128.882225,17.852375 L129.951562,17.8524125 Z M126.044062,16.03845 L128.887075,16.03845 C128.915391,15.6564505 128.781073,15.2802563 128.517221,15.0025739 C128.253369,14.7248914 127.884522,14.5715453 127.501575,14.580325 C127.11344,14.5754486 126.739785,14.7275265 126.46537,15.0020611 C126.190956,15.2765957 126.039041,15.6503172 126.044087,16.03845 L126.044062,16.03845 Z" id="Download-on-the" fill="#FFFFFF"></path>
                    <path d="M29.9611,26.37585 C29.9884212,24.2552614 31.1001537,22.2964826 32.9068,21.185775 C31.7618908,19.550641 29.9129901,18.5510979 27.91785,18.488675 C25.8188,18.26835 23.7838625,19.7447125 22.714225,19.7447125 C21.6238875,19.7447125 19.9770125,18.51055 18.2036,18.5470375 C15.8702516,18.622423 13.7476715,19.9169068 12.61245,21.956875 C10.19495,26.1424 11.9981875,32.2937125 14.31395,35.676975 C15.472575,37.3336625 16.826675,39.184225 18.5984875,39.1186 C20.3323125,39.0466875 20.9798625,38.013 23.0727375,38.013 C25.1461875,38.013 25.753725,39.1186 27.5614875,39.076875 C29.4219625,39.046675 30.59415,37.412825 31.712125,35.74045 C32.5445952,34.5599996 33.1851796,33.2553449 33.61015,31.8748125 C31.4004707,30.9402266 29.9636791,28.7750429 29.9611,26.37585 L29.9611,26.37585 Z M26.5465625,16.2636125 C27.5609707,15.0458524 28.0607312,13.4806281 27.9397125,11.9003375 C26.3899223,12.0631131 24.9583503,12.8038121 23.9302375,13.97485 C22.9150234,15.1302363 22.4007183,16.6417908 22.5006,18.1765875 C24.071171,18.1927585 25.5623951,17.4876915 26.5465625,16.2636125 L26.5465625,16.2636125 Z" id="Icon" fill="#FFFFFF"></path>
                </g>
            </g>
        </g>
    </g>
</svg>