<?xml version="1.0" encoding="UTF-8"?>
<svg width="27px" height="30px" viewBox="0 0 27 30" version="1.1" xmlns="http://www.w3.org/2000/svg" xmlns:xlink="http://www.w3.org/1999/xlink">
    <!-- Generator: Sketch 59.1 (86144) - https://sketch.com -->
    <title>award</title>
    <desc>Created with Sketch.</desc>
    <g id="Page-1" stroke="none" stroke-width="1" fill="none" fill-rule="evenodd">
        <g id="award" fill="#F7941D" fill-rule="nonzero">
            <path d="M20.1824756,6.85604113 L15.7507783,6.85604113 C14.2116722,6.85604113 12.9277948,5.58354755 12.9277948,4.04884319 L12.9277948,0.0308483291 C12.9277948,0.0231362468 12.9664658,0 12.9664658,0 L1.2413393,0 L1.2336051,0 C0.55299539,0.00771208226 0.00386710065,0.562982004 0.0114415523,1.24164525 L0.0114415523,24.5552699 C0.0114415523,24.562982 0.0114415523,24.5784062 0.0114415523,24.5861182 C0.0270697045,25.2493573 0.576197997,25.7737789 1.2413393,25.7583548 L16.176082,25.7583548 L16.176082,23.0437018 L16.1683478,23.0437018 C15.6888273,23.0822622 15.2247752,22.8663239 14.946344,22.4730077 C14.6601785,22.0796915 14.5983049,21.5784062 14.7839258,21.1311054 L15.2247752,20.0359897 L14.2270633,19.4113111 C14.0414424,19.2956298 13.8944926,19.1491003 13.7784796,18.9640103 C13.3685669,18.3161954 13.5696561,17.4601543 14.2270633,17.0514139 L15.2247752,16.4267352 L14.7839258,15.3316195 C14.6988495,15.1388175 14.6679127,14.9228792 14.6833811,14.714653 C14.7375205,13.9511568 15.410396,13.3727506 16.176082,13.4267352 L17.3516806,13.5038561 L17.637846,12.3624679 C17.6842512,12.1542416 17.7847959,11.9614396 17.9240115,11.7994859 C18.4190003,11.2210797 19.2929651,11.1439589 19.8730302,11.6375321 L20.1901325,11.9151671 L20.1901325,6.82519279 C20.1901325,6.82519279 20.1901325,6.85604113 20.1824756,6.85604113 Z" id="Path"></path>
            <path d="M23.0285843,25.0951157 C22.8893687,25.1413882 22.7424189,25.1645244 22.595469,25.1645244 C22.2706326,25.1645244 21.9535304,25.0488432 21.7060359,24.840617 L20.7934002,24.0771208 L19.8884986,24.8329049 C19.5095227,25.1413882 19.0067996,25.2416452 18.5427476,25.0874036 C18.1869743,24.9717224 17.8930747,24.7172236 17.7229222,24.3856041 L17.7229222,29.9768638 L20.2442718,27.5938303 C20.5459057,27.3084833 21.017692,27.3084833 21.3193258,27.5938303 L23.8329412,29.9768638 L23.8329412,24.3933162 C23.670523,24.7326478 23.3843576,24.9794345 23.0285843,25.0951157 Z" id="Path"></path>
            <path d="M14.4746351,0.809768637 L14.4746351,4.05655526 C14.4901035,4.75064268 15.0547002,5.30591258 15.7507783,5.32133677 L19.3703844,5.32133677 L14.4746351,0.809768637 Z" id="Path"></path>
            <path d="M24.9931488,19.0719795 L26.3388998,18.2313625 L24.9931488,17.3907455 C24.6760465,17.1902314 24.5445651,16.7969152 24.6837807,16.4498715 L25.2870484,14.9768638 L23.7015372,15.0848329 C23.3302955,15.1079691 22.9899907,14.8611825 22.8971803,14.4987146 L22.5104702,12.9640103 L21.8607973,13.5115681 L21.2962006,13.9820052 C21.0023009,14.2210797 20.5846541,14.2210797 20.2984886,13.9820052 L19.084219,12.9640103 L18.6975089,14.4987146 C18.6046985,14.8688946 18.2643937,15.1079691 17.893152,15.0848329 L16.3076408,14.9768638 L16.9031743,16.4498715 C17.0423899,16.7969152 16.9109085,17.1902314 16.5938062,17.3907455 L15.2480552,18.2313625 L16.586072,19.0796915 C16.9031743,19.2724936 17.0346557,19.6735218 16.8954401,20.0205655 L16.2999066,21.4858612 L17.8854178,21.377892 C18.2566595,21.3547558 18.5969643,21.6015424 18.6897747,21.9640103 L19.0764848,23.4987146 L20.2907544,22.4807198 C20.5769199,22.2416452 21.0023009,22.2416452 21.2884664,22.4807198 L22.502736,23.4987146 L22.889446,21.9562982 C22.9822565,21.5938303 23.3225613,21.3470437 23.693803,21.37018 L25.2793142,21.4781491 L24.6837807,20.0128535 C24.5444878,19.6658098 24.6759692,19.2724936 24.9931488,19.0719795 Z M20.8012117,21.3933162 C19.0532822,21.3933162 17.6301892,19.9820052 17.6301892,18.2390745 C17.6301892,16.4961439 19.045548,15.0771208 20.7934775,15.0771208 C22.541407,15.0771208 23.9567658,16.4884319 23.9645,18.2390745 C23.9644227,19.9820052 22.5490638,21.3933162 20.8012117,21.3933162 Z" id="Shape"></path>
            <path d="M20.8012117,16.6195373 C19.9040444,16.6195373 19.1770294,17.3367609 19.1770294,18.2313625 C19.1770294,19.125964 19.8963102,19.8508997 20.7934775,19.8508997 C21.6906448,19.8508997 22.4099256,19.125964 22.4176598,18.2390745 C22.4175824,17.344473 21.6983017,16.6195373 20.8012117,16.6195373 Z" id="Path"></path>
        </g>
    </g>
</svg>