<?xml version="1.0" encoding="UTF-8"?>
<svg width="102px" height="102px" viewBox="0 0 102 102" version="1.1" xmlns="http://www.w3.org/2000/svg" xmlns:xlink="http://www.w3.org/1999/xlink">
    <!-- Generator: Sketch 59.1 (86144) - https://sketch.com -->
    <title>ben-4</title>
    <desc>Created with Sketch.</desc>
    <g id="Pages" stroke="none" stroke-width="1" fill="none" fill-rule="evenodd">
        <g id="45---M+-Landing-Page" transform="translate(-1164.000000, -782.000000)">
            <g id="Group-3" transform="translate(0.000000, 610.000000)">
                <g id="Group-2" transform="translate(75.000000, 173.000000)">
                    <g id="ben-4" transform="translate(1090.000000, 0.000000)">
                        <circle id="Oval" stroke="#D7DCE3" stroke-width="2" fill="#F8FAFC" cx="50" cy="50" r="50"></circle>
                        <g id="004-hired" transform="translate(26.000000, 27.000000)" fill-rule="nonzero">
                            <path d="M6.33679012,28.5986564 L13.5282779,35.7916021 L22.927036,43.9128697 L23.4824984,44.4679675 C23.9231506,44.9913559 24.6214877,45.2217051 25.287022,45.0631579 C25.9529208,44.904975 26.4726644,44.3852313 26.6308472,43.7193326 C26.7890301,43.0537983 26.5590453,42.3558256 26.0356569,41.914809 L21.011347,36.8904991 L24.6692342,40.5483862 L26.0309188,41.9097063 C26.4715709,42.4330948 27.1699081,42.6630794 27.8354424,42.5048966 C28.5013412,42.3467137 29.0210848,41.8269701 29.1792676,41.1610714 C29.3378149,40.4955371 29.1074657,39.7972 28.5840773,39.3565477 L23.5648701,34.336976 L28.5840773,39.3565477 C29.0250941,39.8795716 29.7230668,40.1099209 30.3889654,39.9517381 C31.0544998,39.7931907 31.5746079,39.273447 31.7327907,38.6079128 C31.8909735,37.942014 31.6606243,37.2440413 31.1376004,36.8030247 L26.1180287,31.783453 L31.2247104,36.8904991 C31.5633091,37.2290978 32.0225496,37.4193546 32.5014718,37.4193546 C32.9803941,37.4193546 33.4396346,37.2290978 33.7782334,36.8904991 C34.1168321,36.5519003 34.3074534,36.0926597 34.3074534,35.6137375 C34.3074534,35.1348153 34.1168321,34.6755747 33.7782334,34.336976 L24.8412671,25.4083927 L23.5590385,21.6243966 C23.4693772,21.4990167 23.3691461,21.3816553 23.2590742,21.2737702 C23.1493667,21.1611469 23.0294539,21.0587289 22.9015226,20.9672454 C21.7800282,20.1446217 20.2528712,20.1493599 19.1368439,20.9796375 C19.0132864,21.0667475 18.8981117,21.1647917 18.7924135,21.2726767 C18.6889021,21.3736367 18.5948671,21.4840732 18.511402,21.6021636 L13.3686372,16.4593988 L13.356245,16.471791 L6.33679012,28.5986564 Z" id="Path" fill="#FDD7AD"></path>
                            <path d="M31.22143,37.717132 C31.0031086,37.717132 30.7935345,37.6303865 30.6393609,37.4758484 L30.5690169,37.4069624 L30.5537089,37.3912899 L25.5341371,32.3717181 C25.2221452,32.0484274 25.2265189,31.5348799 25.543978,31.2170563 C25.8618016,30.8992327 26.3757137,30.894859 26.6986399,31.2072155 L31.805686,36.313897 C32.0411379,36.549349 32.1114819,36.9036202 31.983915,37.2112385 C31.8563483,37.5188567 31.556384,37.7196833 31.2232524,37.7196833 L31.22143,37.717132 Z" id="Path" fill="#F09372"></path>
                            <path d="M28.5840773,40.1842741 C28.3657558,40.1842741 28.1561818,40.0971642 28.0016438,39.9429906 L22.9824365,34.9234188 C22.6700801,34.6001281 22.6748182,34.0865805 22.9922774,33.7687569 C23.310101,33.4509333 23.8240129,33.4465597 24.1469392,33.7589161 L29.166511,38.7781233 C29.4019628,39.0139397 29.4723069,39.3678465 29.3451045,39.6758292 C29.2175377,39.9834475 28.917209,40.1842741 28.5840773,40.1842741 L28.5840773,40.1842741 Z" id="Path" fill="#F09372"></path>
                            <path d="M26.034928,42.7392551 C25.8166065,42.7392551 25.6070325,42.6525096 25.4524944,42.4979715 L20.4332872,37.4783998 C20.1209307,37.155109 20.1253044,36.6415615 20.443128,36.3237379 C20.7609516,36.0062788 21.2744991,36.0015406 21.5977899,36.313897 L26.6220998,41.338207 C26.8575517,41.5736589 26.9282601,41.9279301 26.8006933,42.2355484 C26.6731266,42.5435311 26.3727979,42.7439933 26.0396662,42.7439933 L26.034928,42.7392551 Z" id="Path" fill="#F09372"></path>
                            <path d="M24.5219856,20.622815 C25.7561034,19.391613 27.7541641,19.391613 28.9886464,20.622815 C29.0965315,20.7285132 29.1949401,20.8436878 29.2816856,20.9672454 L29.9457619,20.303169 L31.859993,18.3893024 L41.4307841,27.9600934 L34.4124226,34.9784548 L24.8412671,25.4076638 L24.8667805,25.3821504 L21.6495456,28.5993854 C20.9431899,29.3006384 19.8027426,29.3006384 19.0963869,28.5993854 C18.3980499,27.8915718 18.3980499,26.7536759 19.0963869,26.0458623 L24.5219856,20.622815 Z" id="Path" fill="#AF8066"></path>
                            <path d="M26.752218,26.8309565 C25.89424,26.8327673 25.0584952,26.5557651 24.3718213,26.0411241 C24.0080737,25.7681312 23.9340849,25.2516677 24.2070779,24.8879201 C24.4800708,24.523808 24.9965342,24.4501838 25.3602818,24.7231767 C26.2896971,25.4153178 27.5861404,25.3227407 28.4080352,24.5055842 C28.4794725,24.4359692 28.5450784,24.3597936 28.6030301,24.2785153 C28.8625374,23.9093005 29.3702534,23.8178168 29.742384,24.072586 C30.1145146,24.3273551 30.2125588,24.8339776 29.9621634,25.209024 C29.8469887,25.3744964 29.7165061,25.5283055 29.5725379,25.669358 C28.823903,26.4154416 27.8092001,26.8334963 26.752218,26.8309565 L26.752218,26.8309565 Z" id="Path" fill="#7F5B53"></path>
                            <path d="M15.2697472,36.2563098 C15.9742804,36.9612075 15.9742804,38.1038417 15.2697472,38.8083749 C14.5648494,39.5132727 13.4222152,39.5132727 12.717682,38.8083749 C12.0127843,38.1038417 12.0127843,36.9612075 12.717682,36.2563098 C13.4222152,35.551412 14.5648494,35.551412 15.2697472,36.2563098 Z" id="Path" fill="#AF8066"></path>
                            <path d="M17.8221767,38.8072814 C18.5270745,39.5121792 18.5270745,40.6548134 17.8221767,41.3597111 C17.117279,42.0642443 15.9746449,42.0642443 15.2701116,41.3597111 C14.5652138,40.6548134 14.5652138,39.5121792 15.2701116,38.8072814 C15.9746449,38.1027482 17.117279,38.1027482 17.8221767,38.8072814 L17.8221767,38.8072814 Z" id="Path" fill="#AF8066"></path>
                            <path d="M20.3742419,41.3600756 C21.0791396,42.0646089 21.0791396,43.207243 20.3742419,43.9121407 C19.6697087,44.6170385 18.5270745,44.6170385 17.8221767,43.9121407 C17.1176435,43.207243 17.1176435,42.0646089 17.8221767,41.3600756 C18.5270745,40.6551779 19.6697087,40.6551779 20.3742419,41.3600756 Z" id="Path" fill="#AF8066"></path>
                            <path d="M22.927036,43.9132342 C23.6315693,44.6177674 23.6315693,45.7604016 22.927036,46.4652993 C22.2221382,47.1701971 21.0795042,47.1701971 20.3746064,46.4652993 C19.6700731,45.7604016 19.6700731,44.6177674 20.3746064,43.9132342 C21.0795042,43.2083364 22.2221382,43.2083364 22.927036,43.9132342 Z" id="Path" fill="#AF8066"></path>
                            <path d="M38.130084,14.4489459 L47.2857362,23.6045981 C47.9290373,24.2478992 47.9290373,25.2910313 47.2857362,25.9343325 L44.5106113,28.7094573 C43.8673101,29.3527585 42.8241781,29.3527585 42.1808769,28.7094573 L31.8603575,18.3889379 L35.8003495,14.4489459 C36.4436507,13.8056447 37.4867828,13.8056447 38.130084,14.4489459 Z" id="Path" fill="#285680"></path>
                            <path d="M43.9832137,24.1323602 C44.3356625,24.484809 44.3356625,25.0566728 43.9832137,25.4091216 C43.6307648,25.7615705 43.0589011,25.7615705 42.7064522,25.4091216 C42.3540033,25.0566728 42.3540033,24.484809 42.7064522,24.1323602 C43.0589011,23.7799113 43.6307648,23.7799113 43.9832137,24.1323602 L43.9832137,24.1323602 Z" id="Path" fill="#2C3E50"></path>
                            <g id="Group" transform="translate(5.691667, 0.000000)" fill="#24AE5F">
                                <path d="M0.870005667,11.5757768 C0.415138871,11.5757768 0.0462885515,11.2069265 0.0462885515,10.7520597 L0.0462885515,0.868183307 C0.0462885515,0.413316511 0.415138871,0.0444660985 0.870005667,0.0444660985 C1.32487246,0.0444660985 1.69372278,0.413316511 1.69372278,0.868183307 L1.69372278,10.7520597 C1.69372278,11.2069265 1.32487246,11.5757768 0.870005667,11.5757768 Z" id="Path"></path>
                                <path d="M6.63566102,11.5757768 C6.18079423,11.5757768 5.81194381,11.2069265 5.81194381,10.7520597 L5.81194381,0.868183307 C5.81194381,0.413316511 6.18079423,0.0444660985 6.63566102,0.0444660985 C7.09052782,0.0444660985 7.45937805,0.413316511 7.45937805,0.868183307 L7.45937805,10.7520597 C7.45937805,11.2069265 7.09052782,11.5757768 6.63566102,11.5757768 Z" id="Path"></path>
                                <path d="M6.63566102,6.63383857 L0.870005667,6.63383857 C0.415138871,6.63383857 0.0462885515,6.26498825 0.0462885515,5.81012145 C0.0462885515,5.35525466 0.415138871,4.98640434 0.870005667,4.98640434 L6.63566102,4.98640434 C7.09052782,4.98640434 7.45937805,5.35525466 7.45937805,5.81012145 C7.45937805,6.26498825 7.09052782,6.63383857 6.63566102,6.63383857 Z" id="Path"></path>
                                <path d="M27.2274955,6.63383857 L21.4618401,6.63383857 C21.0069733,6.63383857 20.638123,6.26498825 20.638123,5.81012145 C20.638123,5.35525466 21.0069733,4.98640434 21.4618401,4.98640434 L27.2274955,4.98640434 C27.6823623,4.98640434 28.0512126,5.35525466 28.0512126,5.81012145 C28.0512126,6.26498825 27.6823623,6.63383857 27.2274955,6.63383857 L27.2274955,6.63383857 Z" id="Path"></path>
                                <path d="M27.2274955,11.5757768 L21.4618401,11.5757768 C21.0069733,11.5757768 20.638123,11.2069265 20.638123,10.7520597 C20.638123,10.2971929 21.0069733,9.92834258 21.4618401,9.92834258 L27.2274955,9.92834258 C27.6823623,9.92834258 28.0512126,10.2971929 28.0512126,10.7520597 C28.0512126,11.2069265 27.6823623,11.5757768 27.2274955,11.5757768 L27.2274955,11.5757768 Z" id="Path"></path>
                                <path d="M27.2274955,1.69190033 L21.4618401,1.69190033 C21.0069733,1.69190033 20.638123,1.3230501 20.638123,0.868183307 C20.638123,0.413316511 21.0069733,0.0444660985 21.4618401,0.0444660985 L27.2274955,0.0444660985 C27.6823623,0.0444660985 28.0512126,0.413316511 28.0512126,0.868183307 C28.0512126,1.3230501 27.6823623,1.69190033 27.2274955,1.69190033 L27.2274955,1.69190033 Z" id="Path"></path>
                                <path d="M16.5199019,6.63383857 L13.2250334,6.63383857 C12.7701666,6.63383857 12.4013163,6.26498825 12.4013163,5.81012145 L12.4013163,0.868183307 C12.4013163,0.413316511 12.7701666,0.0444660985 13.2250334,0.0444660985 L16.5199019,0.0444660985 C18.3393691,0.0444660985 19.8144059,1.51950292 19.8144059,3.33897011 C19.8144059,5.15880175 18.3393691,6.63383857 16.5199019,6.63383857 Z M14.0487505,4.98640434 L16.5199019,4.98640434 C17.4296355,4.98640434 18.1669716,4.24906815 18.1669716,3.33897011 C18.1669716,2.42923651 17.4296355,1.69190033 16.5199019,1.69190033 L14.0487505,1.69190033 L14.0487505,4.98640434 Z" id="Shape"></path>
                                <path d="M13.2250334,11.5757768 C12.7701666,11.5757768 12.4013163,11.2069265 12.4013163,10.7520597 L12.4013163,5.81012145 C12.4013163,5.35525466 12.7701666,4.98640434 13.2250334,4.98640434 C13.6799002,4.98640434 14.0487505,5.35525466 14.0487505,5.81012145 L14.0487505,10.7520597 C14.0487505,11.2069265 13.6799002,11.5757768 13.2250334,11.5757768 Z" id="Path"></path>
                                <path d="M18.9906888,11.5757908 C18.6772389,11.5775992 18.3896669,11.400828 18.2493434,11.1201811 L15.7785565,6.17824287 C15.5748141,5.77148698 15.7399219,5.27652771 16.1466778,5.07278536 C16.5534337,4.86940737 17.048393,5.0341508 17.2521354,5.44127114 L19.7229222,10.3832094 C19.8504891,10.637614 19.8377324,10.9401296 19.6886615,11.1832355 C19.5395905,11.4259769 19.2757095,11.5743189 18.9906888,11.5757908 L18.9906888,11.5757908 Z" id="Path"></path>
                                <path d="M9.93052949,11.5757768 C9.47566269,11.5757768 9.10681228,11.2069265 9.10681228,10.7520597 L9.10681228,0.868183307 C9.10681228,0.413316511 9.47566269,0.0444660985 9.93052949,0.0444660985 C10.3853963,0.0444660985 10.7542465,0.413316511 10.7542465,0.868183307 L10.7542465,10.7520597 C10.7542465,11.2069265 10.3853963,11.5757768 9.93052949,11.5757768 Z" id="Path"></path>
                                <path d="M21.4618401,11.5757768 C21.0069733,11.5757768 20.638123,11.2069265 20.638123,10.7520597 L20.638123,0.868183307 C20.638123,0.413316511 21.0069733,0.0444660985 21.4618401,0.0444660985 C21.9167069,0.0444660985 22.2855572,0.413316511 22.2855572,0.868183307 L22.2855572,10.7520597 C22.2855572,11.2069265 21.9167069,11.5757768 21.4618401,11.5757768 Z" id="Path"></path>
                                <path d="M32.1694337,11.5757768 L29.6982823,11.5757768 C29.2434155,11.5757768 28.8749297,11.2069265 28.8749297,10.7520597 L28.8749297,0.868183307 C28.8749297,0.413316511 29.2434155,0.0444660985 29.6982823,0.0444660985 L32.1694337,0.0444660985 C34.4426742,0.0470174581 36.2851034,1.88944669 36.2876547,4.16268722 L36.2876547,7.45755569 C36.2851034,9.73079622 34.4426742,11.5732255 32.1694337,11.5757768 L32.1694337,11.5757768 Z M30.5219995,9.92834258 L32.1694337,9.92834258 C33.5340341,9.92834258 34.640585,8.82215608 34.640585,7.45755569 L34.640585,4.16268722 C34.640585,2.79808683 33.5340341,1.69190033 32.1694337,1.69190033 L30.5219995,1.69190033 L30.5219995,9.92834258 Z" id="Shape"></path>
                            </g>
                            <path d="M0.482567018,24.2435255 L9.63821921,15.0878733 C10.2815204,14.4445722 11.3246525,14.4445722 11.9679536,15.0878733 L15.9061233,19.026043 L5.58560387,29.3465624 C4.94230269,29.9898635 3.89917062,29.9898635 3.25586944,29.3465624 L0.482567018,26.5728955 C-0.160734157,25.9295943 -0.160734157,24.8868267 0.482567018,24.2435255 Z" id="Path" fill="#E64C3C"></path>
                            <path d="M5.06148657,24.7701942 C5.41393546,25.1226431 5.41393546,25.6945068 5.06148657,26.0469557 C4.70867322,26.3994046 4.13717391,26.3994046 3.78472501,26.0469557 C3.43227612,25.6945068 3.43227612,25.1226431 3.78472501,24.7701942 C4.13717391,24.4177453 4.70867322,24.4177453 5.06148657,24.7701942 L5.06148657,24.7701942 Z" id="Path" fill="#C03A2B"></path>
                        </g>
                    </g>
                </g>
            </g>
        </g>
    </g>
</svg>