<?xml version="1.0" encoding="UTF-8"?>
<svg width="102px" height="102px" viewBox="0 0 102 102" version="1.1" xmlns="http://www.w3.org/2000/svg" xmlns:xlink="http://www.w3.org/1999/xlink">
    <!-- Generator: Sketch 59.1 (86144) - https://sketch.com -->
    <title>ben-3</title>
    <desc>Created with Sketch.</desc>
    <g id="Pages" stroke="none" stroke-width="1" fill="none" fill-rule="evenodd">
        <g id="45---M+-Landing-Page" transform="translate(-834.000000, -782.000000)">
            <g id="Group-3" transform="translate(0.000000, 610.000000)">
                <g id="Group-2" transform="translate(75.000000, 173.000000)">
                    <g id="ben-3" transform="translate(760.000000, 0.000000)">
                        <circle id="Oval" stroke="#D7DCE3" stroke-width="2" fill="#F8FAFC" cx="50" cy="50" r="50"></circle>
                        <g id="003-interview" transform="translate(26.000000, 26.000000)" fill-rule="nonzero">
                            <path d="M23.5931396,48 C23.1437989,48 22.7797852,47.6356201 22.7797852,47.1862792 L22.7797852,30.9151612 C22.7797852,30.4658203 23.1437989,30.1018067 23.5931396,30.1018067 C24.0424805,30.1018067 24.4068604,30.4658203 24.4068604,30.9151612 L24.4068604,47.1862792 C24.4068604,47.6356201 24.0424805,48 23.5931396,48 L23.5931396,48 Z" id="Path" fill="#A5A5A4"></path>
                            <path d="M15.0168458,12.0552979 L12.8063964,15.368042 C12.7122803,15.5090333 12.7155761,15.6939698 12.8144531,15.8316651 C12.9136963,15.9689942 13.0876464,16.0308838 13.2513428,15.9865723 L19.7841797,14.2078857 C19.848999,14.1910401 19.9171143,14.1910401 19.9819336,14.2078857 C21.1629638,14.5015869 22.3762208,14.6477051 23.5931396,14.644043 C29.4345703,14.644043 34.1693115,11.3653565 34.1693115,7.32202144 C34.1693115,3.2786865 29.4345703,0 23.5931396,0 C17.7517089,0 13.0169678,3.2786865 13.0169678,7.32202144 C13.0579834,8.93371584 13.7585449,10.458252 14.954956,11.5385742 C15.0974121,11.6733398 15.1234131,11.8908692 15.0168458,12.0552979 Z" id="Path" fill="#B0D3F0"></path>
                            <path d="M35.7967604,28.8812256 C35.7982177,29.4213867 35.5847167,29.9395752 35.2027588,30.3215333 C34.821167,30.703125 34.3026123,30.9169922 33.7628174,30.9151728 L13.4238281,30.9151728 C12.300293,30.9151728 11.3898926,30.0047607 11.3898926,28.8812256 C11.3898926,27.7580567 12.300293,26.8472901 13.4238281,26.8472901 L33.7628174,26.8472901 C34.8859864,26.8472901 35.7967604,27.7580567 35.7967604,28.8812256 Z" id="Path" fill="#35495E"></path>
                            <path d="M4.06787109,47.1862792 C3.1691895,47.1862792 2.44079588,46.4578857 2.44079588,45.5592041 L2.44079588,37.4238281 L5.69494631,37.4238281 L5.69494631,45.5592041 C5.69494631,46.4578857 4.96655269,47.1862792 4.06787109,47.1862792 L4.06787109,47.1862792 Z" id="Path" fill="#D1D4D1"></path>
                            <path d="M10.5761719,47.1862792 C9.67749019,47.1862792 8.94909666,46.4578857 8.94909666,45.5592041 L8.94909666,37.4238281 L12.2032471,37.4238281 L12.2032471,45.5592041 C12.2032471,46.4578857 11.4748536,47.1862792 10.5761719,47.1862792 L10.5761719,47.1862792 Z" id="Path" fill="#D1D4D1"></path>
                            <path d="M9.76281741,13.8306885 C9.76281741,16.0770263 7.94165044,17.8981933 5.69494631,17.8981933 C3.44824219,17.8981933 1.62707522,16.0770263 1.62707522,13.8306885 C1.62707522,11.5839844 3.44824219,9.76281741 5.69494631,9.76281741 C7.94165044,9.76281741 9.76281741,11.5839844 9.76281741,13.8306885 Z" id="Path" fill="#FDD7AD"></path>
                            <path d="M20.3389893,32.5422364 L20.3389893,45.4698487 C20.3551026,46.3341065 19.7164307,47.0716552 18.8583984,47.1782227 C18.4039307,47.2170411 17.9542237,47.0639648 17.6176758,46.7567138 C17.2807617,46.4490967 17.0877685,46.0151367 17.0848388,45.5592041 L17.0848388,35.7967529 C17.0819092,34.8991699 16.3549805,34.1722412 15.4577636,34.1693115 L6.50830078,34.1693115 C4.71130369,34.1693115 3.25415044,32.7125244 3.25415044,30.9151612 L3.25415044,20.477417 C3.22595212,19.1630859 4.20886228,18.0461426 5.51586919,17.9066162 C6.19226072,17.8568115 6.85876462,18.0904541 7.35571294,18.5518799 C7.85266116,19.0133057 8.13500981,19.6607666 8.13574219,20.3389893 L8.13574219,28.4747315 C8.13830569,29.3719482 8.86523437,30.098877 9.76281741,30.1018067 L11.7967529,30.1018067 C12.1798096,30.6148682 12.7833252,30.9162598 13.4238281,30.9151612 L19.7124023,30.9151612 C20.1170654,31.3604737 20.3404541,31.940918 20.3389893,32.5422364 Z" id="Path" fill="#E64C3C"></path>
                            <path d="M13.8306885,35.7967529 C13.8277588,36.6939697 13.1008301,37.4208984 12.2032471,37.4238281 L3.25415044,37.4238281 C1.45715334,37.4238281 0,35.9666748 0,34.1693115 L0,21.9660645 C0.00256348125,21.0684815 0.729492188,20.3415527 1.62707522,20.3389686 C2.05883794,20.336792 2.47302244,20.5100098 2.77441406,20.8190918 C3.08312991,21.1204834 3.25671384,21.5343018 3.25415044,21.9660645 L3.25415044,30.9151612 C3.25415044,32.7125244 4.71130369,34.1693115 6.50830078,34.1693115 L12.2032471,34.1693115 C13.1008301,34.1722412 13.8277588,34.8991699 13.8306885,35.7967529 L13.8306885,35.7967529 Z" id="Path" fill="#35495E"></path>
                            <path d="M41.4916992,37.4238281 L44.7458496,37.4238281 L44.7458496,45.5592041 C44.7458496,46.4578857 44.017456,47.1862792 43.1187744,47.1862792 C42.2200928,47.1862792 41.4916992,46.4578857 41.4916992,45.5592041 L41.4916992,37.4238281 Z" id="Path" fill="#D1D4D1"></path>
                            <path d="M34.9830322,37.4238281 L38.2371826,37.4238281 L38.2371826,45.5592041 C38.2371826,46.4578857 37.5087891,47.1862792 36.6101074,47.1862792 C35.7114258,47.1862792 34.9830322,46.4578857 34.9830322,45.5592041 L34.9830322,37.4238281 Z" id="Path" fill="#D1D4D1"></path>
                            <path d="M45.5592041,13.8306885 C45.5592041,16.0770263 43.7380371,17.8981933 41.4916992,17.8981933 C39.2449951,17.8981933 37.4238281,16.0770263 37.4238281,13.8306885 C37.4238281,11.5839844 39.2449951,9.76281741 41.4916992,9.76281741 C43.7380371,9.76281741 45.5592041,11.5839844 45.5592041,13.8306885 L45.5592041,13.8306885 Z" id="Path" fill="#FDD7AD"></path>
                            <path d="M43.9321289,20.477417 L43.9321289,30.9151612 C43.9321289,32.7125244 42.4753417,34.1693115 40.6779786,34.1693115 L31.7288818,34.1693115 C30.8312989,34.1722412 30.1043701,34.8991699 30.1018067,35.7967529 L30.1018067,45.5592041 C30.098877,46.0151367 29.9055176,46.4490967 29.5689697,46.7567138 C29.2320557,47.0639648 28.7823487,47.2170411 28.3282471,47.1782227 C27.4702148,47.0716552 26.8311768,46.3341065 26.8472901,45.4698487 L26.8472901,32.5422364 C26.8461914,31.940918 27.0695801,31.3604737 27.473877,30.9151612 L33.7628174,30.9151612 C34.4033203,30.9162598 35.0064698,30.6148682 35.3898926,30.1018067 L37.4238281,30.1018067 C38.3214112,30.098877 39.0483398,29.3719482 39.0509033,28.4747315 L39.0509033,20.3389893 C39.0512695,19.6607666 39.3339844,19.0133057 39.8309326,18.5518799 C40.3275146,18.0904541 40.9943848,17.8568115 41.6704102,17.9066162 C42.9777833,18.0461426 43.9603271,19.1630859 43.9321289,20.477417 L43.9321289,20.477417 Z" id="Path" fill="#4482C3"></path>
                            <g id="Group" transform="translate(16.218750, 5.625000)" fill="#35495E">
                                <path d="M30.9675292,16.3410645 L30.9675292,28.5443115 C30.9675292,30.3416748 29.5107422,31.7988281 27.7133789,31.7988281 L18.7642822,31.7988281 C17.8656006,31.7988281 17.137207,31.0700683 17.137207,30.1717529 C17.137207,29.2730713 17.8656006,28.5443115 18.7642822,28.5443115 L24.4592286,28.5443115 C26.2565917,28.5443115 27.7133789,27.0875244 27.7133789,25.2901612 L27.7133789,16.3410645 C27.7199707,15.4453125 28.4447021,14.720581 29.3404541,14.7139893 C30.2380371,14.7165527 30.9649658,15.4434815 30.9675292,16.3410645 L30.9675292,16.3410645 Z" id="Path"></path>
                                <path d="M3.30651853,1.69702144 C3.30651853,2.59570312 2.578125,3.32409666 1.67944331,3.32409666 C0.780761719,3.32409666 0.0523681875,2.59570312 0.0523681875,1.69702144 C0.0523681875,0.798339844 0.780761719,0.0699463125 1.67944331,0.0699463125 C2.578125,0.0699463125 3.30651853,0.798339844 3.30651853,1.69702144 Z" id="Path"></path>
                                <path d="M9.00146484,1.69702144 C9.00146484,2.59570312 8.27307131,3.32409666 7.37438963,3.32409666 C6.47570803,3.32409666 5.7473145,2.59570312 5.7473145,1.69702144 C5.7473145,0.798339844 6.47570803,0.0699463125 7.37438963,0.0699463125 C8.27307131,0.0699463125 9.00146484,0.798339844 9.00146484,1.69702144 Z" id="Path"></path>
                                <path d="M14.6964112,1.69702144 C14.6964112,2.59570312 13.9680176,3.32409666 13.0693359,3.32409666 C12.1706542,3.32409666 11.4422607,2.59570312 11.4422607,1.69702144 C11.4422607,0.798339844 12.1706542,0.0699463125 13.0693359,0.0699463125 C13.9680176,0.0699463125 14.6964112,0.798339844 14.6964112,1.69702144 L14.6964112,1.69702144 Z" id="Path"></path>
                            </g>
                        </g>
                    </g>
                </g>
            </g>
        </g>
    </g>
</svg>