<?xml version="1.0" encoding="UTF-8"?>
<svg width="102px" height="102px" viewBox="0 0 102 102" version="1.1" xmlns="http://www.w3.org/2000/svg" xmlns:xlink="http://www.w3.org/1999/xlink">
    <!-- Generator: Sketch 59.1 (86144) - https://sketch.com -->
    <title>ben-2</title>
    <desc>Created with Sketch.</desc>
    <g id="Pages" stroke="none" stroke-width="1" fill="none" fill-rule="evenodd">
        <g id="45---M+-Landing-Page" transform="translate(-504.000000, -782.000000)">
            <g id="Group-3" transform="translate(0.000000, 610.000000)">
                <g id="Group-2" transform="translate(75.000000, 173.000000)">
                    <g id="ben-2" transform="translate(430.000000, 0.000000)">
                        <circle id="Oval" stroke="#D7DCE3" stroke-width="2" fill="#F8FAFC" cx="50" cy="50" r="50"></circle>
                        <g id="002-cv" transform="translate(26.000000, 26.000000)" fill-rule="nonzero">
                            <path d="M18.2425827,47.8197957 L43.7980301,47.8197957 C46.0742947,47.8197957 47.9197471,45.9743434 47.9197471,43.6980788 L47.9197471,9.89919745 L38.0274806,0.00656614786 L18.2425827,0.00656614786 C15.9663181,0.00656614786 14.1208658,1.85201846 14.1208658,4.12828305 L14.1208658,43.6980788 C14.1208658,45.9743434 15.9663181,47.8197957 18.2425827,47.8197957 Z" id="Path" fill="#B0D3F0"></path>
                            <path d="M17.6242704,32.1569795 C15.9568337,32.7151022 14.2259242,33.061284 12.4720331,33.1875 C10.7181421,33.061284 8.98723247,32.7151022 7.31979567,32.1569795 C9.38083658,29.0654183 9.38083658,28.0348978 9.38083658,28.0348978 L15.5635943,28.0348978 C15.5635943,28.0348978 15.5635943,29.0654183 17.6242704,32.1569795 L17.6242704,32.1569795 Z" id="Path" fill="#F09372"></path>
                            <path d="M38.0274806,0.00656614786 L47.9197471,9.89919745 L39.6763133,9.89919745 C38.7658074,9.89919745 38.0274806,9.1608706 38.0274806,8.25036476 L38.0274806,0.00656614786 Z" id="Path" fill="#90BAE1"></path>
                            <path d="M28.135214,11.5476703 C27.6201362,11.5491245 27.1590467,11.2288425 26.9810311,10.7455009 L24.8794991,4.38655153 C24.7368677,3.95391539 24.9717899,3.48771885 25.404426,3.34472274 C25.8370623,3.20209139 26.3032587,3.43701367 26.4458901,3.86964981 L28.135214,8.99233952 L29.8259971,3.8678259 C29.9686284,3.43555443 30.4348249,3.20063234 30.867461,3.3432636 C31.3000973,3.48589494 31.5350195,3.95245625 31.3920233,4.38472763 L29.3047179,10.7126703 C29.1332685,11.212427 28.6634241,11.5476703 28.135214,11.5476703 L28.135214,11.5476703 Z" id="Path" fill="#894B9D"></path>
                            <path d="M21.540248,11.5476654 L19.8914153,11.5476654 C18.5256566,11.5476654 17.4181663,10.4405399 17.4181663,9.07478111 L17.4181663,5.77711574 C17.4181663,4.41135698 18.5256566,3.30423147 19.8914153,3.30423147 L21.540248,3.30423147 C22.9060068,3.30423147 24.0131323,4.41135698 24.0131323,5.77711574 C24.0131323,6.23236865 23.6443336,6.60153208 23.188716,6.60153208 C22.733463,6.60153208 22.3646644,6.23236865 22.3646644,5.77711574 C22.3646644,5.32186282 21.9955009,4.95269939 21.540248,4.95269939 L19.8914153,4.95269939 C19.4361624,4.95269939 19.066999,5.32186282 19.066999,5.77711574 L19.066999,9.07478111 C19.066999,9.53003402 19.4361624,9.89919745 19.8914153,9.89919745 L21.540248,9.89919745 C21.9955009,9.89919745 22.3646644,9.53003402 22.3646644,9.07478111 C22.3646644,8.61952819 22.733463,8.25036476 23.188716,8.25036476 C23.6443336,8.25036476 24.0131323,8.61952819 24.0131323,9.07478111 C24.0131323,10.4405399 22.9060068,11.5476654 21.540248,11.5476654 Z" id="Path" fill="#894B9D"></path>
                            <path d="M35.4546449,23.188716 L33.9057636,21.6394698 C33.2619164,20.9959873 33.2619164,19.9523346 33.9057636,19.3084874 C34.5496109,18.6646401 35.5932636,18.6646401 36.2371108,19.3084874 L36.9112354,19.9826119 C37.0721061,20.1434825 37.3332928,20.1434825 37.4941634,19.9826119 L40.641537,16.8352384 C41.2853842,16.1917559 42.329037,16.1917559 42.9728843,16.8352384 C43.6163668,17.4790856 43.6163668,18.5227383 42.9728843,19.1665856 L38.9507539,23.188716 C37.9851653,24.1535749 36.4202335,24.1535749 35.4546449,23.188716 Z" id="Path" fill="#4FBA6F"></path>
                            <path d="M35.4546449,32.2565661 L33.9057636,30.7076848 C33.2619164,30.0638376 33.2619164,29.0201848 33.9057636,28.3763375 C34.5496109,27.732855 35.5932636,27.732855 36.2371108,28.3763375 L36.9112354,29.0508269 C37.0721061,29.2116975 37.3332928,29.2116975 37.4941634,29.0508269 L40.641537,25.9030885 C41.2853842,25.259606 42.329037,25.259606 42.9728843,25.9030885 C43.6163668,26.5469358 43.6163668,27.5905885 42.9728843,28.2344358 L38.9507539,32.2565661 C37.9851653,33.2214251 36.4202335,33.2214251 35.4546449,32.2565661 Z" id="Path" fill="#4FBA6F"></path>
                            <path d="M35.4546449,41.3247811 L33.9057636,39.7755351 C33.2619164,39.1316877 33.2619164,38.088035 33.9057636,37.4445525 C34.5496109,36.8007053 35.5932636,36.8007053 36.2371108,37.4445525 L36.9112354,38.118677 C37.0721061,38.2795476 37.3332928,38.2795476 37.4941634,38.118677 L40.641537,34.9713035 C41.2853842,34.327821 42.329037,34.327821 42.9728843,34.9713035 C43.6163668,35.6151508 43.6163668,36.6588035 42.9728843,37.3026508 L38.9507539,41.3247811 C37.9851653,42.28964 36.4202335,42.28964 35.4546449,41.3247811 Z" id="Path" fill="#4FBA6F"></path>
                            <path d="M24.8375486,39.3702578 C24.8375486,44.5224952 12.4720331,44.5224952 12.4720331,44.5224952 C12.4720331,44.5224952 0.10651751,44.5224952 0.10651751,39.3702578 C-0.00182390661,37.5995866 0.557028233,35.8526265 1.67290851,34.4733706 C3.22507293,33.0623784 5.22410017,32.2423395 7.31979567,32.1569795 C7.31979567,32.1569795 7.31979567,35.2481761 12.4720331,39.3702578 C17.6242704,35.2481761 17.6242704,32.1569795 17.6242704,32.1569795 C19.7203307,32.2423395 21.719358,33.0623784 23.2711575,34.4733706 C24.3870379,35.8526265 24.9458901,37.5995866 24.8375486,39.3702578 Z" id="Path" fill="#285680"></path>
                            <path d="M17.6242704,32.1569795 C17.6242704,32.1569795 17.6242704,35.2481761 12.4720331,39.3702578 C7.31979567,35.2481761 7.31979567,32.1569795 7.31979567,32.1569795 C8.98723247,32.7151022 10.7181421,33.061284 12.4720331,33.1875 C14.2259242,33.061284 15.9568337,32.7151022 17.6242704,32.1569795 L17.6242704,32.1569795 Z" id="Path" fill="#E6E7E8"></path>
                            <path d="M17.0883998,20.7807636 C17.5305204,20.4871108 18.0663911,20.3696498 18.5905885,20.4509971 C19.3580983,20.6315662 18.9739786,22.2778454 18.9739786,22.2778454 C18.9739786,22.2778454 18.6292558,23.4418775 16.5674854,24.0164153 L8.19783558,24.0164153 C6.28927527,23.4375 5.95950873,22.2734679 5.95950873,22.2734679 C5.95950873,22.2734679 5.6100438,20.625 6.32721301,20.4466197 C6.8145671,20.3663668 7.3139591,20.4852869 7.71303502,20.7763862 L17.0883998,20.7807636 Z" id="Path" fill="#F09372"></path>
                            <g id="Group" transform="translate(19.050584, 14.754864)" fill="#3D324C">
                                <path d="M10.7330983,1.73893485 L1.66524803,1.73893485 C1.20999511,1.73893485 0.840831689,1.37013619 0.840831689,0.914883268 C0.840831689,0.459265588 1.20999511,0.0904669261 1.66524803,0.0904669261 L10.7330983,0.0904669261 C11.1883512,0.0904669261 11.5575146,0.459265588 11.5575146,0.914883268 C11.5575146,1.37013619 11.1883512,1.73893485 10.7330983,1.73893485 Z" id="Path"></path>
                                <path d="M10.7330983,5.03660022 L3.31408072,5.03660022 C2.8588278,5.03660022 2.48966437,4.66743679 2.48966437,4.21218388 C2.48966437,3.75693096 2.8588278,3.38776753 3.31408072,3.38776753 L10.7330983,3.38776753 C11.1883512,3.38776753 11.5575146,3.75693096 11.5575146,4.21218388 C11.5575146,4.66743679 11.1883512,5.03660022 10.7330983,5.03660022 Z" id="Path"></path>
                                <path d="M10.7330983,8.33390082 L4.1381323,8.33390082 C3.68287938,8.33390082 3.31408072,7.96510216 3.31408072,7.50948439 C3.31408072,7.05423147 3.68287938,6.6854329 4.1381323,6.6854329 L10.7330983,6.6854329 C11.1883512,6.6854329 11.5575146,7.05423147 11.5575146,7.50948439 C11.5575146,7.96510216 11.1883512,8.33390082 10.7330983,8.33390082 Z" id="Path"></path>
                                <path d="M10.7330983,11.6315662 L3.31408072,11.6315662 C2.8588278,11.6315662 2.48966437,11.2624027 2.48966437,10.8071498 C2.48966437,10.3518968 2.8588278,9.98273351 3.31408072,9.98273351 L10.7330983,9.98273351 C11.1883512,9.98273351 11.5575146,10.3518968 11.5575146,10.8071498 C11.5575146,11.2624027 11.1883512,11.6315662 10.7330983,11.6315662 Z" id="Path"></path>
                                <path d="M10.7330983,14.9288667 L0.840831689,14.9288667 C0.38557877,14.9288667 0.0164153463,14.5597033 0.0164153463,14.1044504 C0.0164153463,13.6491974 0.38557877,13.280034 0.840831689,13.280034 L10.7330983,13.280034 C11.1883512,13.280034 11.5575146,13.6491974 11.5575146,14.1044504 C11.5575146,14.5597033 11.1883512,14.9288667 10.7330983,14.9288667 Z" id="Path"></path>
                                <path d="M10.7330983,18.2265321 L6.56177043,18.2265321 C6.10651751,18.2265321 5.73771885,17.8573687 5.73771885,17.4021157 C5.73771885,16.9468628 6.10651751,16.5776994 6.56177043,16.5776994 L10.7330983,16.5776994 C11.1883512,16.5776994 11.5575146,16.9468628 11.5575146,17.4021157 C11.5575146,17.8573687 11.1883512,18.2265321 10.7330983,18.2265321 L10.7330983,18.2265321 Z" id="Path"></path>
                                <path d="M10.7330983,21.5238327 L8.5155642,21.5238327 C8.06031128,21.5238327 7.69114786,21.1546693 7.69114786,20.6994163 C7.69114786,20.2441634 8.06031128,19.875 8.5155642,19.875 L10.7330983,19.875 C11.1883512,19.875 11.5575146,20.2441634 11.5575146,20.6994163 C11.5575146,21.1546693 11.1883512,21.5238327 10.7330983,21.5238327 L10.7330983,21.5238327 Z" id="Path"></path>
                                <path d="M10.7330983,24.8214981 L9.07624025,24.8214981 C8.62098733,24.8214981 8.25182391,24.4523346 8.25182391,23.9970817 C8.25182391,23.5418288 8.62098733,23.1726654 9.07624025,23.1726654 L10.7330983,23.1726654 C11.1883512,23.1726654 11.5575146,23.5418288 11.5575146,23.9970817 C11.5575146,24.4523346 11.1883512,24.8214981 10.7330983,24.8214981 Z" id="Path"></path>
                                <path d="M10.7330983,28.1187987 L8.5155642,28.1187987 C8.06031128,28.1187987 7.69114786,27.7496352 7.69114786,27.2943823 C7.69114786,26.8391294 8.06031128,26.469966 8.5155642,26.469966 L10.7330983,26.469966 C11.1883512,26.469966 11.5575146,26.8391294 11.5575146,27.2943823 C11.5575146,27.7496352 11.1883512,28.1187987 10.7330983,28.1187987 L10.7330983,28.1187987 Z" id="Path"></path>
                            </g>
                            <path d="M17.4331226,18.5548395 C17.2525535,15.0215224 12.7343142,14.8453307 12.7343142,14.8453307 L12.0105788,14.8453307 C12.0105788,14.8453307 7.48869161,15.0215224 7.31177043,18.5548395 C7.13448448,22.0881566 7.67363813,22.4409047 7.67363813,23.6775292 C7.67363813,24.9141536 7.30593385,25.9742218 8.75267505,27.2108463 C10.1994163,28.4471061 10.1994163,29.6837305 11.6461576,29.6837305 L13.0928988,29.6837305 C14.53964,29.6837305 14.53964,28.4471061 15.9863813,27.2108463 C17.4331226,25.9742218 17.0712549,24.9141536 17.0712549,23.6775292 C17.0712549,22.4409047 17.6144212,22.0881566 17.4331226,18.5548395 L17.4331226,18.5548395 Z" id="Path" fill="#FDD7AD"></path>
                        </g>
                    </g>
                </g>
            </g>
        </g>
    </g>
</svg>