<?xml version="1.0" encoding="UTF-8"?>
<svg width="20px" height="18px" viewBox="0 0 20 18" version="1.1" xmlns="http://www.w3.org/2000/svg" xmlns:xlink="http://www.w3.org/1999/xlink">
    <!-- Generator: Sketch 59.1 (86144) - https://sketch.com -->
    <title>coins</title>
    <desc>Created with Sketch.</desc>
    <g id="Page-1" stroke="none" stroke-width="1" fill="none" fill-rule="evenodd">
        <g id="coins" fill="#414042" fill-rule="nonzero">
            <path d="M5.80507463,10.3148756 C6.36656716,10.3148756 6.90930348,10.278607 7.42288557,10.2110945 L7.42288557,4.58179104 C6.90935323,4.51432836 6.36656716,4.4780597 5.80507463,4.4780597 C2.59905473,4.4780597 4.97512438e-05,5.65681592 4.97512438e-05,7.11094527 L4.97512438e-05,7.6819403 C4.97512438e-05,9.1360199 2.59905473,10.3148756 5.80507463,10.3148756 Z" id="Path"></path>
            <path d="M5.80507463,13.2542786 C6.36656716,13.2542786 6.90930348,13.21801 7.42288557,13.150597 L7.42288557,11.5005473 C6.90920398,11.56801 6.36671642,11.6047761 5.80507463,11.6047761 C3.00656716,11.6047761 0.67079602,10.7065672 0.122139303,9.51114428 C0.042238806,9.68527363 4.97512438e-05,9.86557214 4.97512438e-05,10.050398 L4.97512438e-05,10.621393 C4.97512438e-05,12.0755224 2.59905473,13.2542786 5.80507463,13.2542786 Z" id="Path"></path>
            <path d="M7.42283582,14.5683085 L7.42283582,14.4400498 C6.90915423,14.5075124 6.36666667,14.5442786 5.80502488,14.5442786 C3.00651741,14.5442786 0.670746269,13.6460697 0.122089552,12.4506468 C0.0421890547,12.6247264 0,12.8050249 0,12.9898507 L0,13.5608458 C0,15.0150249 2.59900498,16.1937811 5.80502488,16.1937811 C6.44616915,16.1937811 7.06283582,16.1465174 7.63950249,16.0594527 C7.49656716,15.7670647 7.42283582,15.4587065 7.42283582,15.1392537 L7.42283582,14.5683085 Z" id="Path"></path>
            <path d="M14.1751244,0.0188557214 C10.9691045,0.0188557214 8.3700995,1.19761194 8.3700995,2.65174129 L8.3700995,3.22273632 C8.3700995,4.67686567 10.9691045,5.85562189 14.1751244,5.85562189 C17.3810945,5.85562189 19.9801493,4.67686567 19.9801493,3.22273632 L19.9801493,2.65174129 C19.9801493,1.19761194 17.3810945,0.0188557214 14.1751244,0.0188557214 Z" id="Path"></path>
            <path d="M14.1751244,7.14557214 C11.3766169,7.14557214 9.04084577,6.24741294 8.49218905,5.0519403 C8.41228856,5.2260199 8.3700995,5.40631841 8.3700995,5.59119403 L8.3700995,6.16218905 C8.3700995,7.61631841 10.9691045,8.79507463 14.1751244,8.79507463 C17.3810945,8.79507463 19.9801493,7.61631841 19.9801493,6.16218905 L19.9801493,5.59119403 C19.9801493,5.40631841 19.9379602,5.2260199 19.8580597,5.0519403 C19.309403,6.24741294 16.9736318,7.14557214 14.1751244,7.14557214 Z" id="Path"></path>
            <path d="M14.1751244,10.0850746 C11.3766169,10.0850746 9.04084577,9.18686567 8.49218905,7.99144279 C8.41228856,8.16552239 8.3700995,8.3458209 8.3700995,8.53069652 L8.3700995,9.10169154 C8.3700995,10.5558706 10.9691045,11.7346269 14.1751244,11.7346269 C17.3810945,11.7346269 19.9801493,10.5558706 19.9801493,9.10169154 L19.9801493,8.53069652 C19.9801493,8.3458209 19.9379602,8.16552239 19.8580597,7.99144279 C19.309403,9.18691542 16.9736318,10.0850746 14.1751244,10.0850746 Z" id="Path"></path>
            <path d="M14.1751244,13.1832338 C11.3766169,13.1832338 9.04084577,12.2850249 8.49218905,11.089602 C8.41228856,11.2637313 8.3700995,11.4439801 8.3700995,11.628806 L8.3700995,12.1998507 C8.3700995,13.6539801 10.9691045,14.8327363 14.1751244,14.8327363 C17.3810945,14.8327363 19.9801493,13.6539801 19.9801493,12.1998507 L19.9801493,11.628806 C19.9801493,11.4439801 19.9379602,11.2636318 19.8580597,11.089602 C19.309403,12.2849751 16.9736318,13.1832338 14.1751244,13.1832338 Z" id="Path"></path>
            <path d="M14.1751244,16.1226866 C11.3766169,16.1226866 9.04084577,15.2245274 8.49218905,14.0291045 C8.41228856,14.2032338 8.3700995,14.3835821 8.3700995,14.5683085 L8.3700995,15.1393035 C8.3700995,16.5934328 10.9691045,17.7721891 14.1751244,17.7721891 C17.3810945,17.7721891 19.9801493,16.5934328 19.9801493,15.1393035 L19.9801493,14.5682587 C19.9801493,14.3834328 19.9379602,14.2030846 19.8580597,14.0290547 C19.309403,15.2244776 16.9736318,16.1226866 14.1751244,16.1226866 Z" id="Path"></path>
        </g>
    </g>
</svg>