<?xml version="1.0" encoding="UTF-8"?>
<svg width="28px" height="30px" viewBox="0 0 28 30" version="1.1" xmlns="http://www.w3.org/2000/svg" xmlns:xlink="http://www.w3.org/1999/xlink">
    <!-- Generator: Sketch 59.1 (86144) - https://sketch.com -->
    <title>contact-information</title>
    <desc>Created with Sketch.</desc>
    <g id="Page-1" stroke="none" stroke-width="1" fill="none" fill-rule="evenodd">
        <g id="contact-information" fill="#F7941D" fill-rule="nonzero">
            <path d="M4.87740865,4.69383335 C4.87740865,5.37100001 4.35880399,5.91949999 3.71827242,5.91949999 L1.20647841,5.91949999 C0.564119602,5.91866665 0.04551495,5.37199999 0.04551495,4.69383335 L0.04551495,4.69383335 C0.04551495,4.01749999 0.564119602,3.46916667 1.20647841,3.46916667 L3.71727576,3.46916667 C4.35797341,3.46916667 4.87740865,4.01766666 4.87740865,4.69383335 L4.87740865,4.69383335 Z M4.87740865,11.5371667 C4.87740865,10.8608333 4.35880399,10.3106667 3.71827242,10.3106667 L1.20647841,10.3106667 C0.564119602,10.3106667 0.04551495,10.8591667 0.04551495,11.5371667 L0.04551495,11.5371667 C0.04551495,12.2135 0.564119602,12.7628333 1.20647841,12.7628333 L3.71727576,12.7628333 C4.35797341,12.761 4.87740865,12.2135 4.87740865,11.5371667 L4.87740865,11.5371667 Z M4.87740865,18.3776667 C4.87740865,17.7013333 4.35880399,17.152 3.71827242,17.152 L1.20647841,17.152 C0.564119602,17.1528333 0.04551495,17.6995 0.04551495,18.3776667 L0.04551495,18.3776667 C0.04551495,19.054 0.564119602,19.6041667 1.20647841,19.6041667 L3.71727576,19.6041667 C4.35797341,19.6041667 4.87740865,19.0558333 4.87740865,18.3776667 L4.87740865,18.3776667 Z M4.87740865,25.2191667 C4.87740865,24.5438333 4.35880399,23.9953333 3.71827242,23.9953333 L1.20647841,23.9953333 C0.564119602,23.9961667 0.04551495,24.5428333 0.04551495,25.2191667 L0.04551495,25.2191667 C0.04551495,25.8971667 0.564119602,26.4456667 1.20647841,26.4456667 L3.71727576,26.4456667 C4.35797341,26.4456667 4.87740865,25.8971667 4.87740865,25.2191667 L4.87740865,25.2191667 Z M27.7784053,1.33883333 L27.7784053,28.5785 C27.7784053,29.3163333 27.1820598,29.9165 26.4456811,29.9165 L3.81843855,29.9165 C3.08122923,29.9165 2.48405316,29.3181667 2.48405316,28.5785 L2.48405316,27.4118333 L3.71644517,27.4118333 C4.86112957,27.4118333 5.79269103,26.4291667 5.79269103,25.2216667 C5.79269103,24.0151667 4.86112957,23.0325 3.71644517,23.0325 L2.48405316,23.0325 L2.48405316,20.5686667 L3.71644517,20.5686667 C4.86112957,20.5686667 5.79269103,19.586 5.79269103,18.3785 C5.79269103,17.171 4.86112957,16.1901667 3.71644517,16.1901667 L2.48405316,16.1901667 L2.48405316,13.7273333 L3.71644517,13.7273333 C4.86112957,13.7273333 5.79269103,12.7446667 5.79269103,11.5371667 C5.79269103,10.3296667 4.86112957,9.34699999 3.71644517,9.34699999 L2.48405316,9.34699999 L2.48405316,6.88399999 L3.71644517,6.88399999 C4.86112957,6.88399999 5.79269103,5.90133335 5.79269103,4.69383335 C5.79269103,3.48633333 4.86112957,2.5055 3.71644517,2.5055 L2.48405316,2.5055 L2.48405316,1.33883333 C2.48405316,0.599166666 3.08039867,0 3.81843855,0 L26.4465116,0 C27.1820598,0 27.7784053,0.598333333 27.7784053,1.33883333 Z M12.6574751,11.3621667 C12.6890365,10.9651667 12.9420266,10.5363333 13.2664452,10.5808333 C13.6313954,10.6325 14.5332226,11.2996667 14.8584718,11.471 C15.7438538,11.927 17.170598,8.39333334 16.5083056,7.97733335 C15.989701,7.65550001 15.5252492,7.21766665 14.9606312,6.98283335 C14.8657807,6.94383335 14.7609635,6.94383335 14.658804,6.92216665 C12.3503322,6.40366667 9.99501663,8.40250001 9.75465115,11.4103333 C9.66063122,12.5598333 9.60830564,13.711 9.58571428,14.8631667 L9.58023255,14.8631667 C9.58205979,14.8948333 9.58388703,14.9248333 9.58388703,14.9575 C9.58388703,14.9901667 9.58205979,15.0173333 9.58023255,15.0518333 L9.58571428,15.0518333 C9.60564785,16.204 9.65980067,17.3553333 9.75465115,18.5046667 C9.99501663,21.5106667 12.3503322,23.5095 14.658804,22.991 C14.7609635,22.971 14.8657807,22.9701667 14.9606312,22.932 C15.5252492,22.6971667 15.989701,22.2603333 16.5083056,21.9366667 C17.1696013,21.5215 15.7440199,17.9896667 14.8584718,18.443 C14.5340532,18.6143333 13.632392,19.2841667 13.2664452,19.335 C12.9438538,19.3795 12.6890365,18.9488333 12.6574751,18.5526667 C12.5725914,17.5046667 12.648505,16.164 12.6556478,15.0526667 L12.6574751,15.0526667 C12.6574751,15.021 12.6574751,14.9901667 12.6574751,14.9583333 C12.6574751,14.9266667 12.6574751,14.8948333 12.6574751,14.864 L12.6556478,14.864 C12.6483389,13.7508333 12.5725914,12.411 12.6574751,11.3621667 Z M18.4009967,17.9706667 C20.0579734,16.3081667 20.0579734,13.6066667 18.4009967,11.9441667 L17.5200997,12.8298333 C18.6918605,14.0038333 18.6918605,15.9138333 17.5200997,17.0858333 L18.4009967,17.9706667 Z M19.9739203,19.5453333 C22.4938538,17.017 22.4938538,12.9006667 19.972093,10.3705 L19.091196,11.2543333 C21.1277409,13.2976667 21.1277409,16.6208333 19.091196,18.6631667 L19.9739203,19.5453333 Z M21.4945183,8.84483334 L20.6136213,9.72783335 C23.486711,12.6115 23.486711,17.3045 20.6136213,20.188 L21.4945183,21.0718333 C24.8528239,17.6996667 24.8528239,12.2151667 21.4945183,8.84483334 Z" id="Shape"></path>
        </g>
    </g>
</svg>