<?xml version="1.0" encoding="UTF-8"?>
<svg width="25px" height="30px" viewBox="0 0 25 30" version="1.1" xmlns="http://www.w3.org/2000/svg" xmlns:xlink="http://www.w3.org/1999/xlink">
    <!-- Generator: Sketch 59.1 (86144) - https://sketch.com -->
    <title>cv</title>
    <desc>Created with Sketch.</desc>
    <g id="Page-1" stroke="none" stroke-width="1" fill="none" fill-rule="evenodd">
        <g id="cv" fill="#F7941D" fill-rule="nonzero">
            <polygon id="Path" points="5.56130299 5.52345704 9.47013343 5.52345704 9.47013343 9.41402345 5.56130299 9.41402345"></polygon>
            <path d="M18.3928375,7.53123046 L23.9607928,7.53123046 L16.9113226,0.514863282 L16.9113226,6.05666014 C16.9113226,6.86976563 17.5759615,7.53123046 18.3928375,7.53123046 Z" id="Path"></path>
            <path d="M18.3928375,9.28904296 C16.6021389,9.28904296 15.1452316,7.83902345 15.1452316,6.05666014 L15.1452316,0 L3.25943878,0 C1.46868132,0 0.0117739404,1.45007813 0.0117739404,3.23244141 L0.0117739404,26.7675586 C0.0117739404,28.5499219 1.46868132,30 3.25937991,30 L21.230416,30 C23.0211735,30 24.478022,28.5499219 24.478022,26.7675586 L24.478022,9.28904296 L18.3928375,9.28904296 Z M3.79521193,4.64455078 C3.79521193,4.15916014 4.19052199,3.76564454 4.67825746,3.76564454 L10.353179,3.76564454 C10.8409144,3.76564454 11.2362245,4.15916014 11.2362245,4.64455078 L11.2362245,10.2929297 C11.2362245,10.7783203 10.8409144,11.1718359 10.353179,11.1718359 L4.67825746,11.1718359 C4.19052199,11.1718359 3.79521193,10.7783203 3.79521193,10.2929297 L3.79521193,4.64455078 Z M4.67825746,13.1797266 L16.0282771,13.1797266 C16.5160126,13.1797266 16.9113226,13.5732422 16.9113226,14.0586328 C16.9113226,14.5440234 16.5160126,14.9375391 16.0282771,14.9375391 L4.67825746,14.9375391 C4.19052199,14.9375391 3.79521193,14.5440234 3.79521193,14.0586328 C3.79521193,13.5731836 4.19052199,13.1797266 4.67825746,13.1797266 Z M19.8116562,26.2342969 L4.67825746,26.2342969 C4.19052199,26.2342969 3.79521193,25.8407812 3.79521193,25.3553906 C3.79521193,24.87 4.19052199,24.4764844 4.67825746,24.4764844 L19.8116562,24.4764844 C20.2992739,24.4764844 20.6947017,24.87 20.6947017,25.3553906 C20.6947017,25.8408399 20.2992739,26.2342969 19.8116562,26.2342969 Z M19.8116562,22.4687695 L4.67825746,22.4687695 C4.19052199,22.4687695 3.79521193,22.0752539 3.79521193,21.5898633 C3.79521193,21.1044726 4.19052199,20.710957 4.67825746,20.710957 L19.8116562,20.710957 C20.2992739,20.710957 20.6947017,21.1044726 20.6947017,21.5898633 C20.6947017,22.0752539 20.2992739,22.4687695 19.8116562,22.4687695 Z M19.8116562,18.7030664 L4.67825746,18.7030664 C4.19052199,18.7030664 3.79521193,18.3095508 3.79521193,17.8241601 C3.79521193,17.3387695 4.19052199,16.9452539 4.67825746,16.9452539 L19.8116562,16.9452539 C20.2992739,16.9452539 20.6947017,17.3387695 20.6947017,17.8241601 C20.6947017,18.3095508 20.2992739,18.7030664 19.8116562,18.7030664 Z" id="Shape"></path>
        </g>
    </g>
</svg>