<?xml version="1.0" encoding="UTF-8"?>
<svg width="60px" height="60px" viewBox="0 0 60 60" version="1.1" xmlns="http://www.w3.org/2000/svg" xmlns:xlink="http://www.w3.org/1999/xlink">
    <!-- Generator: Sketch 59.1 (86144) - https://sketch.com -->
    <title>dashboard-img7</title>
    <desc>Created with Sketch.</desc>
    <g id="Symbols" stroke="none" stroke-width="1" fill="none" fill-rule="evenodd">
        <g id="Dashboard" transform="translate(-405.000000, -1502.000000)">
            <g id="Group-21" transform="translate(405.000000, 1502.000000)">
                <g id="dashboard-img7">
                    <circle id="Oval" fill="#F7941D" cx="30" cy="30" r="30"></circle>
                    <path d="M37.2637752,32.1449075 C38.5250831,32.1449075 39.4922945,32.5186178 40.1707727,33.2669411 C40.8501448,34.0152644 41.1898309,35.0813316 41.1898309,36.4597268 L41.1898309,42.5925475 C41.1898309,42.9048754 41.2345264,43.1522102 41.3248114,43.3444815 C41.4177781,43.5313366 41.5822577,43.6757657 41.8245075,43.7768661 C41.9577001,43.8355404 42.1248614,43.8960201 42.3179462,43.952889 C42.5128187,44.0133687 42.7434476,44.0557948 43,44.0792645 L43,45 L35.5805414,45 L35.5805414,44.0792645 C35.7593235,44.0557948 35.9506204,44.0359358 36.1490685,44.0169794 C36.3475167,43.9989258 36.5137841,43.9592078 36.645189,43.890604 C36.8293346,43.8084599 36.9392856,43.6658362 36.9893446,43.4690516 C37.0420853,43.2722669 37.0680087,43.0150026 37.0680087,42.70448 L37.0680087,36.8144808 C37.0680087,35.9461009 36.91515,35.2970726 36.6112204,34.8655907 C36.3037151,34.4295953 35.8692745,34.2156597 35.3007473,34.2156597 C34.9422891,34.2156597 34.6213752,34.271626 34.3406872,34.3844612 C34.0617871,34.4981991 33.8034469,34.6408229 33.5701362,34.8060137 C33.3278864,34.9829393 33.1401652,35.1607676 33.0060786,35.3376933 C32.8746737,35.5146189 32.7575714,35.6680749 32.6699682,35.7881315 L32.6699682,42.5663697 C32.6699682,42.8714762 32.702149,43.1142976 32.7727679,43.3047635 C32.8433868,43.4916186 32.9738978,43.6441718 33.1643008,43.7533963 C33.2957057,43.8301243 33.4476705,43.8960201 33.6157257,43.952889 C33.7855687,44.0133687 33.962563,44.0557948 34.1556477,44.0792645 L34.1556477,45 L27.0588908,45 L27.0588908,44.0792645 C27.2144313,44.0630162 27.4048343,44.0422545 27.6309937,44.0169794 C27.8535774,43.992607 28.0144814,43.9474729 28.1226445,43.890604 C28.297851,43.7985304 28.4113777,43.6649335 28.4659062,43.4871052 C28.5195409,43.3119849 28.5445704,43.0502072 28.5445704,42.70448 L28.5445704,36.8144808 C28.5445704,35.9461009 28.3926056,35.2970726 28.0868881,34.8655907 C27.7820646,34.4295953 27.3458362,34.2156597 26.7790968,34.2156597 C26.4179569,34.2156597 26.0997247,34.271626 25.8199306,34.3844612 C25.5383488,34.4981991 25.286266,34.6408229 25.0520614,34.8060137 C24.8080237,34.9829393 24.6185147,35.1607676 24.4871098,35.3376933 C24.3512354,35.5146189 24.2386026,35.6680749 24.1465298,35.7881315 L24.1465298,42.5663697 C24.1465298,42.8615467 24.1876497,43.1043681 24.2609504,43.2966393 C24.3342511,43.4916186 24.4692316,43.6441718 24.6614224,43.7533963 C24.7928273,43.8301243 24.9447921,43.8960201 25.1164229,43.952889 C25.2880538,44.0133687 25.465942,44.0557948 25.6590267,44.0792645 L25.6590267,45 L18.1752065,45 L18.1752065,44.0792645 C18.390639,44.0630162 18.6042836,44.0422545 18.8143526,44.0169794 C19.0190582,43.992607 19.201416,43.9474729 19.3498051,43.890604 C19.6152966,43.791309 19.7985483,43.6468799 19.9004541,43.456414 C19.9987843,43.2668508 20.0497372,43.0150026 20.0497372,42.70448 L20.0497372,35.3647737 C20.0497372,35.0903585 19.9809061,34.827678 19.8369864,34.5731217 C19.6957486,34.3194681 19.5241177,34.1199754 19.3265634,33.9755463 C19.1754925,33.8735433 18.9833017,33.7886912 18.7571423,33.7209901 C18.5291951,33.6568996 18.2744306,33.6090575 18,33.5846851 L18,32.6639496 L23.9614903,32.3371788 L24.1465298,32.5240339 L24.1465298,34.3023172 L24.1974827,34.3023172 C24.4316873,34.092895 24.7070118,33.8437548 25.0306075,33.5512859 C25.3497336,33.2624277 25.6509815,33.0286331 25.9343512,32.8526101 C26.2445382,32.648604 26.636965,32.4825105 27.1214646,32.3471083 C27.6041764,32.2126087 28.1342654,32.1449075 28.7063682,32.1449075 C29.6565953,32.1449075 30.449494,32.3543297 31.0868524,32.7686607 C31.7242107,33.1875051 32.1774234,33.738141 32.4429149,34.4295953 L32.5555476,34.4295953 C32.7969035,34.1994115 33.0936818,33.9349257 33.4432009,33.6262085 C33.7945078,33.3220047 34.1145278,33.0755725 34.4068366,32.8878147 C34.7313262,32.6783925 35.1425251,32.5041749 35.6466907,32.3624539 C36.1490685,32.2171221 36.6889906,32.1449075 37.2637752,32.1449075 Z M41.5350592,24.0832363 C42.0642543,25.9427609 40.9987128,27.8880404 39.154575,28.4242334 C37.7949369,28.8187054 31.8674152,27.489055 31.7279651,27.0061202 C31.5867272,26.5024237 35.881968,22.0729638 37.2353488,21.6784918 C39.0776987,21.1432015 41.0049701,22.2201009 41.5350592,24.0832363 Z M19.3809132,24.0832363 C19.9083205,22.2201009 21.8329102,21.1432015 23.6779419,21.6784918 C25.0313226,22.0729638 29.3283513,26.5024237 29.1871134,27.0061202 C29.0467694,27.489055 23.1192477,28.8187054 21.7596095,28.4242334 C19.9127901,27.8880404 18.8499303,25.9427609 19.3809132,24.0832363 Z M30.2798298,15 C32.199056,15 33.7562484,16.5742772 33.7562484,18.5123351 C33.7562484,19.9376698 30.8537205,25.3275832 30.3522366,25.3275832 C29.8391318,25.3275832 26.8043051,19.928643 26.8043051,18.5123351 C26.8043051,16.5742772 28.3606036,15 30.2798298,15 Z" id="Combined-Shape" fill="#FFFFFF"></path>
                </g>
            </g>
        </g>
    </g>
</svg>