<?xml version="1.0" encoding="UTF-8"?>
<svg width="60px" height="60px" viewBox="0 0 60 60" version="1.1" xmlns="http://www.w3.org/2000/svg" xmlns:xlink="http://www.w3.org/1999/xlink">
    <!-- Generator: Sketch 59.1 (86144) - https://sketch.com -->
    <title>dashboard-img6</title>
    <desc>Created with Sketch.</desc>
    <g id="Symbols" stroke="none" stroke-width="1" fill="none" fill-rule="evenodd">
        <g id="Dashboard" transform="translate(-405.000000, -1324.000000)">
            <g id="Group-17" transform="translate(405.000000, 1324.000000)">
                <g id="dashboard-img6">
                    <circle id="Oval" fill="#F7941D" cx="30" cy="30" r="30"></circle>
                    <path d="M20.5858612,37.4299622 C23.6709595,37.4299622 26.1719513,39.930954 26.1719513,43.0158234 L26.1719513,43.0158234 L26.1719513,44.1210937 C26.1719513,44.6065521 25.7782746,45 25.2930451,45 L25.2930451,45 L15.8789062,45 C15.3934479,45 15,44.6065521 15,44.1210937 L15,44.1210937 L15,43.0158234 C15,39.930954 17.5009918,37.4299622 20.5858612,37.4299622 Z M20.5858612,29.1204071 C22.8804016,29.1204071 24.7405243,30.9805298 24.7405243,33.2752991 C24.7405243,35.5698395 22.8804016,37.4299622 20.5858612,37.4299622 C18.2913208,37.4299622 16.4311981,35.5698395 16.4311981,33.2752991 C16.4311981,30.9805298 18.2913208,29.1204071 20.5858612,29.1204071 Z M41.2969208,15 C43.3451843,15 45,16.6577912 45,18.7030792 L45,18.7030792 L45,30 C45,32.0482635 43.3422088,33.7030792 41.2969208,33.7030792 L41.2969208,33.7030792 L31.2343597,33.7030792 L27.7031708,36.351471 C27.1213532,36.7877197 26.2969208,36.3672638 26.2969208,35.648346 L26.2969208,35.648346 L26.2969208,18.7030792 C26.2969208,16.6548157 27.9547119,15 30,15 L30,15 Z M35.648346,27.7088929 C35.1633454,27.7088929 34.7694397,28.1027985 34.7694397,28.5877991 C34.7694397,29.0730286 35.1633454,29.4667054 35.648346,29.4667054 C36.1335755,29.4667054 36.5272522,29.0730286 36.5272522,28.5877991 C36.5272522,28.1027985 36.1335755,27.7088929 35.648346,27.7088929 Z M35.6474304,19.2363739 C33.8630677,19.2363739 32.4160767,20.6801605 32.4160767,22.4677277 L32.4160767,22.4677277 C32.4160767,22.9541016 32.8095246,23.3473206 33.2949829,23.3473206 C33.7802124,23.3473206 34.1738892,22.953186 34.1738892,22.4677277 C34.1738892,21.6551971 34.8310089,20.9941864 35.648346,20.9941864 C36.4615631,20.9941864 37.1230316,21.6556549 37.1230316,22.4686432 C37.1230316,23.2818604 36.4615631,23.9433288 35.648346,23.9433288 C35.1631165,23.9433288 34.7694397,24.3367767 34.7694397,24.8222351 L34.7694397,24.8222351 L34.7694397,25.7636261 C34.7694397,26.2490845 35.1631165,26.6425324 35.648346,26.6425324 C36.1338043,26.6425324 36.5272522,26.2490845 36.5272522,25.7636261 L36.5272522,25.7636261 L36.5272522,25.579834 C37.8840638,25.1959992 38.8808441,23.9465332 38.8808441,22.4688721 C38.8808441,20.6863403 37.4308777,19.2363739 35.6474304,19.2363739 Z" id="Combined-Shape" fill="#FFFFFF" fill-rule="nonzero"></path>
                </g>
            </g>
        </g>
    </g>
</svg>