<?xml version="1.0" encoding="UTF-8"?>
<svg width="60px" height="60px" viewBox="0 0 60 60" version="1.1" xmlns="http://www.w3.org/2000/svg" xmlns:xlink="http://www.w3.org/1999/xlink">
    <!-- Generator: Sketch 59.1 (86144) - https://sketch.com -->
    <title>dashboard-img9</title>
    <desc>Created with Sketch.</desc>
    <g id="Symbols" stroke="none" stroke-width="1" fill="none" fill-rule="evenodd">
        <g id="Dashboard" transform="translate(-405.000000, -1780.000000)">
            <g id="Group-17" transform="translate(405.000000, 1780.000000)">
                <g id="dashboard-img9">
                    <circle id="Oval" fill="#F7941D" cx="30" cy="30" r="30"></circle>
                    <path d="M29.9599457,36.4892188 C33.4384918,36.4771271 36.262207,39.2935181 36.262207,42.7693177 L36.262207,42.7693177 L36.262207,44.1210937 C36.262207,44.6065521 35.8687591,45 35.3833008,45 L35.3833008,45 L24.5807648,45 C24.0955353,45 23.7018585,44.6065521 23.7018585,44.1210937 L23.7018585,44.1210937 L23.7018585,42.8375244 C23.7018585,39.3665314 26.4889526,36.5011597 29.9599457,36.4892188 Z M29.9821472,28.1797028 C32.2766876,28.1797028 34.1368103,30.0398255 34.1368103,32.3343659 C34.1368103,34.6289062 32.2766876,36.4890289 29.9821472,36.4890289 C27.6876068,36.4890289 25.8274841,34.6289062 25.8274841,32.3343659 C25.8274841,30.0398255 27.6876068,28.1797028 29.9821472,28.1797028 Z M19.2416382,19.1862487 C19.5968628,18.6051178 20.4123688,18.6470032 20.7417298,19.1862487 L20.7417298,19.1862487 L21.9859314,21.2232971 L24.3079376,21.7776489 C24.9469757,21.9303131 25.1980591,22.7062225 24.7711945,23.2042694 L24.7711945,23.2042694 L23.2184601,25.0172425 L23.4091187,27.3964691 C23.4615326,28.0513001 22.8016663,28.529892 22.1955872,28.2781219 L22.1955872,28.2781219 L19.9916839,27.3616791 L17.787323,28.2781219 C17.1709442,28.5344696 16.5222931,28.0412292 16.5737915,27.3964691 L16.5737915,27.3964691 L16.7644501,25.0172425 L15.2117157,23.2042694 C14.7843933,22.7055359 15.03685,21.9300843 15.6752014,21.7776489 L15.6752014,21.7776489 L17.9972077,21.2232971 Z M39.258728,19.1862487 C39.6139526,18.6051178 40.4294586,18.6470032 40.7588196,19.1862487 L40.7588196,19.1862487 L42.0030212,21.2232971 L44.3250275,21.7776489 C44.9640656,21.9303131 45.2151489,22.7062225 44.7882843,23.2042694 L44.7882843,23.2042694 L43.2355499,25.0172425 L43.4262085,27.3964691 C43.4786224,28.0513001 42.8187561,28.529892 42.212677,28.2781219 L42.212677,28.2781219 L40.0087738,27.3616791 L37.8044128,28.2781219 C37.188034,28.5344696 36.5393829,28.0412292 36.5908813,27.3964691 L36.5908813,27.3964691 L36.7815399,25.0172425 L35.2288055,23.2042694 C34.8014831,22.7055359 35.0539398,21.9300843 35.6922913,21.7776489 L35.6922913,21.7776489 L38.0142975,21.2232971 Z M29.2501831,15.4202271 C29.6054077,14.8390961 30.4209137,14.8809814 30.7502747,15.4204559 L30.7502747,15.4204559 L31.9944763,17.4572754 L34.3164826,18.0116272 C34.9555206,18.1642914 35.206604,18.9402008 34.7797394,19.4382477 L34.7797394,19.4382477 L33.227005,21.2512207 L33.4176636,23.6304474 C33.4700775,24.2852783 32.8102112,24.7638703 32.2041321,24.5123291 L32.2041321,24.5123291 L30.0002289,23.5956574 L27.7958679,24.5123291 C27.1794891,24.7684479 26.5306091,24.2754364 26.5823364,23.6304474 L26.5823364,23.6304474 L26.772995,21.2512207 L25.2202606,19.4382477 C24.7929382,18.9395142 25.0453949,18.1640625 25.6835174,18.0116272 L25.6835174,18.0116272 L28.0055237,17.4572754 Z" id="Combined-Shape" fill="#FFFFFF" fill-rule="nonzero"></path>
                </g>
            </g>
        </g>
    </g>
</svg>