<?xml version="1.0" encoding="UTF-8"?>
<svg width="60px" height="60px" viewBox="0 0 60 60" version="1.1" xmlns="http://www.w3.org/2000/svg" xmlns:xlink="http://www.w3.org/1999/xlink">
    <!-- Generator: Sketch 59.1 (86144) - https://sketch.com -->
    <title>dashboard-img1</title>
    <desc>Created with Sketch.</desc>
    <g id="Symbols" stroke="none" stroke-width="1" fill="none" fill-rule="evenodd">
        <g id="Dashboard" transform="translate(-405.000000, -150.000000)">
            <g id="Group-18" transform="translate(405.000000, 150.000000)">
                <g id="dashboard-img1">
                    <circle fill="#F7941D" cx="30" cy="30" r="30"></circle>
                    <path d="M33.7481664,15 L33.7481664,19.7694397 C33.7481664,21.223526 34.9063442,22.4061585 36.3298631,22.4061585 L36.3298631,22.4061585 L41,22.4061585 L41,42.2383118 C41,43.7784577 39.7759351,45 38.2957175,45 L38.2957175,45 L21.7040583,45 C20.1964999,45 19,43.7503052 19,42.2383118 L19,42.2383118 L19,17.7616882 C19,16.2215423 20.2238407,15 21.7040583,15 L21.7040583,15 L33.7481664,15 Z M26.3127903,37.5938415 L23.5475511,37.5938415 C23.0722231,37.5938415 22.6869856,37.9872894 22.6869856,38.4727478 C22.6869856,38.9579773 23.0722231,39.351654 23.5475511,39.351654 L23.5475511,39.351654 L26.3127903,39.351654 C26.7881183,39.351654 27.1733559,38.9579773 27.1733559,38.4727478 C27.1733559,37.9872894 26.7881183,37.5938415 26.3127903,37.5938415 L26.3127903,37.5938415 Z M36.4522248,37.5938415 L30,37.5938415 C29.524672,37.5938415 29.1394344,37.9872894 29.1394344,38.4727478 C29.1394344,38.9579773 29.524672,39.351654 30,39.351654 L30,39.351654 L36.4522248,39.351654 C36.9275528,39.351654 37.3127903,38.9579773 37.3127903,38.4727478 C37.3127903,37.9872894 36.9275528,37.5938415 36.4522248,37.5938415 L36.4522248,37.5938415 Z M26.3127903,33.8280487 L23.5475511,33.8280487 C23.0722231,33.8280487 22.6869856,34.2217254 22.6869856,34.7069549 C22.6869856,35.1924134 23.0722231,35.5858612 23.5475511,35.5858612 L23.5475511,35.5858612 L26.3127903,35.5858612 C26.7881183,35.5858612 27.1733559,35.1924134 27.1733559,34.7069549 C27.1733559,34.2217254 26.7881183,33.8280487 26.3127903,33.8280487 L26.3127903,33.8280487 Z M36.4522248,33.8280487 L30,33.8280487 C29.524672,33.8280487 29.1394344,34.2217254 29.1394344,34.7069549 C29.1394344,35.1924134 29.524672,35.5858612 30,35.5858612 L30,35.5858612 L36.4522248,35.5858612 C36.9275528,35.5858612 37.3127903,35.1924134 37.3127903,34.7069549 C37.3127903,34.2217254 36.9275528,33.8280487 36.4522248,33.8280487 L36.4522248,33.8280487 Z M26.3127903,30.0624847 L23.5475511,30.0624847 C23.0722231,30.0624847 22.6869856,30.4559326 22.6869856,30.941391 C22.6869856,31.4268493 23.0722231,31.8202972 23.5475511,31.8202972 L23.5475511,31.8202972 L26.3127903,31.8202972 C26.7881183,31.8202972 27.1733559,31.4268493 27.1733559,30.941391 C27.1733559,30.4559326 26.7881183,30.0624847 26.3127903,30.0624847 L26.3127903,30.0624847 Z M36.4522248,30.0624847 L30,30.0624847 C29.524672,30.0624847 29.1394344,30.4559326 29.1394344,30.941391 C29.1394344,31.4268493 29.524672,31.8202972 30,31.8202972 L30,31.8202972 L36.4522248,31.8202972 C36.9275528,31.8202972 37.3127903,31.4268493 37.3127903,30.941391 C37.3127903,30.4559326 36.9275528,30.0624847 36.4522248,30.0624847 L36.4522248,30.0624847 Z M26.3127903,18.765564 C24.8218156,18.765564 23.608732,20.0045013 23.608732,21.5272522 C23.608732,22.1715546 23.8265626,22.7643585 24.1898379,23.2347107 C23.2801932,23.9080811 22.6869856,25.0009918 22.6869856,26.2335205 L22.6869856,26.2335205 L22.6869856,27.175827 C22.6869856,27.6612854 23.0722231,28.0547333 23.5475511,28.0547333 L23.5475511,28.0547333 L29.0780295,28.0547333 C29.5533575,28.0547333 29.938595,27.6612854 29.938595,27.175827 L29.938595,27.175827 L29.938595,26.2332916 C29.938595,25.0009918 29.3453875,23.9080811 28.4357428,23.2349396 C28.7992421,22.7645874 29.0168487,22.1715546 29.0168487,21.5272522 C29.0168487,20.0045013 27.803765,18.765564 26.3127903,18.765564 Z M26.3139108,24.2889404 C27.3636215,24.2889404 28.2174639,25.1612091 28.2176881,26.2335205 L28.2176881,26.2335205 L28.2176881,26.2969208 L24.4081167,26.2969208 L24.4081167,26.2335205 C24.4081167,25.1612091 25.2621832,24.2889404 26.3139108,24.2889404 Z M26.3127903,20.5233765 C26.8549018,20.5233765 27.2957175,20.9738159 27.2957175,21.5272522 C27.2957175,22.0809173 26.8549018,22.5311279 26.3127903,22.5311279 C25.7709029,22.5311279 25.3298631,22.0809173 25.3298631,21.5272522 C25.3298631,20.9738159 25.7709029,20.5233765 26.3127903,20.5233765 Z M35.5304783,15 C35.758842,15 35.9775691,15.0924683 36.1389251,15.2574921 L36.1389251,15.2574921 L40.7478812,19.964447 C40.9092372,20.1292419 40.9997759,20.3528595 40.9997759,20.5858612 L40.9997759,20.5858612 L40.9997759,20.648346 L36.3298631,20.648346 C35.8545351,20.648346 35.4692975,20.2548981 35.4692975,19.7694397 L35.4692975,19.7694397 L35.4692975,15 Z" id="Combined-Shape" fill="#FFFFFF" fill-rule="nonzero"></path>
                </g>
            </g>
        </g>
    </g>
</svg>