<?xml version="1.0" encoding="UTF-8"?>
<svg width="60px" height="60px" viewBox="0 0 60 60" version="1.1" xmlns="http://www.w3.org/2000/svg" xmlns:xlink="http://www.w3.org/1999/xlink">
    <!-- Generator: Sketch 59.1 (86144) - https://sketch.com -->
    <title>dashboard-img2</title>
    <desc>Created with Sketch.</desc>
    <g id="Symbols" stroke="none" stroke-width="1" fill="none" fill-rule="evenodd">
        <g id="Dashboard" transform="translate(-405.000000, -273.000000)">
            <g id="Group-18" transform="translate(405.000000, 273.000000)">
                <g id="dashboard-img2">
                    <circle id="Oval" fill="#F7941D" cx="30" cy="30" r="30"></circle>
                    <path d="M33.7657928,31.0036468 C34.2510223,31.0036468 34.6446991,31.3975525 34.6446991,31.8825531 L34.6446991,31.8825531 L34.6446991,45 L25.3553009,45 L25.3553009,31.8825531 C25.3553009,31.3975525 25.7489777,31.0036468 26.2342072,31.0036468 L26.2342072,31.0036468 Z M18.1967926,27.2385407 C20.0015259,27.2190857 21.4645386,28.6734009 21.4645386,30.4705811 L21.4645386,30.4705811 L21.4645386,34.7067261 L22.7185822,34.7067261 C23.2042694,34.7067261 23.5974884,35.1006317 23.5974884,35.5856323 L23.5974884,35.5856323 L23.5974884,45 L22.3434448,45 C21.8584442,45 21.4645386,44.6063232 21.4645386,44.1210937 L21.4645386,44.1210937 L21.4645386,39.351654 L19.1736603,39.351654 C16.8685913,39.351654 15,37.4830628 15,35.1779938 L15,35.1779938 L15,30.5186462 C15,28.73909 16.417923,27.2573089 18.1967926,27.2385407 Z M41.8032074,27.2385407 C43.582077,27.2573089 45,28.73909 45,30.5186462 L45,35.1779938 C45,37.4830628 43.1314087,39.351654 40.8263397,39.351654 L38.5354614,39.351654 L38.5354614,44.1210937 C38.5354614,44.6063232 38.1415558,45 37.6565552,45 L36.4025116,45 L36.4025116,35.5856323 C36.4025116,35.1006317 36.7957306,34.7067261 37.2814178,34.7067261 L38.5354614,34.7067261 L38.5354614,30.4705811 C38.5354614,28.6734009 39.9984741,27.2190857 41.8032074,27.2385407 Z M30,15 C33.8587189,15 36.9980621,18.1393433 36.9980621,21.9980621 C36.9980621,25.856781 33.8587189,28.9961243 30,28.9961243 C26.1412811,28.9961243 23.0019379,25.856781 23.0019379,21.9980621 C23.0019379,18.1393433 26.1412811,15 30,15 Z M18.2324982,20.1777649 C20.0177765,20.1777649 21.4649964,21.6249847 21.4649964,23.4100342 C21.4649964,25.1953125 20.0177765,26.6425324 18.2324982,26.6425324 C16.4472199,26.6425324 15,25.1953125 15,23.4100342 C15,21.6249847 16.4472199,20.1777649 18.2324982,20.1777649 Z M41.7675018,20.1777649 C43.5527801,20.1777649 45,21.6249847 45,23.4100342 C45,25.1953125 43.5527801,26.6425324 41.7675018,26.6425324 C39.9822235,26.6425324 38.5350036,25.1953125 38.5350036,23.4100342 C38.5350036,21.6249847 39.9822235,20.1777649 41.7675018,20.1777649 Z M32.5041962,20.7366943 C33.3261108,19.9150085 32.084198,18.6710358 31.2613678,19.4936371 L31.2613678,19.4936371 L30,20.7550049 L28.7386322,19.4936371 C27.9169464,18.6721802 26.6727448,19.9138641 27.4958038,20.7366943 L27.4958038,20.7366943 L28.7569427,21.9980621 L27.4958038,23.25943 C26.6738892,24.0811157 27.915802,25.3250885 28.7386322,24.5022583 L28.7386322,24.5022583 L30,23.2408905 L31.2613678,24.5022583 C32.0839691,25.3250885 33.3263397,24.0813446 32.5041962,23.25943 L32.5041962,23.25943 L31.2430573,21.9980621 Z" id="Combined-Shape" fill="#FFFFFF" fill-rule="nonzero"></path>
                </g>
            </g>
        </g>
    </g>
</svg>