<?xml version="1.0" encoding="UTF-8"?>
<svg width="60px" height="60px" viewBox="0 0 60 60" version="1.1" xmlns="http://www.w3.org/2000/svg" xmlns:xlink="http://www.w3.org/1999/xlink">
    <!-- Generator: Sketch 59.1 (86144) - https://sketch.com -->
    <title>dashboard-img4</title>
    <desc>Created with Sketch.</desc>
    <g id="Symbols" stroke="none" stroke-width="1" fill="none" fill-rule="evenodd">
        <g id="Dashboard" transform="translate(-405.000000, -606.000000)">
            <g id="Group-19" transform="translate(405.000000, 606.000000)">
                <g id="dashboard-img4">
                    <circle id="Oval" fill="#F7941D" cx="30" cy="30" r="30"></circle>
                    <path d="M21.8252563,36.8057585 C25.6192017,36.7925262 28.6988068,39.8641205 28.6988068,43.6550903 L28.6988068,43.6550903 L28.6988068,43.9221954 C28.6988068,44.5175171 28.2163239,45 27.6210022,45 L27.6210022,45 L16.0778046,45 C15.4824829,45 15,44.5175171 15,43.9221954 L15,43.9221954 L15,43.7294769 C15,39.9440003 18.0397796,36.8188477 21.8252563,36.8057585 Z M44.1210937,30.9375 C44.6065521,30.9375 45,31.3309479 45,31.8164062 L45,42.2385407 C45,42.7377319 44.5834351,43.1403351 44.0782928,43.1163025 C43.6061096,43.0938721 43.2421875,42.6866913 43.2421875,42.2133636 L43.2421875,41.2342072 L30.1096344,41.2342072 C29.5188904,39.2232513 28.2128906,37.5146484 26.4862061,36.4066315 C27.3802185,35.3489685 27.9206085,33.9825439 27.9206085,32.4925232 C27.9206085,31.9553375 27.8501129,31.4344025 27.718277,30.9375 L44.1210937,30.9375 Z M21.8495179,28.1797028 C24.23172,28.1797028 26.1625671,30.1107788 26.1625671,32.4927521 C26.1625671,34.8747253 24.23172,36.8058014 21.8495179,36.8058014 C19.4675446,36.8058014 17.5364685,34.8747253 17.5364685,32.4927521 C17.5364685,30.1107788 19.4675446,28.1797028 21.8495179,28.1797028 Z M38.0021667,24.1962433 C40.8631897,24.1962433 43.2215882,26.3479614 43.5486603,29.1210938 L32.4549866,29.1210938 C32.7820587,26.3479614 35.1404572,24.1962433 38.0021667,24.1962433 Z M26.705246,15 C28.5081482,15 29.9372864,16.4607239 29.9372864,18.2327271 L29.9372864,18.2327271 L29.9372864,22.6734925 L31.6728973,25.2761078 C32.0619964,25.8597565 31.6417694,26.6425324 30.9416198,26.6425324 L30.9416198,26.6425324 L18.2327271,26.6425324 C16.4337158,26.6425324 15,25.186615 15,23.4100342 L15,23.4100342 L15,18.2327271 C15,16.4520264 16.4389801,15 18.2327271,15 L18.2327271,15 Z M38.0021667,16.882782 C40.0215912,16.882782 41.6587829,18.5199738 41.6587829,20.5393982 C41.6587829,22.5590515 40.0215912,24.1962433 38.0021667,24.1962433 C35.9825134,24.1962433 34.3453216,22.5590515 34.3453216,20.5393982 C34.3453216,18.5199738 35.9825134,16.882782 38.0021667,16.882782 Z M22.4691009,21.5899658 L19.6446991,21.5899658 C19.1450501,21.5899658 18.7435913,22.0058441 18.7667084,22.5107575 C18.788681,22.9836273 19.1958618,23.3477783 19.6691895,23.3477783 L19.6691895,23.3477783 L22.4441528,23.3477783 C22.9177093,23.3477783 23.325119,22.9836273 23.3468628,22.5105286 C23.3702087,22.0058441 22.9678345,21.5899658 22.4691009,21.5899658 L22.4691009,21.5899658 Z M25.2683258,18.294754 L19.6446991,18.294754 C19.1445923,18.294754 18.7426758,18.7120056 18.7669372,19.2169189 C18.7895965,19.6893311 19.1965485,20.0525665 19.6696472,20.0525665 L19.6696472,20.0525665 L25.2932739,20.0525665 C25.7920075,20.0525665 26.1943817,19.6366882 26.1710358,19.1320038 C26.149292,18.658905 25.7418823,18.294754 25.2683258,18.294754 L25.2683258,18.294754 Z" id="Combined-Shape" fill="#FFFFFF" fill-rule="nonzero"></path>
                </g>
            </g>
        </g>
    </g>
</svg>