<?xml version="1.0" encoding="UTF-8"?>
<svg width="60px" height="60px" viewBox="0 0 60 60" version="1.1" xmlns="http://www.w3.org/2000/svg" xmlns:xlink="http://www.w3.org/1999/xlink">
    <!-- Generator: Sketch 59.1 (86144) - https://sketch.com -->
    <title>dashboard-img3</title>
    <desc>Created with Sketch.</desc>
    <g id="Symbols" stroke="none" stroke-width="1" fill="none" fill-rule="evenodd">
        <g id="Dashboard" transform="translate(-405.000000, -483.000000)">
            <g id="Group-18" transform="translate(405.000000, 483.000000)">
                <g id="dashboard-img3">
                    <circle id="Oval" fill="#F7941D" cx="30" cy="30" r="30"></circle>
                    <path d="M38.0019379,17 C40.7901764,17 43.117218,19.2579193 43.117218,22.1152801 L43.117218,22.1152801 L43.117218,29.5983429 C41.8931579,28.8144226 40.4393005,28.3596344 38.881073,28.3596344 C34.5380402,28.3596344 31.0045624,31.8928833 31.0045624,36.236145 C31.0045624,37.0328827 31.1238098,37.8019256 31.3449097,38.5272522 L31.3449097,38.5272522 L21.8456268,38.5272522 L16.4414978,43.0307312 C15.8617401,43.5141296 15,43.0904694 15,42.3555298 L15,42.3555298 L15,22.1152801 C15,19.256546 17.3286438,17 20.1152801,17 L20.1152801,17 Z M38.881073,30.1174469 C42.2605133,30.1174469 45,32.8567047 45,36.236145 C45,39.6155853 42.2605133,42.355072 38.881073,42.355072 C35.5018616,42.355072 32.7623749,39.6155853 32.7623749,36.236145 C32.7623749,32.8569336 35.5018616,30.1174469 38.881073,30.1174469 Z M41.9373322,34.8804779 C42.6347351,33.9509888 41.2294007,32.8951569 40.531311,33.8257904 L40.531311,33.8257904 L38.3150482,36.7808838 L37.1486664,35.614502 C36.3269806,34.7928161 35.0830078,36.034729 35.905838,36.8575592 L35.905838,36.8575592 L37.78862,38.7403412 C38.1678772,39.1198273 38.7936401,39.0719909 39.1131592,38.6462708 L39.1131592,38.6462708 Z M28.117218,32.0624847 L20.5858612,32.0624847 C20.1006317,32.0624847 19.7069549,32.4559326 19.7069549,32.941391 C19.7069549,33.4268493 20.1006317,33.8202972 20.5858612,33.8202972 L20.5858612,33.8202972 L28.117218,33.8202972 C28.6026764,33.8202972 28.9961243,33.4268493 28.9961243,32.941391 C28.9961243,32.4559326 28.6024475,32.0624847 28.117218,32.0624847 L28.117218,32.0624847 Z M31.882782,27.3555298 L20.5858612,27.3555298 C20.1006317,27.3555298 19.7069549,27.7489777 19.7069549,28.234436 C19.7069549,28.7196655 20.1006317,29.1133423 20.5858612,29.1133423 L20.5858612,29.1133423 L31.882782,29.1133423 C32.3682404,29.1133423 32.7616882,28.7196655 32.7616882,28.234436 C32.7616882,27.7489777 32.3682404,27.3555298 31.882782,27.3555298 L31.882782,27.3555298 Z M37.5311279,22.648346 L20.5858612,22.648346 C20.1006317,22.648346 19.7069549,23.0420227 19.7069549,23.5272522 C19.7069549,24.0127106 20.1006317,24.4061585 20.5858612,24.4061585 L20.5858612,24.4061585 L37.5311279,24.4061585 C38.0165863,24.4061585 38.4100342,24.0127106 38.4100342,23.5272522 C38.4100342,23.0420227 38.0165863,22.648346 37.5311279,22.648346 L37.5311279,22.648346 Z" id="Combined-Shape" fill="#FFFFFF" fill-rule="nonzero"></path>
                </g>
            </g>
        </g>
    </g>
</svg>