<?xml version="1.0" encoding="UTF-8"?>
<svg width="60px" height="60px" viewBox="0 0 60 60" version="1.1" xmlns="http://www.w3.org/2000/svg" xmlns:xlink="http://www.w3.org/1999/xlink">
    <!-- Generator: Sketch 59.1 (86144) - https://sketch.com -->
    <title>dashboard-img8</title>
    <desc>Created with Sketch.</desc>
    <g id="Symbols" stroke="none" stroke-width="1" fill="none" fill-rule="evenodd">
        <g id="Dashboard" transform="translate(-405.000000, -1680.000000)">
            <g id="Group-17" transform="translate(405.000000, 1680.000000)">
                <g id="dashboard-img8">
                    <circle id="Oval" fill="#F7941D" cx="30" cy="30" r="30"></circle>
                    <path d="M36.5583802,25.2230377 L36.5583802,42.3557587 C36.5583802,42.8409881 36.1651611,43.2346649 35.6794739,43.2346649 L35.6794739,43.2346649 L21.4025116,43.2346649 C20.9168244,43.2346649 20.5236053,42.8409881 20.5236053,42.3557587 L20.5236053,42.3557587 L20.5236053,25.2230377 L36.5583802,25.2230377 Z M45,27.7015991 L45,38.1193848 C45,38.2557983 44.9681854,38.3903809 44.9070739,38.5123749 L44.9070739,38.5123749 L43.024292,42.2779388 C42.8755188,42.5757141 42.571106,42.763855 42.2383118,42.763855 C41.9052887,42.763855 41.6008758,42.5757141 41.4521027,42.2779388 L41.4521027,42.2779388 L39.5693207,38.5123749 C39.5082093,38.3903809 39.4766235,38.2557983 39.4766235,38.1193848 L39.4766235,38.1193848 L39.4766235,27.7015991 L45,27.7015991 Z M32.7772522,38.9985199 L24.3047333,38.9985199 C23.8192749,38.9985199 23.425827,39.3919678 23.425827,39.8774261 C23.425827,40.3626556 23.8192749,40.7563324 24.3047333,40.7563324 L24.3047333,40.7563324 L32.7772522,40.7563324 C33.2627106,40.7563324 33.6561585,40.3626556 33.6561585,39.8774261 C33.6561585,39.3919678 33.2627106,38.9985199 32.7772522,38.9985199 L32.7772522,38.9985199 Z M32.7772522,35.2327271 L24.3047333,35.2327271 C23.8192749,35.2327271 23.425827,35.6264038 23.425827,36.1116333 C23.425827,36.5970917 23.8192749,36.9905396 24.3047333,36.9905396 L24.3047333,36.9905396 L32.7772522,36.9905396 C33.2627106,36.9905396 33.6561585,36.5970917 33.6561585,36.1116333 C33.6561585,35.6264038 33.2627106,35.2327271 32.7772522,35.2327271 L32.7772522,35.2327271 Z M32.7772522,31.4671631 L24.3047333,31.4671631 C23.8192749,31.4671631 23.425827,31.860611 23.425827,32.3460693 C23.425827,32.8315277 23.8192749,33.2249756 24.3047333,33.2249756 L24.3047333,33.2249756 L32.7772522,33.2249756 C33.2627106,33.2249756 33.6561585,32.8315277 33.6561585,32.3460693 C33.6561585,31.860611 33.2627106,31.4671631 32.7772522,31.4671631 L32.7772522,31.4671631 Z M18.765564,17.0002289 C20.5508423,17.0002289 21.9980621,18.4474487 21.9980621,20.2327271 C21.9980621,22.0177765 20.5508423,23.4649964 18.765564,23.4649964 L18.765564,23.4649964 L18.765564,33.0041046 L15.8789062,33.0041046 C15.3934479,33.0041046 15,32.6106567 15,32.1251984 L15,32.1251984 L15,20.7657928 C15,18.6861725 16.6859436,17.0002289 18.765564,17.0002289 Z M32.7772522,27.7015991 L24.3047333,27.7015991 C23.8192749,27.7015991 23.425827,28.095047 23.425827,28.5805054 C23.425827,29.0659637 23.8192749,29.4594116 24.3047333,29.4594116 L24.3047333,29.4594116 L32.7772522,29.4594116 C33.2627106,29.4594116 33.6561585,29.0659637 33.6561585,28.5805054 C33.6561585,28.095047 33.2627106,27.7015991 32.7772522,27.7015991 L32.7772522,27.7015991 Z M42.2383118,22.1779938 C43.7610626,22.1779938 45,23.4169312 45,24.939682 L45,24.939682 L45,25.9437866 L39.4766235,25.9437866 L39.4766235,24.939682 C39.4766235,23.4169312 40.7155609,22.1779938 42.2383118,22.1779938 Z M36.118927,17 C37.9042054,17 39.351654,18.4472199 39.351654,20.2327271 C39.351654,22.0180054 37.9042054,23.4652252 36.118927,23.4652252 L36.118927,23.4652252 L22.563858,23.4652252 C23.3068085,22.5938721 23.7556458,21.464798 23.7556458,20.2327271 C23.7556458,19.000885 23.3068085,17.8718109 22.5645446,17 L22.5645446,17 Z" id="Combined-Shape" fill="#FFFFFF" fill-rule="nonzero"></path>
                </g>
            </g>
        </g>
    </g>
</svg>