<?xml version="1.0" encoding="UTF-8"?>
<svg width="60px" height="60px" viewBox="0 0 60 60" version="1.1" xmlns="http://www.w3.org/2000/svg" xmlns:xlink="http://www.w3.org/1999/xlink">
    <!-- Generator: Sketch 59.1 (86144) - https://sketch.com -->
    <title>dashboard-img5</title>
    <desc>Created with Sketch.</desc>
    <g id="Symbols" stroke="none" stroke-width="1" fill="none" fill-rule="evenodd">
        <g id="Dashboard" transform="translate(-405.000000, -965.000000)">
            <g id="Group-16" transform="translate(405.000000, 965.000000)">
                <g id="dashboard-img5">
                    <circle id="Oval" fill="#F7941D" cx="30" cy="30" r="30"></circle>
                    <path d="M31.882782,31.0038757 C32.215805,31.0038757 32.519989,31.1920166 32.6689911,31.4897919 C32.8177643,31.7875671 32.7857208,32.1439362 32.585907,32.4101257 L32.585907,32.4101257 L29.9375153,35.9413147 L29.9375153,41.2969208 C29.9375153,43.3451843 28.2797241,45 26.234436,45 L26.234436,45 L18.7030792,45 C16.6612243,45 15,43.3387757 15,41.2969208 L15,41.2969208 L15,34.7069549 C15,32.6651001 16.6612243,31.0038757 18.7030792,31.0038757 L18.7030792,31.0038757 Z M39.4143677,31.0038757 C41.1552429,31.0038757 42.5665283,32.4151611 42.5665283,34.1562653 C42.5665283,35.8955384 41.1579895,37.3056793 39.419403,37.3084259 C42.5019837,37.3111725 45,39.8110199 45,42.8942871 L45,42.8942871 L45,44.1210938 C45,44.6065521 44.6065521,45 44.1210938,45 L44.1210938,45 L34.7071839,45 C34.2219544,45 33.8282776,44.6065521 33.8282776,44.1210938 L33.8282776,44.1210938 L33.8282776,42.8940582 C33.8282776,39.810791 36.3265228,37.3111725 39.4091034,37.3084259 C37.670517,37.3056793 36.2619782,35.8955384 36.2619782,34.1562653 C36.2619782,32.4151611 37.6732635,31.0038757 39.4143677,31.0038757 Z M22.4688721,39.0058136 L19.6444702,39.0058136 C19.1592407,39.0058136 18.765564,39.3992614 18.765564,39.8847199 C18.765564,40.3701782 19.1592407,40.7636261 19.6444702,40.7636261 L19.6444702,40.7636261 L22.4688721,40.7636261 C22.9541016,40.7636261 23.3477783,40.3701782 23.3477783,39.8847199 C23.3477783,39.3992614 22.9541016,39.0058136 22.4688721,39.0058136 L22.4688721,39.0058136 Z M25.2930451,35.2402496 L19.6444702,35.2402496 C19.1592407,35.2402496 18.765564,35.6336975 18.765564,36.1191559 C18.765564,36.6046143 19.1592407,36.9980621 19.6444702,36.9980621 L19.6444702,36.9980621 L25.2930451,36.9980621 C25.7782746,36.9980621 26.1719513,36.6046143 26.1719513,36.1191559 C26.1719513,35.6336975 25.7782746,35.2402496 25.2930451,35.2402496 L25.2930451,35.2402496 Z M41.2969208,15 C43.3387757,15 45,16.6612243 45,18.7030792 L45,18.7030792 L45,25.2930451 C45,27.3348999 43.3387757,28.9961243 41.2969208,28.9961243 L41.2969208,28.9961243 L28.117218,28.9961243 C27.784195,28.9961243 27.480011,28.8079834 27.3310089,28.5102081 C27.1822357,28.2124329 27.2142792,27.8560638 27.414093,27.5898743 L27.414093,27.5898743 L30.0624847,24.0586853 L30.0624847,18.7030792 C30.0624847,16.6548157 31.7202759,15 33.765564,15 L33.765564,15 Z M20.5860901,15 C22.3271942,15 23.7384796,16.4115143 23.7384796,18.1523895 C23.7384796,19.8916626 22.3299408,21.3018036 20.5913544,21.3045502 C23.6737061,21.3072967 26.1717224,23.8071442 26.1717224,26.8904114 L26.1717224,26.8904114 L26.1717224,28.117218 C26.1717224,28.6026764 25.7782746,28.9961243 25.2928161,28.9961243 L25.2928161,28.9961243 L15.8791351,28.9961243 C15.3936768,28.9961243 15.0002289,28.6026764 15.0002289,28.117218 L15.0002289,28.117218 L15.0002289,26.8904114 C15.0002289,23.8071442 17.4982453,21.3072967 20.5808258,21.3045502 C18.8422394,21.3018036 17.4337005,19.8916626 17.4337005,18.1523895 C17.4337005,16.4115143 18.844986,15 20.5860901,15 Z M37.5311279,24.4141388 C37.0461273,24.4141388 36.6522217,24.8078156 36.6522217,25.2930451 C36.6522217,25.7780456 37.0461273,26.1719513 37.5311279,26.1719513 C38.0163574,26.1719513 38.4100342,25.7780456 38.4100342,25.2930451 C38.4100342,24.8078156 38.0163574,24.4141388 37.5311279,24.4141388 Z M37.5302124,17.824173 C36.0079193,17.824173 34.7694397,19.0628815 34.7694397,20.5849457 L34.7694397,20.5849457 C34.7694397,21.0713196 35.1631165,21.4643097 35.648346,21.4643097 C36.1338043,21.4643097 36.5272522,21.070404 36.5272522,20.5849457 C36.5272522,20.0319671 36.9772339,19.5819855 37.5311279,19.5819855 C37.7993774,19.5819855 38.0511475,19.6863556 38.2413483,19.8767853 C38.4308624,20.0660706 38.5350036,20.3178405 38.5350036,20.5860901 C38.5350036,21.1395264 38.0847931,21.5899658 37.5311279,21.5899658 C37.0458984,21.5899658 36.6522217,21.9834137 36.6522217,22.4688721 C36.6522217,22.9541016 37.0458984,23.3477783 37.5311279,23.3477783 C39.0541077,23.3477783 40.2930451,22.108841 40.2928161,20.5860901 C40.2928161,19.8479462 40.0055695,19.1542054 39.4841766,18.633728 C38.9630127,18.1118774 38.2695007,17.824173 37.5302124,17.824173 Z" id="Combined-Shape" fill="#FFFFFF" fill-rule="nonzero"></path>
                </g>
            </g>
        </g>
    </g>
</svg>