<?xml version="1.0" encoding="UTF-8"?>
<svg width="30px" height="25px" viewBox="0 0 30 25" version="1.1" xmlns="http://www.w3.org/2000/svg" xmlns:xlink="http://www.w3.org/1999/xlink">
    <!-- Generator: Sketch 59.1 (86144) - https://sketch.com -->
    <title>education-&amp;-qualifications</title>
    <desc>Created with Sketch.</desc>
    <g id="Page-1" stroke="none" stroke-width="1" fill="none" fill-rule="evenodd">
        <g id="education-&amp;-qualifications" fill="#F7941D" fill-rule="nonzero">
            <path d="M16.9242105,18.0891729 C16.3903008,18.4166165 15.7065414,18.5969925 14.9988722,18.5969925 C14.291203,18.5969925 13.6074436,18.4166917 13.0735338,18.0891729 L4.3568421,12.7431579 C4.3568421,12.7431579 3.57007519,12.2609022 3.57007519,13.3533835 C3.57007519,14.5939849 3.57007519,18.3157895 3.57007519,18.3157895 C3.57007519,18.3654135 3.57007519,18.6145113 3.57007519,18.6917293 C3.57007519,21.5039098 8.68684211,24.5355639 14.9986466,24.5355639 C21.3104511,24.5355639 26.4272181,21.503985 26.4272181,18.6917293 C26.4272181,18.6145113 26.4272181,18.3654135 26.4272181,18.3157895 C26.4272181,18.3157895 26.4272181,14.3682707 26.4272181,13.052406 C26.4272181,12.1754887 25.8678947,12.603985 25.8678947,12.603985 L16.9242105,18.0891729 Z" id="Path"></path>
            <path d="M29.4954135,8.49075188 C30.165188,8.08000001 30.165188,7.40781956 29.4954135,6.99699248 L16.2166165,0.356766917 C15.5468421,-0.0539849625 14.450827,-0.0539849625 13.7810526,0.356766917 L0.502330826,6.99699248 C-0.16744361,7.40774438 -0.16744361,8.07992483 0.502330826,8.49075188 L13.7810526,16.6347368 C14.450827,17.0454887 15.5468421,17.0454887 16.2166165,16.6347368" id="Path"></path>
            <path d="M28.9462406,20.5620301 C28.9462406,18.3134586 28.9462406,11.5676692 28.9462406,11.5676692 C28.9462406,11.5676692 28.9524812,11.1416541 28.6996992,11.2823308 C28.4969173,11.395188 27.9998496,11.6722556 27.8247368,11.8245865 C27.6225564,12.0003008 27.6681203,12.3947369 27.6681203,12.3947369 C27.6681203,12.3947369 27.6681203,18.5202256 27.6681203,20.5620301 C27.6681203,20.6779699 27.5684963,20.7333083 27.5209775,20.7612782 C27.0619549,21.0311278 26.7533083,21.5292481 26.7533083,22.1003007 C26.7533083,22.9584962 27.4489474,23.6542105 28.3072181,23.6542105 C29.1654135,23.6542105 29.8610526,22.9584962 29.8610526,22.1003007 C29.8610526,21.5270677 29.5501504,21.0273684 29.0881955,20.7581955 C29.0422556,20.7314286 28.9462406,20.6778947 28.9462406,20.5620301 Z" id="Path"></path>
        </g>
    </g>
</svg>