<?xml version="1.0" encoding="UTF-8"?>
<svg width="48px" height="48px" viewBox="0 0 48 48" version="1.1" xmlns="http://www.w3.org/2000/svg" xmlns:xlink="http://www.w3.org/1999/xlink">
    <!-- Generator: Sketch 58 (84663) - https://sketch.com -->
    <title>emoji_1</title>
    <desc>Created with Sketch.</desc>
    <g id="Website---Inner-Pages" stroke="none" stroke-width="1" fill="none" fill-rule="evenodd">
        <g id="Interview/Feedback-Form-Option-1" transform="translate(-370.000000, -272.000000)">
            <g id="emoji_1" transform="translate(370.000000, 272.000000)">
                <path d="M47.1355569,23.5677046 C47.1355569,36.5838277 36.58368,47.1357046 23.5682954,47.1357046 C10.5521723,47.1357046 0.000295384615,36.5838277 0.000295384615,23.5677046 C0.000295384615,10.5515815 10.5521723,-0.000295384615 23.5682954,-0.000295384615 C36.58368,-0.000295384615 47.1355569,10.5515815 47.1355569,23.5677046" id="Fill-1" fill="#FFD21F"></path>
                <path d="M11.0446523,22.6540062 C10.5247754,22.6540062 10.0196677,22.3822523 9.74496,21.8978215 C9.33880615,21.1807754 9.59062154,20.2709908 10.3076677,19.8648369 L13.63296,17.9802831 L10.2626215,16.0684062 C9.54631385,15.6615138 9.29523692,14.7509908 9.70212923,14.0346831 C10.1075446,13.3176369 11.0180677,13.0672985 11.7351138,13.4734523 L17.3924677,16.6835446 C17.8599138,16.9486523 18.1479138,17.44416 18.1479138,17.9810215 C18.1479138,18.5178831 17.8591754,19.0141292 17.3917292,19.2784985 L11.7786831,22.4597908 C11.5468062,22.5919754 11.2935138,22.6540062 11.0446523,22.6540062" id="Fill-3" fill="#403408"></path>
                <path d="M36.1358031,22.6370954 C35.8839877,22.6370954 35.6292185,22.5728492 35.3966031,22.4369723 L29.8692185,19.2276185 C29.4143262,18.9632492 29.1351877,18.4773415 29.1351877,17.9522954 C29.1351877,17.4265108 29.4143262,16.9406031 29.8699569,16.6769723 L35.3537723,13.49568 C36.0582646,13.0873108 36.9599262,13.3265723 37.3690338,14.0310646 C37.7781415,14.7355569 37.5374031,15.6372185 36.8336492,16.0463262 L33.5460185,17.9530338 L36.8772185,19.8870646 C37.5817108,20.2961723 37.8202338,21.1985723 37.4118646,21.9023262 C37.1378954,22.3742031 36.6431262,22.6370954 36.1358031,22.6370954" id="Fill-5" fill="#403408"></path>
                <path d="M15.1220677,34.0785231 C15.0120369,34.0785231 14.8997908,34.0630154 14.7890215,34.0312615 C14.1546831,33.8473846 13.7884062,33.1879385 13.9693292,32.5536 C14.6730831,30.0915692 17.5922215,25.4348308 23.6055138,25.4348308 C29.6261908,25.4348308 32.4936369,30.0657231 33.1685908,32.5152 C33.3450831,33.1532308 32.9706831,33.8134154 32.3326523,33.9884308 C31.6946215,34.1656615 31.0344369,33.7905231 30.8586831,33.1524923 C30.7981292,32.9398154 29.2783754,27.8318769 23.6055138,27.8318769 C17.9230523,27.8318769 16.3375754,32.9966769 16.2733292,33.216 C16.1197292,33.7388308 15.6404677,34.0785231 15.1220677,34.0785231" id="Fill-7" fill="#403408"></path>
            </g>
        </g>
    </g>
</svg>