<?xml version="1.0" encoding="UTF-8"?>
<svg width="48px" height="48px" viewBox="0 0 48 48" version="1.1" xmlns="http://www.w3.org/2000/svg" xmlns:xlink="http://www.w3.org/1999/xlink">
    <!-- Generator: Sketch 58 (84663) - https://sketch.com -->
    <title>emoji_5</title>
    <desc>Created with Sketch.</desc>
    <defs>
        <polygon id="path-1" points="0.000369230769 0.125612308 47.1356308 0.125612308 47.1356308 47.2615385 0.000369230769 47.2615385"></polygon>
        <path d="M24.9312,0.549415385 L0.762092308,0.619569231 C0.251076923,0.621046154 -0.101169231,1.13796923 0.0923076923,1.61132308 L0.0923076923,1.61132308 C1.09883077,4.06744615 4.45956923,10.2505846 12.7960615,10.2505846 L12.7960615,10.2505846 C21.1273846,10.2505846 24.5649231,4.02461538 25.6024615,1.54633846 L25.6024615,1.54633846 C25.8018462,1.07224615 25.4473846,0.549415385 24.9334154,0.549415385 L24.9334154,0.549415385 C24.9326769,0.549415385 24.9319385,0.549415385 24.9312,0.549415385 L24.9312,0.549415385 Z" id="path-3"></path>
        <path d="M24.9312,0.549415385 L0.762092308,0.619569231 C0.251076923,0.621046154 -0.101169231,1.13796923 0.0923076923,1.61132308 L0.0923076923,1.61132308 C1.09883077,4.06744615 4.45956923,10.2505846 12.7960615,10.2505846 L12.7960615,10.2505846 C21.1273846,10.2505846 24.5649231,4.02461538 25.6024615,1.54633846 L25.6024615,1.54633846 C25.8018462,1.07224615 25.4473846,0.549415385 24.9334154,0.549415385 L24.9334154,0.549415385 C24.9326769,0.549415385 24.9319385,0.549415385 24.9312,0.549415385" id="path-5"></path>
    </defs>
    <g id="Website---Inner-Pages" stroke="none" stroke-width="1" fill="none" fill-rule="evenodd">
        <g id="Interview/Feedback-Form-Option-1" transform="translate(-642.000000, -271.000000)">
            <g id="emoji_5" transform="translate(642.000000, 271.000000)">
                <g id="Group-10" transform="translate(0.000000, 0.612628)">
                    <g id="Group-3">
                        <mask id="mask-2" fill="white">
                            <use xlink:href="#path-1"></use>
                        </mask>
                        <g id="Clip-2"></g>
                        <path d="M47.1356308,23.6936123 C47.1356308,36.7097354 36.5837538,47.2616123 23.5676308,47.2616123 C10.5515077,47.2616123 0.000369230769,36.7097354 0.000369230769,23.6936123 C0.000369230769,10.6774892 10.5515077,0.125612308 23.5676308,0.125612308 C36.5837538,0.125612308 47.1356308,10.6774892 47.1356308,23.6936123" id="Fill-1" fill="#FFD21F" mask="url(#mask-2)"></path>
                    </g>
                    <path d="M13.8709662,23.6640738 L11.8069662,23.6640738 C11.4333046,23.6640738 11.1268431,23.3583508 11.1268431,22.9839508 L11.1268431,18.1721354 C11.1268431,17.2542277 11.8785969,16.5032123 12.7965046,16.5032123 L12.8821662,16.5032123 C13.8000738,16.5032123 14.5510892,17.2542277 14.5510892,18.1721354 L14.5510892,22.9839508 C14.5510892,23.3583508 14.2453662,23.6640738 13.8709662,23.6640738" id="Fill-4" fill="#403408"></path>
                    <path d="M35.3282215,23.6640738 L33.2642215,23.6640738 C32.89056,23.6640738 32.5840985,23.3583508 32.5840985,22.9839508 L32.5840985,18.1721354 C32.5840985,17.2542277 33.3358523,16.5032123 34.25376,16.5032123 L34.3394215,16.5032123 C35.2573292,16.5032123 36.0083446,17.2542277 36.0083446,18.1721354 L36.0083446,22.9839508 C36.0083446,23.3583508 35.7026215,23.6640738 35.3282215,23.6640738" id="Fill-6" fill="#403408"></path>
                    <path d="M11.8387938,27.2041846 C11.3285169,27.2056615 10.9762708,27.7225846 11.1697477,28.1959385 C12.1755323,30.6520615 15.5370092,36.8352 23.8727631,36.8352 C32.2048246,36.8352 35.6416246,30.6084923 36.6799015,28.1309538 C36.8785477,27.6561231 36.5233477,27.1325538 36.0079015,27.1340277 L11.8387938,27.2041846 Z" id="Fill-8" fill="#403408"></path>
                </g>
                <g id="Group-17" transform="translate(11.076923, 27.197243)">
                    <g id="Group-13">
                        <mask id="mask-4" fill="white">
                            <use xlink:href="#path-3"></use>
                        </mask>
                        <g id="Clip-12"></g>
                        <path d="M1.83921231,0.340504615 C1.37398154,0.340504615 1.05348923,0.479335385 1.22924308,0.606350769 C2.14567385,1.26801231 5.20733538,2.93102769 12.8009354,2.93102769 C20.3901046,2.93102769 23.5204431,1.25619692 24.4664123,0.589366154 C24.6473354,0.461612308 24.3231508,0.321304615 23.8542277,0.322040174 L1.83921231,0.340504615 Z" id="Fill-11" fill="#FFFFFF" mask="url(#mask-4)"></path>
                    </g>
                    <g id="Group-16">
                        <mask id="mask-6" fill="white">
                            <use xlink:href="#path-5"></use>
                        </mask>
                        <g id="Clip-15"></g>
                        <path d="M21.7380185,12.2041846 C21.7380185,14.9232 17.6750031,17.1260308 12.6638031,17.1260308 C7.65334154,17.1260308 3.59032615,14.9232 3.59032615,12.2041846 C3.59032615,9.48590769 7.65334154,7.28233846 12.6638031,7.28233846 C17.6750031,7.28233846 21.7380185,9.48590769 21.7380185,12.2041846" id="Fill-14" fill="#D1212D" mask="url(#mask-6)"></path>
                    </g>
                </g>
                <g id="Group-22" transform="translate(8.861538, 10.951089)" fill="#403408">
                    <path d="M1.35389538,3.87633231 C1.25124923,3.87633231 1.14860308,3.85344 1.05038769,3.80470154 C0.711433846,3.63780923 0.572603077,3.22648615 0.740233846,2.88753231 C0.777156923,2.81368615 1.66109538,1.05762462 3.35069538,0.496393846 C4.26195692,0.193624615 5.21531077,0.289624615 6.18195692,0.78144 C6.51869538,0.952763077 6.65309538,1.36482462 6.48177231,1.70230154 C6.31044923,2.03904 5.89764923,2.17196308 5.56091077,2.00211692 C4.92361846,1.67719385 4.34171077,1.61073231 3.78195692,1.79608615 C2.64768,2.17270154 1.97494154,3.48125538 1.96829538,3.49454769 C1.84866462,3.73602462 1.60571077,3.87633231 1.35389538,3.87633231" id="Fill-18"></path>
                    <path d="M28.0589538,3.84029538 C27.8064,3.84029538 27.5641846,3.69998769 27.4445538,3.45851077 C27.4386462,3.44743385 26.7784615,2.15512615 25.6500923,1.79032615 C25.0940308,1.60940308 24.5158154,1.68251077 23.8807385,2.01260308 C23.5454769,2.18688 23.1312,2.05617231 22.9576615,1.72017231 C22.7826462,1.38491077 22.9140923,0.971372308 23.2493538,0.797095385 C24.2174769,0.294941538 25.1700923,0.191556923 26.0820923,0.489895385 C27.7606154,1.03931077 28.6356923,2.77838769 28.6726154,2.85149538 C28.8402462,3.19044923 28.7006769,3.60103385 28.3617231,3.76866462 C28.2642462,3.81740308 28.1608615,3.84029538 28.0589538,3.84029538" id="Fill-20"></path>
                </g>
            </g>
        </g>
    </g>
</svg>