<?xml version="1.0" encoding="UTF-8"?>
<svg width="48px" height="48px" viewBox="0 0 48 48" version="1.1" xmlns="http://www.w3.org/2000/svg" xmlns:xlink="http://www.w3.org/1999/xlink">
    <!-- Generator: Sketch 58 (84663) - https://sketch.com -->
    <title>emoji_2</title>
    <desc>Created with Sketch.</desc>
    <defs>
        <polygon id="path-1" points="7.38461538e-05 0.125538462 47.136 0.125538462 47.136 47.2615385 7.38461538e-05 47.2615385"></polygon>
    </defs>
    <g id="Website---Inner-Pages" stroke="none" stroke-width="1" fill="none" fill-rule="evenodd">
        <g id="Interview/Feedback-Form-Option-1" transform="translate(-438.000000, -271.000000)">
            <g id="emoji_2" transform="translate(438.000000, 271.000000)">
                <g id="Group-3" transform="translate(0.000000, 0.612628)">
                    <mask id="mask-2" fill="white">
                        <use xlink:href="#path-1"></use>
                    </mask>
                    <g id="Clip-2"></g>
                    <path d="M47.1360738,23.6935385 C47.1360738,36.7096615 36.5841969,47.2615385 23.5673354,47.2615385 C10.5519508,47.2615385 7.38461538e-05,36.7096615 7.38461538e-05,23.6935385 C7.38461538e-05,10.6774154 10.5519508,0.125538462 23.5673354,0.125538462 C36.5841969,0.125538462 47.1360738,10.6774154 47.1360738,23.6935385" id="Fill-1" fill="#FFD21F" mask="url(#mask-2)"></path>
                </g>
                <path d="M12.8394092,24.4688492 L12.8394092,24.4688492 C11.8978708,24.4688492 11.1276554,23.6986338 11.1276554,22.7570954 L11.1276554,16.82208 C11.1276554,15.8805415 11.8978708,15.1095877 12.8394092,15.1095877 C13.7802092,15.1095877 14.5511631,15.8805415 14.5511631,16.82208 L14.5511631,22.7570954 C14.5511631,23.6986338 13.7802092,24.4688492 12.8394092,24.4688492" id="Fill-4" fill="#403408"></path>
                <path d="M34.2966646,24.4688492 L34.2966646,24.4688492 C33.3551262,24.4688492 32.5849108,23.6986338 32.5849108,22.7570954 L32.5849108,16.82208 C32.5849108,15.8805415 33.3551262,15.1095877 34.2966646,15.1095877 C35.2382031,15.1095877 36.0084185,15.8805415 36.0084185,16.82208 L36.0084185,22.7570954 C36.0084185,23.6986338 35.2382031,24.4688492 34.2966646,24.4688492" id="Fill-6" fill="#403408"></path>
                <path d="M15.1218462,34.8169846 C15.0118154,34.8169846 14.8995692,34.8014769 14.7888,34.7697231 C14.1544615,34.5858462 13.7881846,33.9264 13.9698462,33.2920615 C14.6736,30.8300308 17.592,26.1732923 23.6052923,26.1732923 C29.6259692,26.1732923 32.4934154,30.8041846 33.1683692,33.2536615 C33.3448615,33.8916923 32.9704615,34.5518769 32.3324308,34.7268923 C31.6936615,34.9041231 31.0342154,34.5289846 30.8584615,33.8909538 C30.7979077,33.6782769 29.2781538,28.5703385 23.6052923,28.5703385 C17.9235692,28.5703385 16.3373538,33.7351385 16.2731077,33.9544615 C16.1195077,34.4772923 15.6402462,34.8169846 15.1218462,34.8169846" id="Fill-8" fill="#403408"></path>
            </g>
        </g>
    </g>
</svg>