<?xml version="1.0" encoding="UTF-8"?>
<svg width="10px" height="19px" viewBox="0 0 10 19" version="1.1" xmlns="http://www.w3.org/2000/svg" xmlns:xlink="http://www.w3.org/1999/xlink">
    <!-- Generator: Sketch 57.1 (83088) - https://sketch.com -->
    <title>facebook-clr</title>
    <desc>Created with Sketch.</desc>
    <defs>
        <path d="M16.6428686,3.13392873 L16.6428686,6.08036081 L14.8906344,6.08036081 C13.5178649,6.08036081 13.2611682,6.73884374 13.2611682,7.68750559 L13.2611682,9.7968831 L16.5312614,9.7968831 L16.095993,13.1004585 L13.2611682,13.1004585 L13.2611682,21.5714507 L9.84598554,21.5714507 L9.84598554,13.1004585 L7,13.1004585 L7,9.7968831 L9.84598554,9.7968831 L9.84598554,7.36384449 C9.84598554,4.54018041 11.5758983,3 14.0982227,3 C15.3035813,3 16.341529,3.08928582 16.6428686,3.13392873 Z" id="path-1"></path>
    </defs>
    <g id="Symbols" stroke="none" stroke-width="1" fill="none" fill-rule="evenodd">
        <g id="Job-Listing/Before-Login" transform="translate(-1260.000000, -348.000000)">
            <g id="Group-19" transform="translate(75.000000, 120.000000)">
                <g id="Group-9" transform="translate(330.000000, 53.000000)">
                    <g id="Group-3">
                        <g id="Group-5" transform="translate(694.000000, 172.000000)">
                            <g id="Icons/" transform="translate(154.000000, 0.000000)">
                                <g id="Colors/Secondary-Text">
                                    <mask id="mask-2" fill="white">
                                        <use xlink:href="#path-1"></use>
                                    </mask>
                                    <use id="Mask" fill="#000000" fill-rule="nonzero" xlink:href="#path-1"></use>
                                    <g id="Colors/Facebook" mask="url(#mask-2)" fill="#3B5999">
                                        <rect id="Rectangle" x="0" y="0" width="24" height="24"></rect>
                                    </g>
                                </g>
                            </g>
                        </g>
                    </g>
                </g>
            </g>
        </g>
    </g>
</svg>