<svg height="150" viewBox="0 0 628 150" width="628" xmlns="http://www.w3.org/2000/svg" xmlns:xlink="http://www.w3.org/1999/xlink"><mask id="a" fill="#fff"><path d="m15.6461461 3.42684234c-13.92490283 7.29095446-19.29986315 24.48221906-12.0042547 38.39905416 7.2952007 13.916835 24.4982544 19.2875515 38.4239728 11.9970046 13.9244951-7.2909545 19.2998632-24.4830342 12.0042548-38.3990542-5.0862515-9.70307002-14.9883956-15.2514656-25.2383768-15.2514656-4.4513365 0-8.9687335 1.04692091-13.1855961 3.25446104z" fill="#fff" fill-rule="evenodd"/></mask><mask id="b" fill="#fff"><path d="m15.6461461 3.42684234c-13.92490283 7.29095446-19.29986315 24.48221906-12.0042547 38.39905416 7.2952007 13.916835 24.4982544 19.2875515 38.4239728 11.9970046 13.9244951-7.2909545 19.2998632-24.4830342 12.0042548-38.3990542-5.0862515-9.70307002-14.9883956-15.2514656-25.2383768-15.2514656-4.4513365 0-8.9687335 1.04692091-13.1855961 3.25446104" fill="#fff" fill-rule="evenodd"/></mask><mask id="c" fill="#fff"><path d="m15.6461461 3.42684234c-13.92490283 7.29095446-19.29986315 24.48221906-12.0042547 38.39905416 7.2952007 13.916835 24.4982544 19.2875515 38.4239728 11.9970046 13.9244951-7.2909545 19.2998632-24.4830342 12.0042548-38.3990542-5.0862515-9.70307002-14.9883956-15.2514656-25.2383768-15.2514656-4.4513365 0-8.9687335 1.04692091-13.1855961 3.25446104" fill="#fff" fill-rule="evenodd"/></mask><mask id="d" fill="#fff"><path d="m15.6461461 3.42684234c-13.92490283 7.29095446-19.29986315 24.48221906-12.0042547 38.39905416 7.2952007 13.916835 24.4982544 19.2875515 38.4239728 11.9970046 13.9244951-7.2909545 19.2998632-24.4830342 12.0042548-38.3990542-5.0862515-9.70307002-14.9883956-15.2514656-25.2383768-15.2514656-4.4513365 0-8.9687335 1.04692091-13.1855961 3.25446104z" fill="#fff" fill-rule="evenodd"/></mask><mask id="e" fill="#fff"><path d="m15.6461461 3.42684234c-13.92490283 7.29095446-19.29986315 24.48221906-12.0042547 38.39905416 7.2952007 13.916835 24.4982544 19.2875515 38.4239728 11.9970046 13.9244951-7.2909545 19.2998632-24.4830342 12.0042548-38.3990542-5.0862515-9.70307002-14.9883956-15.2514656-25.2383768-15.2514656-4.4513365 0-8.9687335 1.04692091-13.1855961 3.25446104" fill="#fff" fill-rule="evenodd"/></mask><mask id="f" fill="#fff"><path d="m15.6461461 3.42684234c-13.92490283 7.29095446-19.29986315 24.48221906-12.0042547 38.39905416 7.2952007 13.916835 24.4982544 19.2875515 38.4239728 11.9970046 13.9244951-7.2909545 19.2998632-24.4830342 12.0042548-38.3990542-5.0862515-9.70307002-14.9883956-15.2514656-25.2383768-15.2514656-4.4513365 0-8.9687335 1.04692091-13.1855961 3.25446104z" fill="#fff" fill-rule="evenodd"/></mask><mask id="g" fill="#fff"><path d="m15.6461461 3.42684234c-13.92490283 7.29095446-19.29986315 24.48221906-12.0042547 38.39905416 7.2952007 13.916835 24.4982544 19.2875515 38.4239728 11.9970046 13.9244951-7.2909545 19.2998632-24.4830342 12.0042548-38.3990542-5.0862515-9.70307002-14.9883956-15.2514656-25.2383768-15.2514656-4.4513365 0-8.9687335 1.04692091-13.1855961 3.25446104" fill="#fff" fill-rule="evenodd"/></mask><mask id="h" fill="#fff"><path d="m15.6461461 3.42684234c-13.92490283 7.29095446-19.29986315 24.48221906-12.0042547 38.39905416 7.2952007 13.916835 24.4982544 19.2875515 38.4239728 11.9970046 13.9244951-7.2909545 19.2998632-24.4830342 12.0042548-38.3990542-5.0862515-9.70307002-14.9883956-15.2514656-25.2383768-15.2514656-4.4513365 0-8.9687335 1.04692091-13.1855961 3.25446104" fill="#fff" fill-rule="evenodd"/></mask><mask id="i" fill="#fff"><path d="m15.6461461 3.42684234c-13.92490283 7.29095446-19.29986315 24.48221906-12.0042547 38.39905416 7.2952007 13.916835 24.4982544 19.2875515 38.4239728 11.9970046 13.9244951-7.2909545 19.2998632-24.4830342 12.0042548-38.3990542-5.0862515-9.70307002-14.9883956-15.2514656-25.2383768-15.2514656-4.4513365 0-8.9687335 1.04692091-13.1855961 3.25446104" fill="#fff" fill-rule="evenodd"/></mask><mask id="j" fill="#fff"><path d="m15.6461461 3.42684234c-13.92490283 7.29095446-19.29986315 24.48221906-12.0042547 38.39905416 7.2952007 13.916835 24.4982544 19.2875515 38.4239728 11.9970046 13.9244951-7.2909545 19.2998632-24.4830342 12.0042548-38.3990542-5.0862515-9.70307002-14.9883956-15.2514656-25.2383768-15.2514656-4.4513365 0-8.9687335 1.04692091-13.1855961 3.25446104" fill="#fff" fill-rule="evenodd"/></mask><mask id="k" fill="#fff"><path d="m15.6461461 3.42684234c-13.92490283 7.29095446-19.29986315 24.48221906-12.0042547 38.39905416 7.2952007 13.916835 24.4982544 19.2875515 38.4239728 11.9970046 13.9244951-7.2909545 19.2998632-24.4830342 12.0042548-38.3990542-5.0862515-9.70307002-14.9883956-15.2514656-25.2383768-15.2514656-4.4513365 0-8.9687335 1.04692091-13.1855961 3.25446104" fill="#fff" fill-rule="evenodd"/></mask><mask id="l" fill="#fff"><path d="m15.6461461 3.42684234c-13.92490283 7.29095446-19.29986315 24.48221906-12.0042547 38.39905416 7.2952007 13.916835 24.4982544 19.2875515 38.4239728 11.9970046 13.9244951-7.2909545 19.2998632-24.4830342 12.0042548-38.3990542-5.0862515-9.70307002-14.9883956-15.2514656-25.2383768-15.2514656-4.4513365 0-8.9687335 1.04692091-13.1855961 3.25446104" fill="#fff" fill-rule="evenodd"/></mask><mask id="m" fill="#fff"><path d="m15.6461461 3.42684234c-13.92490283 7.29095446-19.29986315 24.48221906-12.0042547 38.39905416 7.2952007 13.916835 24.4982544 19.2875515 38.4239728 11.9970046 13.9244951-7.2909545 19.2998632-24.4830342 12.0042548-38.3990542-5.0862515-9.70307002-14.9883956-15.2514656-25.2383768-15.2514656-4.4513365 0-8.9687335 1.04692091-13.1855961 3.25446104" fill="#fff" fill-rule="evenodd"/></mask><mask id="n" fill="#fff"><path d="m15.6461461 3.42684234c-13.92490283 7.29095446-19.29986315 24.48221906-12.0042547 38.39905416 7.2952007 13.916835 24.4982544 19.2875515 38.4239728 11.9970046 13.9244951-7.2909545 19.2998632-24.4830342 12.0042548-38.3990542-5.0862515-9.70307002-14.9883956-15.2514656-25.2383768-15.2514656-4.4513365 0-8.9687335 1.04692091-13.1855961 3.25446104" fill="#fff" fill-rule="evenodd"/></mask><g fill="none" fill-rule="evenodd" transform="translate(424 16)"><path d="m0 32.6120469 19.1601845 81.1361541 57.1114918-13.8498649-19.1601845-81.1357462z" fill="#e2e2e2"/><g transform="translate(8.213873 3.517986)"><path d="m16.8386501 61.7260085-1.3234474.3204692c-5.65594504 1.3691656-11.33862637-2.1588639-12.69205083-7.8810007l-2.28798005-9.6714479c-1.35342446-5.721727 2.13444881-11.4705012 7.79079892-12.8396668l1.32344739-.3204692c5.65594497-1.3691656 11.33862637 2.1592737 12.69205077 7.8810007l2.287575 9.6714479c1.3538295 5.7221368-2.1344488 11.4705012-7.7903938 12.8396668" fill="#fff5e8"/><path d="m9.50832332 33.6954476c-7.16330581 1.7338939-5.69321381 8.0010742-4.2887473 12.8929417l1.5061455.5749594 5.64500748-1.3662969 5.6450074-1.3667068 1.0860613-1.2027838c-.936581-5.0053842-2.4301686-11.2660075-9.59347438-9.5321136" fill="#47201c"/><path d="m17.9959677 52.5981697-7.5971632 1.8392143.8421938 3.5604043.0020255-.0004098c.0008102.004098 0 .0086059.0008102.012704.339065 1.4326857 2.3143112 2.1826327 4.4123014 1.6748817s3.5239268-2.0814104 3.1848618-3.5140961c-.0008102-.004098-.0036459-.0073765-.0048612-.0118844l.0020255-.0004098z" fill="#8e4f3a"/><path d="m19.1016762 43.2276431c-.1401631.0458984-.6497734.3733343-.9272639.5548788-1.5531366-6.5663394-4.1194173-7.1826893-7.7421874-6.3052923-4.21826067 1.0208296-5.71670936 2.4481878-4.1234683 9.1825481-.32569687-.0344238-.94144221-.0950752-1.08930211-.0713064-.20214272.0319649-.62222687.7122447.21510577 2.9497916s1.75770989 2.2227938 2.23572272 2.0322335l.00040509-.0004098c1.63456082 3.4661486 4.55084413 5.5614924 7.25566763 4.9066206 2.7048234-.6548718 4.3665256-3.8571046 4.2745689-7.6945384.5132562-.0729457 1.275241-.527012 1.029348-2.8256201-.2548051-2.3785205-.9337454-2.7928355-1.1285964-2.7289056" fill="#8e4f3a"/><path d="m45.2028376 27.2007425-17.4519243 4.2251113c-.4561377.1102382-.9187569-.1770366-1.0277276-.6384794l-.012558-.0536848c-.1093758-.4614428.1745962-.9290327.6307339-1.0396806l17.4519243-4.2247016c.4561377-.1106479.9183518.1766269 1.0273225.6380697l.012963.0536847c.1089708.4614428-.1750013.9290327-.6307338 1.0396807" fill="#fff"/><path d="m46.4177193 32.3365272-17.4519243 4.2251114c-.4561376.1102381-.9187568-.1770367-1.0277276-.6384795l-.0125579-.0536847c-.1093758-.461033.1745962-.9290328.6307338-1.0396807l17.4519244-4.2247016c.4561376-.1106479.9183517.1766269 1.0273224.6380697l.0129631.0536848c.1089707.4614428-.1750013.9290327-.6307339 1.0396806" fill="#fff"/><path d="m47.6326416 37.4723529-17.4519243 4.2251114c-.4561377.1102381-.9187569-.1770367-1.0277276-.6384795l-.012558-.0536847c-.1093758-.461033.1745963-.9290327.6307339-1.0396807l17.4519243-4.2247015c.4561377-.1102381.9183518.1770367 1.0273225.6380697l.0129631.0536847c.1089707.4614428-.1750013.9290327-.6307339 1.0396806" fill="#fff"/><path d="m52.5212545 59.9506831-44.18864019 10.697605c-.45613766.1102381-.91835176-.1766269-1.02772758-.6380697l-.01255797-.0536847c-.10897072-.4614428.17459622-.9294426.63073388-1.0396807l44.18864016-10.697605c.4561377-.1102381.9183518.1766269 1.0277276.6380697l.012558.0536847c.1093758.4614429-.1745962.9290328-.6307339 1.0396807" fill="#fff"/><path d="m53.8777982 65.685196-44.18864019 10.697605c-.45613767.1102381-.91835177-.1766268-1.02772759-.6380697l-.01255796-.0536847c-.10897072-.4614428.17459621-.9294425.63073388-1.0396806l44.18864016-10.697605c.4561377-.1102381.9183518.1766268 1.0277276.6380697l.012558.0540945c.1093758.461033-.1745962.9286229-.6307339 1.0392708" fill="#fff"/><path d="m36.879581 75.8631246-25.8337578 6.2540664c-.4561376.1102381-.9187568-.1766268-1.0277276-.6380697l-.0125579-.0536847c-.10937583-.4614428.1745962-.9290327.6307339-1.0396806l25.8337577-6.2540664c.4561377-.1102382.9183518.1770366 1.0273225.6380696l.012963.0540946c.1089708.461033-.1750013.9286229-.6307338 1.0392708" fill="#fff"/><path d="m190.4935 94.5577876-56.203371 18.2560874-25.299437-79.7103528 56.203372-18.2560874z" fill="#e2e2e2"/><path d="m136.624898 62.7288885-1.29104.4192327c-5.536847 1.7986434-11.467042-1.2843355-13.245412-6.885989l-3.002973-9.4616267c-1.777965-5.6020633 1.269974-11.6012297 6.807226-13.3994633l1.290635-.4196425c5.537252-1.7986434 11.467447 1.2843355 13.245817 6.8863988l3.002973 9.4616267c1.77756 5.6016535-1.269569 11.6008199-6.807226 13.3994633" fill="#fff5e8"/><g fill="#fff"><path d="m162.319586 26.137211-17.081667 5.5487884c-.446415.1446619-.928884-.10614-1.071883-.5577475l-.017014-.0524553c-.143404-.4516074.104515-.9396877.55093-1.0847594l17.081667-5.5483786c.446415-.1450717.928884.1057302 1.072288.5573377l.016609.0528651c.143404.4511976-.104515.9392779-.55093 1.0843496"/><path d="m163.915055 31.164151-17.081667 5.5483786c-.446415.1450717-.928884-.1057303-1.071883-.5573377l-.016609-.0524553c-.143809-.4516075.10411-.9396877.550525-1.0847595l17.081667-5.5483785c.446416-.1450717.928884.1057302 1.072288.5573377l.016609.0524553c.143404.4516074-.104515.9396877-.55093 1.0847594"/><path d="m165.510484 36.191091-17.081667 5.5483785c-.446416.1450718-.928884-.1057302-1.071883-.5573376l-.016609-.0528651c-.143809-.4511977.104109-.9396878.55093-1.0843497l17.081667-5.5487883c.44601-.144662.928479.10614 1.071883.5577474l.016609.0524554c.143404.4516074-.10411.9396877-.55093 1.0847594"/><path d="m172.888085 60.8143516-43.250844 14.0490076c-.446415.1450717-.928884-.1061401-1.072288-.5573377l-.016609-.0528651c-.143404-.4516075.10492-.9396877.55093-1.0847595l43.251249-14.0485977c.44601-.1450717.928884.1057302 1.071883.5577475l.016609.0524553c.143809.4511976-.104109.9392779-.55093 1.0843496"/><path d="m174.669858 66.4271928-43.251249 14.0490076c-.446416.1450717-.928885-.1061401-1.072288-.5573377l-.016609-.0528651c-.143404-.4516074.104919-.9396877.55093-1.0847594l43.251249-14.0485978c.44601-.1450717.928884.1057302 1.071883.5573377l.017014.0528651c.143404.4511976-.104515.9392779-.55093 1.0843496"/><path d="m180.917971 86.1135071-43.251248 14.0485979c-.446011.145481-.928885-.10573-1.071883-.5573378l-.016609-.0524553c-.143809-.4516075.104514-.9396878.55093-1.0847595l43.250843-14.0490075c.446416-.144662.928885.10614 1.072289.5577474l.016608.0528652c.143404.4511976-.104109.9392779-.55093 1.0843496"/><path d="m158.485802 77.8757693-25.285664 8.2129445c-.446415.1454815-.928884-.1057303-1.071883-.5569279l-.016609-.0528651c-.143809-.4516075.10411-.9396878.550525-1.0847595l25.285664-8.2133542c.446415-.1446619.928884.1057302 1.072288.5577475l.016609.0524553c.143404.4516074-.104515.9396877-.55093 1.0847594"/><path d="m161.046938 85.9450354-25.285664 8.2133542c-.446415.1450717-.928884-.10614-1.071883-.5573377l-.016609-.0524553c-.143809-.4520172.10411-.9396877.55093-1.0851692l25.285664-8.2133543c.44601-.1446619.928884.1061401 1.071883.5577475l.016609.0528652c.143404.4511976-.10411.9392779-.55093 1.0843496"/></g><path d="m136.012515 53.7815697-7.43553 2.4154032 1.105911 3.4845899.00162-.0004098c.00162.004098.00081.0086059.002025.012704.4452 1.4023599 2.470273 1.9986293 4.524108 1.3318731 2.05343-.667166 3.357028-2.3449163 2.911828-3.7472763-.001216-.004098-.004456-.0073765-.005267-.0114746l.001216-.0008196z" fill="#f0a79e"/><path d="m124.936471 36.4356229c-1.135483-1.8912598.288023-6.4282344 5.573306-4.5480394 5.285282 1.8801951 10.161823 16.8488098 10.161823 16.8488098s-2.620158.7659295-6.034304-1.5630043c-3.413336-2.3289339-9.700825-10.7377661-9.700825-10.7377661" fill="#f5b1a8"/><path d="m126.136729 35.5874041c-7.011395 2.277708-5.077063 8.4121107-3.310441 13.1814459l1.544629.4581644 5.525099-1.7949552 5.525505-1.7949551.992079-1.2818767c-1.308054-4.9176854-3.265476-11.0451214-10.276871-8.7678233" fill="#eb7150"/><path d="m136.41364 44.3552274c-.136517.0565534-.619796.4216915-.882703.6241362-2.040062-6.427005-4.644421-6.8445984-8.190223-5.6926306-4.128735 1.3408889-5.515782 2.8784852-3.423463 9.4702326-.327318-.0098353-.945899-.0229492-1.090923.0118844-.199307.0475377-.566729.7581432.435073 2.9243836 1.002206 2.1666503 1.918533 2.0810006 2.380747 1.854787l.000405-.0004098c1.888961 3.3300927 4.952699 5.1955347 7.600404 4.3353495 2.6473-.8597753 4.064324-4.179213 3.68556-7.9977957.505964-.1118773 1.231896-.6229068.814242-2.8956971-.431832-2.351883-1.139129-2.7129231-1.329119-2.6342401" fill="#f5b1a8"/><path d="m127.340511 39.286651s2.206961 7.2011307-3.423058 9.4702327c-1.787687-3.4677878-1.778775-5.009892-1.778775-5.009892l.660306-3.7841589 4.552465-1.7175017z" fill="#5546c5"/><path d="m127.226193 39.3238615s2.421257 7.1269556 8.304865 5.655748c-.542423-3.8722674-1.508576-5.0922632-1.508576-5.0922632l-2.71495-2.6883347-4.689387 1.2847453z" fill="#5546c5"/><path d="m123.20728 108.234322-66.7006138-13.3793832 18.5416315-94.59782581 66.7006143 13.37979251z" fill="#fff"/><path d="m88.0923361 46.0362562-4.6711576-.9372289c-5.7045565-1.1441815-9.4119915-6.749933-8.2809646-12.5212466l2.8235165-14.4043104c1.1310269-5.7709038 6.6723299-9.52186834 12.3772915-8.37727706l4.6711576.93681906c5.7045565 1.1441815 9.4119915 6.7503428 8.2809645 12.5216565l-2.823516 14.4043103c-1.1310273 5.7709038-6.6723303 9.5214586-12.3772919 8.3772771" fill="#ae9ad9"/><path d="m92.1751328 12.8216762c-8.320664-1.6691443-9.7607789 5.6041124-10.6155307 11.4069811l1.3031926 1.334332 6.5572828 1.3154809 6.5572828 1.3154808 1.7078831-.7306861c1.3983901-5.6938601 2.8105536-12.9724443-5.5101106-14.6415887" fill="#5546c5"/><path d="m92.0746691 36.7321593-8.825008-1.7703667-.8105964 4.1357734.0024306.0004098c-.0012153.0049177-.0044561.0090158-.0052662.0139335-.326102 1.6646365 1.3846168 3.410005 3.821672 3.8989049s4.677234-.4643115 5.003336-2.128948c.0008102-.0045079-.0004051-.0094256.0004051-.0143433l.0024306.0004099z" fill="#f0a79e"/><path d="m97.6850814 27.4632649c-.1685198-.0200805-.8575875.0745849-1.2343264.1294991 1.4952079-7.6269203-.8976919-9.5202292-5.1058252-10.3644318-4.8996315-.9827175-7.1458867-.2180174-8.6795787 7.6047906-.3240765-.1946583-.9398218-.5573376-1.1055059-.6044655-.2268536-.0647495-.9896486.4430015-1.1768028 3.1919877-.1871542 2.7489861.7830499 3.180513 1.3736793 3.2141172h.0008102c.0631949 4.4222286 2.1194602 8.0330391 5.2613818 8.6633224 3.1415166.6302834 6.4029414-1.9125698 8.129864-5.9737583.5715899.1737582 1.5855442.0688476 2.4200412-2.4563839.864069-2.6129301.3508128-3.3768106.1162625-3.4046775" fill="#f5b1a8"/><path d="m94.7544576 18.5127496c-1.1042906.6048753-8.9935278 3.0411786-11.1405346 2.6354696 3.0633331-1.2380273 3.0240388-1.555218 3.0240388-1.555218l-3.0240388 1.1097577s.7911518-4.2009328 3.3768771-4.676309c2.5853202-.4757861 8.3441595.5364375 8.3441595.5364375l.2738447 1.9834664z" fill="#5546c5"/><path d="m132.617449 23.3848235-20.2722-4.0661062c-.529865-.1065499-.877032-.6319226-.772113-1.1675405l.012153-.0627005c.105325-.5356179.624658-.8872324 1.154523-.7810923l20.271795 4.0661062c.52946.1065498.877437.6319225.772112 1.1675404l-.012153.0627005c-.10492.5360277-.624252.8872324-1.154117.7810924" fill="#e2e2e2"/><path d="m131.448059 29.3506316-20.271795-4.066516c-.529865-.1061401-.877437-.6315128-.772112-1.1675405l.012153-.0622907c.10492-.5360277.624252-.8876422 1.154117-.7815022l20.2722 4.0665161c.52946.1065498.877032.6319225.772113 1.1675404l-.012153.0627005c-.105325.5356179-.624658.8872324-1.154523.7810924" fill="#e2e2e2"/><path d="m130.27867 35.3162348-20.271795-4.0661063c-.529865-.1065498-.877437-.6319225-.772112-1.1675404l.012152-.0627005c.10492-.5356179.624253-.8872324 1.154118-.7810924l20.2722 4.0661062c.52946.1065499.877032.6319226.772112 1.1679503l-.012153.0622907c-.105325.5360277-.624657.8872324-1.154522.7810924" fill="#e2e2e2"/><path d="m124.712534 61.2185444-51.3288552-10.2964038c-.5298651-.1061401-.8774371-.6315128-.7725173-1.1675405l.0125579-.0622907c.1049198-.5360277.6242524-.8876422 1.1541174-.7810924l51.3288552 10.2964038c.52946.1061401.877437.6315128.772113 1.1671307l-.012153.0627005c-.10492.5356179-.624253.8876422-1.154118.7810924" fill="#e2e2e2"/><path d="m123.406668 67.8795083-51.3288554-10.295994c-.5298651-.1061401-.877032-.6319226-.7721123-1.1675405l.0121529-.0622907c.1049198-.5360277.6246574-.8876422 1.1541174-.7815022l51.3292604 10.2964038c.52946.1061401.877032.6315128.772113 1.1671307l-.012153.0627005c-.105325.5356179-.624253.8876422-1.154523.7810924" fill="#e2e2e2"/><path d="m100.78066 70.26393-30.0082681-6.0192469c-.529865-.1061401-.8774371-.6315128-.7721122-1.1675405l.0121529-.0622907c.1049197-.5360277.6242523-.8876422 1.1541174-.7815022l30.008268 6.0196568c.52946.10614.877437.6315127.772112 1.1671306l-.012153.0627005c-.105324.5356179-.624252.8876422-1.154117.7810924" fill="#e2e2e2"/><path d="m120.461826 82.3840574-51.328856-10.2964038c-.5298651-.10614-.8774371-.6315128-.7721123-1.1675405l.0121529-.0622906c.1049198-.5360278.6242524-.8876423 1.1541174-.7810924l51.328856 10.295994c.529865.1065498.877437.6319226.772112 1.1675405l-.011748.0627005c-.105325.5356179-.624657.8872324-1.154522.7810923" fill="#e2e2e2"/><path d="m97.8354123 84.7680284-30.008268-6.019247c-.52946-.10614-.8770321-.6315127-.7721123-1.1675404l.0121529-.0622907c.1053248-.5360277.6246574-.8872324 1.1541174-.7815022l30.0086732 6.0196567c.5294599.1065499.877032.6315128.7721122 1.1671307l-.0121528.0627005c-.1053249.5360277-.6246575.8876422-1.1545226.7810924" fill="#e2e2e2"/></g><path d="m68.2918048 141.44036-96.4887137-19.12006 26.82219786-135.1848349 96.48871364 19.12006056z" fill="#fcfbfa" mask="url(#a)" transform="translate(70.404624 4.690647)"/><path d="m22.0393354 53.4564584-15.84595878-3.1399477c-5.7427787-1.1382056-9.47478969-6.7126825-8.33626536-12.4513903l5.88631759-29.66792118c1.13893211-5.73911531 6.71696735-9.46874559 12.45974605-8.33054002l15.8459588 3.1399477c5.7427787 1.13779805 9.4747897 6.71268248 8.3358576 12.4513903l-5.8859098 29.6679211c-1.1389322 5.7387078-6.7169674 9.4683381-12.4597461 8.3305401" fill="#fff5e8" mask="url(#b)" transform="translate(70.404624 4.690647)"/><path d="m23.4012829 5.09062748c-12.0368772-2.3852192-14.11982214 8.00859862-15.35662167 16.30083172l1.88517119 1.9071973 9.48579978 1.8798934 9.4857998 1.8794859 2.4703368-1.0440683c2.0230011-8.1365601 4.0663913-18.53812083-7.9704859-20.92334002" fill="#47201c" mask="url(#c)" transform="translate(70.404624 4.690647)"/><path d="m23.255542 39.2599011-12.7659895-2.5298891-1.17277791 5.910274.00326224.0008151c-.00122334.0069278-.00570893.0126331-.00693227.019561-.47221031 2.3786988 2.00301984 4.8731336 5.52828594 5.5716242 3.5252661.6984907 6.7654933-.6634438 7.2372958-3.0417352.0016311-.0069278-.0004078-.0138557.0012233-.021191l.0032623.000815z" fill="#b27362" mask="url(#d)" transform="translate(70.404624 4.690647)"/><path d="m31.371728 26.0140897c-.2442608-.0285264-1.2404695.106363-1.7852649.185422 2.1624623-10.8999586-1.2983744-13.6050816-7.3865435-14.8113432-7.0876402-1.40431662-10.3372464-.3113459-12.5555746 10.8677645-.46935584-.2783367-1.35994937-.7967031-1.59972455-.8643516-.32785586-.0920997-1.43131103.6332873-1.70207756 4.5617878-.27076654 3.9285004 1.13240761 4.5454869 1.9875242 4.5931668h.00081556c.09175071 6.3194249 3.06569695 11.4798607 7.61163865 12.3804817 4.5443106.9006209 9.2615203-2.733242 11.7604018-8.5367456.8269797.2477726 2.2933599.0982125 3.5007992-3.5103841 1.2494407-3.7345205.5068717-4.8258612.1680057-4.8657983" fill="#b27362" mask="url(#e)" transform="translate(70.404624 4.690647)"/><path d="m27.1320298 13.2235199c-1.5968701.8643516-13.0098425 4.3462093-16.115502 3.7663072 4.4313553-1.7694553 4.3746737-2.2226184 4.3746737-2.2226184l-4.3746737 1.5856634s1.144641-6.0031888 4.8843999-6.68252596c3.7405744-.67974469 12.0711308.76654656 12.0711308.76654656l.396363 2.8347147z" fill="#47201c" mask="url(#f)" transform="translate(70.404624 4.690647)"/><path d="m82.2654783 20.257451-30.0473372-5.9538787c-.567631-.1124758-.939935-.6691492-.8273874-1.2368256l.1606656-.8101514c.1125476-.5672689.6691685-.9397429 1.2372073-.8272672l30.0469294 5.9542863c.5680388.1124758.9403428.6687416.8282031 1.2364181l-.1610735.8101513c-.1125475.5676765-.6691685.939743-1.2372073.8272672" fill="#e2e2e2" mask="url(#g)" transform="translate(70.404624 4.690647)"/><path d="m80.5738399 28.7827453-30.0469294-5.9538788c-.567631-.1124758-.9403428-.6687416-.8277952-1.2368256l.1610734-.8101513c.1125476-.567269.6691685-.939743 1.2372074-.8272673l30.0465215 5.9538788c.5680389.1128833.9407506.6691492.8282031 1.2368256l-.1610735.8101513c-.1125475.5676765-.6691685.939743-1.2372073.8272673" fill="#e2e2e2" mask="url(#h)" transform="translate(70.404624 4.690647)"/><path d="m78.8825685 37.3082432-30.0473371-5.9542863c-.567631-.1124757-.939935-.6687416-.8277953-1.236418l.1610735-.8101514c.1125475-.5676764.6691685-.9397429 1.2372073-.8272672l30.0465216 5.9538788c.5684466.1124757.9407506.6687416.828203 1.2364181l-.1606656.8105588c-.1125476.567269-.6691685.939743-1.2372074.8272672" fill="#e2e2e2" mask="url(#i)" transform="translate(70.404624 4.690647)"/><g fill="#c9c3cc"><path d="m70.8300779 74.3236013-74.9737845-14.856578c-.56763105-.1124758-.94034281-.6691492-.82779527-1.2364181l.16066568-.8105589c.11295531-.5672689.66957627-.9397429 1.23761509-.8272672l74.9733768 14.856578c.5680388.1128833.9407505.6691492.828203 1.2364181l-.1610735.8109664c-.1125475.5672689-.6691685.9393354-1.2372073.8268597" mask="url(#j)" transform="translate(70.404624 4.690647)"/><path d="m68.9413183 83.8430425-74.97378457-14.8569856c-.56763104-.1120682-.94034281-.6691491-.82779527-1.236418l.16066568-.8101514c.11295532-.5676764.66957627-.9397429 1.2376151-.8276747l74.97337676 14.8569855c.5680388.1124757.9407506.6691492.828203 1.2364181l-.1610734.8105588c-.1121398.567269-.6691685.9393355-1.2372073.8272673" mask="url(#k)" transform="translate(70.404624 4.690647)"/><path d="m36.2101302 87.2504461-44.13127459-8.7453962c-.56763104-.1120683-.9403428-.6691492-.82779526-1.2364181l.16107346-.8101514c.11213975-.5676764.66916849-.9397429 1.23720731-.8272672l44.13086678 8.7449887c.5680389.1124757.9407506.6687416.8282031 1.2364181l-.1610735.8105588c-.1121397.567269-.6691685.9393355-1.2372073.8272673" mask="url(#l)" transform="translate(70.404624 4.690647)"/><path d="m64.6811086 104.57008-74.9737845-14.8565783c-.567631-.1124757-.9403428-.6691491-.8277953-1.2364181l.1606657-.8105588c.1129553-.567269.6695763-.939743 1.23761512-.8272672l74.97337678 14.8565784c.5680388.112883.9407506.669149.828203 1.236418l-.1610734.810559c-.1125476.567268-.6691685.939742-1.2372074.827267" mask="url(#m)" transform="translate(70.404624 4.690647)"/><path d="m31.9499614 107.977483-44.1312746-8.7449884c-.5680388-.1124757-.9403428-.6691491-.8277953-1.2364181l.1610735-.8101513c.1121397-.5676764.6691685-.9401505 1.2372073-.8276747l44.1308668 8.7449885c.5680388.112883.9407506.669149.828203 1.236418l-.1610734.810559c-.1125476.567269-.6691685.939743-1.2372073.827267" mask="url(#n)" transform="translate(70.404624 4.690647)"/></g><g transform="translate(68.057803)"><g fill="#7a493c"><path d="m58.6072775 108.801111c.4206433 1.750105 2.6733946 5.6139 5.4788988 7.95391 2.8050989 2.339193 5.9396611 4.135461 6.8393028 3.043484.9000469-1.091569 2.2616667-3.413196.0774016-6.203805-2.1842651-2.791018-5.5376591-5.950113-5.5376591-5.950113z"/><path d="m58.6072775 108.801111c.0226937.093551.0526817.195682.0855065.300263.4943977.88976.8996416 1.58302.8996416 1.58302s6.7440705 4.52274 7.9180624 3.707331c1.1731813-.815817 1.4207854-1.736624 1.3109643-2.418038-.0405244-.249606-.3841713-.935105-.875327-1.850193-1.3636461-1.42533-2.4809037-2.478907-2.4809037-2.478907z"/><path d="m56.1303047 98.1528398s-.5478899 4.3568802-.1365673 5.6188022c.4113227 1.262331 2.6134185 5.029306 2.6134185 5.029306s6.744881 4.522739 7.9180624 3.70733c1.1735866-.815817 1.4207854-1.736624 1.3113695-2.418037-.1098211-.681822-2.4833352-4.617108-3.9709858-7.640574-1.4876507-3.0242833-3.7699849-9.8425038-3.7699849-9.8425038z"/><path d="m63.8655614 102.449504c-1.4876507-3.0238752-3.7699848-9.8425043-3.7699848-9.8425043l-3.8960157 5.4492657-.1762812 1.0703258v.0012256c.8408813 1.3187072 3.6707001.6381103 4.2704612-1.7872807.7537538 1.4510677.9762328 8.7603309 3.1702237 10.1591079 2.193991 1.398368 3.8137512 1.868576 3.8137512 1.868576l.1106316-.315378c-.7792842-1.531547-2.4018811-4.325424-3.522786-6.603338"/><path d="m98.273694 110.778681s-13.1453046-16.3539249-15.6403918-20.2132256c-2.494682-3.8597093-3.509413-6.2818321-9.393961-7.488604-5.884548-1.2063634-12.7838269-4.8352582-15.8490925-.3807419-3.0652655 4.4536993-5.8565861 8.0233584-3.6496273 12.0350376 2.2069587 4.0112707 2.5818094 5.9088519 4.2080536 4.8033935 1.6266493-1.1054586 2.037972-2.4323358 1.7859102-5.5040075-.2512512-3.0724887 3.290176 4.9185965 2.8107724 7.7602709-.4798089 2.841674 7.4617576 15.534431 16.4439906 19.172722 8.9826383 3.637473 38.6793228 41.219391 38.6793228 41.219391h16.551786v-26.758146s-35.1484323-23.650115-35.946763-24.64609"/><path d="m74.2681342 95.6969323s-4.0670287-2.8494361-5.5299595-5.3120025c-1.4609046-2.4584812-6.1301259-9.7979749-6.1471461-9.8249373-2.1392831-.1307268-3.9762541.3566391-5.2004962 2.1361579-.9263877 1.3452606-1.8244084 2.6092255-2.5700574 3.8298872-.1543979.8648396 4.6655741 8.802 4.9800434 9.1365789.0064839-.4845062-.0158045-1.0225288-.0656495-1.6320426-.1041477-1.2713183.441716-.6458721 1.082812.7226742z"/></g><path d="m72.4350535 109.390362c-2.5623578 1.353431-5.7577066.347243-7.10028-2.236245l-23.147942-44.5406696c-1.3421681-2.5830802 1.6031452-1.8555038 4.1663135-3.2089349l.8688431-.2741178c2.5623578-1.353431 2.9412609-4.0218922 4.2838342-1.4384035l23.147942 44.5406688c1.3421681 2.583489.3440522 5.804271-2.2187108 7.157702" fill="#ffc873"/><path d="m64.7749695 107.022614c-1.4503683-3.76575-1.2384257-6.618046-4.5330593-11.7809378-3.2942284-5.1628922-7.7000411-11.4643333-7.907526-15.4224963-.2078902-3.9577543 3.2780186-6.6613483 7.6826156-1.7153809 4.4045969 4.9459674 5.6474802 9.2203258 8.6268341 13.0702306 2.9789485 3.8503133 6.2824975 4.3246065 8.749623 6.7193584 2.4675306 2.394752 3.5552055 11.311546.4076754 13.95999-3.1479353 2.648444-11.9474033-2.029534-13.0261628-4.830764" fill="#7a493c"/><path d="m55.3459549 83.467602c-1.6813573-3.1182431-2.4213328-5.4022857-.9693436-6.452594 2.019736-1.4608722 4.7060985.3496943 6.8125567 4.1677344-1.0556606 1.8514185-4.8993998 3.6039749-5.1202578 3.4279022-.2204527-.1760727-.7229553-1.1430426-.7229553-1.1430426" fill="#b98781"/><path d="m59.8166877 90.3354579s3.132536-2.3959774 4.6396384-2.866594c-1.7988781 1.274178-4.6396384 2.866594-4.6396384 2.866594" fill="#ee8b7c"/><path d="m60.3509613 91.3635426s3.1325361-2.3959774 4.6396385-2.866594c-1.7988781 1.274178-4.6396385 2.866594-4.6396385 2.866594" fill="#ee8b7c"/><path d="m7.67159294 46.4222366c-7.25022024-13.950594-1.90869919-31.1844737 11.92957256-38.49332833 13.8390823-7.30885464 30.9347053-1.92454386 38.1849256 12.02605013 7.2502202 13.950594 1.9086992 31.1848822-11.9295726 38.4937368-13.8390823 7.3084462-30.9347053 1.9241354-38.18492556-12.0264586" fill="none"/><path d="m11.0202051 47.4770386c-7.25022025-13.950594-1.90910445-31.1848822 11.9295726-38.49373685 6.3603044-3.35886215 13.4066869-4.03006265 19.8707338-2.42743358-7.313033-2.81307769-15.7404871-2.57695238-23.2192649 1.3730401-13.83867705 7.30885463-19.17979285 24.54273433-11.92957261 38.49332833 3.91789891 7.5392606 10.71303011 12.569792 18.31378641 14.4543007-6.2192795-2.3923007-11.6333392-6.9881654-14.9652553-13.3994987" fill="#e8e8e8"/><path d="m45.8563564 58.4486544c-13.8386771 7.3084461-30.9347053 1.9241353-38.18492555-12.0264587-7.249815-13.9505939-1.9086992-31.1844736 11.92997785-38.49332828 13.838677-7.30885464 30.9347053-1.92413534 38.1845203 12.02605008 7.2502202 13.950594 1.9086992 31.1848822-11.9295726 38.4937369m-28.2665789-54.39052633c-15.95891358 8.42902003-22.11862224 28.30358143-13.75762822 44.39196743s28.07651942 22.2975012 44.03583822 13.8688897c15.9589137-8.4286115 22.1186223-28.3035814 13.7576283-44.3915589-8.3613993-16.08838595-28.0765194-22.29750124-44.0358383-13.86929823" fill="#ffc873"/><path d="m54.4638198 63.3834283-2.0432402-3.9312005c-1.3814768 1.1079098-2.88169 2.1051103-4.5034765 2.9617795-1.5642418.82603-3.1710342 1.4817067-4.7997098 1.9890902l2.0428349 3.9312005c1.6157078-.5482356 3.2103429-1.227198 4.7685061-2.0495514 1.6153025-.853401 3.1252416-1.8293584 4.5350855-2.9013183" fill="#eab063"/></g></g></svg>