<?xml version="1.0" encoding="UTF-8"?>
<svg width="146px" height="48px" viewBox="0 0 146 48" version="1.1" xmlns="http://www.w3.org/2000/svg" xmlns:xlink="http://www.w3.org/1999/xlink">
    <!-- Generator: Sketch 57.1 (83088) - https://sketch.com -->
    <title>Combined Shape</title>
    <desc>Created with Sketch.</desc>
    <g id="Website---Home-Page" stroke="none" stroke-width="1" fill="none" fill-rule="evenodd">
        <g id="Footer/1" transform="translate(-70.000000, -742.000000)" fill="#4E5867" fill-rule="nonzero">
            <g id="Group-3" transform="translate(70.000000, 701.000000)">
                <path d="M59.7380744,63.5891446 C61.7001058,63.5891446 63.3300298,64.3259485 64.6278953,65.7995784 C65.9257608,67.2732084 66.5746839,69.4714416 66.5746839,72.3943439 C66.5746839,75.1102074 65.8770154,77.3601995 64.4816577,79.1443878 C63.0862999,80.9285762 61.389351,81.8206569 59.39076,81.8206569 C58.3670914,81.8206569 57.3982768,81.5222818 56.484287,80.9255226 C55.9968257,80.6088748 55.4910923,80.1582675 54.9670715,79.573687 L54.9670715,82.7340594 C54.979258,84.4147282 54.9914444,85.358568 55.0036309,85.5656069 C55.0889366,86.5520864 55.3418033,87.2279975 55.7622386,87.5933603 C56.1826739,87.9587231 56.8864355,88.1718482 57.8735445,88.232742 L57.8735445,89 L47.63691,89 L47.63691,88.1048656 C48.441221,88.0196143 48.9896067,87.833891 49.2820834,87.5476901 C49.5745601,87.2614893 49.7207963,86.7225872 49.7207963,85.9309679 L49.7207963,67.133146 C49.7207963,66.3537053 49.5836999,65.8269819 49.3095029,65.5529598 C49.035306,65.2789377 48.5082465,65.0871251 47.7283085,64.9775162 L47.7283085,64.0641138 L54.875673,64.0641138 L54.875673,66.5303004 C55.3875073,65.6777872 55.8871475,65.0505905 56.3746087,64.6486914 C57.2520389,63.9423233 58.3731829,63.5891446 59.7380744,63.5891446 Z M77.0489546,63.5891446 C79.5228203,63.5891446 81.5488006,64.4781807 83.1269563,66.2562796 C84.705112,68.0343786 85.494178,70.1899867 85.494178,72.7231688 C85.494178,75.2198146 84.7142518,77.3662888 83.1543759,79.1626559 C81.5944999,80.959023 79.5593799,81.857193 77.0489546,81.857193 C74.6116484,81.857193 72.5948079,80.9833801 70.9983724,79.2357281 C69.4019368,77.488076 68.6037311,75.3172447 68.6037311,72.7231688 C68.6037311,70.1169142 69.4049834,67.9430382 71.0075122,66.2014755 C72.610041,64.4599128 74.623835,63.5891446 77.0489546,63.5891446 Z M7.82371353,63.6256807 C9.05455313,63.6256807 10.2122562,63.948413 11.2968574,64.5938872 C12.3814586,65.2393615 13.2162234,66.1344869 13.8011769,67.2792904 C14.239892,68.1439823 14.5445507,69.2644114 14.7151621,70.6406113 C14.8004679,71.2860856 14.8431201,71.7793179 14.8431201,72.1203232 L5.30111431,72.1203232 C5.38642003,73.6183107 5.63014698,74.9153291 6.03230249,76.0114175 C6.76349433,78.069628 8.04915402,79.0987177 9.88932015,79.0987177 C10.7667503,79.0987177 11.595422,78.8246997 12.37536,78.2766555 C12.8506347,77.947829 13.4416725,77.3937038 14.1484913,76.6142631 L15.0076374,77.1440365 C13.849917,79.0439231 12.5094187,80.3652987 10.9861024,81.1082031 C9.99899344,81.5831747 8.86566309,81.8206569 7.58607738,81.8206569 C5.74591125,81.8206569 4.02154304,81.0960316 2.412921,79.6467592 C0.804298956,78.1974868 0,75.8835571 0,72.7049008 C0,69.8307134 0.764693325,67.5989892 2.29410292,66.009661 C3.82351251,64.4203328 5.66669762,63.6256807 7.82371353,63.6256807 Z M95.4200576,64.0641138 L95.4200576,64.9775162 C94.993529,65.0140525 94.6462181,65.1023472 94.3781144,65.242403 C94.1100108,65.3824587 93.9759609,65.6656106 93.9759609,66.0918672 C93.9759609,66.2380123 93.9942405,66.378066 94.0308001,66.5120323 C94.0673596,66.6459987 94.1404777,66.8530345 94.2501565,67.133146 L97.0286716,74.4586334 L97.2297483,74.4586334 L99.660949,68.3023011 C99.660949,68.2170498 99.5634583,67.8486478 99.3684738,67.1970841 C99.1734893,66.5455205 99.0089736,66.0918685 98.8749217,65.8361145 C98.6799373,65.4951092 98.4940955,65.2819841 98.3173908,65.1967328 C98.1406861,65.1114815 97.7781422,65.03841 97.2297483,64.9775162 L97.2297483,64.0641138 L105.985727,64.0641138 L105.985727,64.9775162 C105.449519,65.0018738 105.019951,65.0688559 104.697008,65.1784648 C104.374065,65.2880736 104.212595,65.5011987 104.212595,65.8178465 C104.212595,66.0005279 104.233922,66.2106083 104.276574,66.4480942 C104.319227,66.68558 104.401485,67.0052676 104.52335,67.4071667 L106.42444,74.1115405 L106.643796,74.1115405 L109.330913,66.9687335 C109.367472,66.8469459 109.397938,66.7312495 109.422311,66.6216406 C109.446684,66.5120318 109.458871,66.4085139 109.458871,66.3110838 C109.458871,65.7873971 109.303495,65.446397 108.992738,65.2880731 C108.681982,65.1297492 108.22804,65.0262313 107.6309,64.9775162 L107.6309,64.0641138 L112.712658,64.0641138 L112.712658,64.9775162 C112.261756,65.0627676 111.905306,65.2180444 111.643295,65.4433515 C111.381285,65.6686585 111.116232,66.1344891 110.848128,66.8408572 L105.035182,81.8206569 L104.176036,81.8206569 L100.392137,70.4761988 L100.22762,70.4761988 L95.6759735,81.8206569 L94.7619882,81.8206569 L89.2232378,67.8273318 C88.7601496,66.6703496 88.4189319,65.9305011 88.1995743,65.6077639 C87.9802168,65.2850268 87.6146263,65.0749463 87.102792,64.9775162 L87.102792,64.0641138 L95.4200576,64.0641138 Z M122.199825,63.6256807 C123.430664,63.6256807 124.588367,63.948413 125.672969,64.5938872 C126.75757,65.2393615 127.592335,66.1344869 128.177288,67.2792904 C128.616003,68.1439823 128.920662,69.2644114 129.091273,70.6406113 C129.176579,71.2860856 129.219231,71.7793179 129.219231,72.1203232 L119.677225,72.1203232 C119.762531,73.6183107 120.006258,74.9153291 120.408414,76.0114175 C121.139606,78.069628 122.425265,79.0987177 124.265431,79.0987177 C125.142862,79.0987177 125.971533,78.8246997 126.751471,78.2766555 C127.226746,77.947829 127.817784,77.3937038 128.524602,76.6142631 L129.383749,77.1440365 C128.226028,79.0439231 126.88553,80.3652987 125.362214,81.1082031 C124.375105,81.5831747 123.241774,81.8206569 121.962189,81.8206569 C120.122022,81.8206569 118.397654,81.0960316 116.789032,79.6467592 C115.18041,78.1974868 114.376111,75.8835571 114.376111,72.7049008 C114.376111,69.8307134 115.140805,67.5989892 116.670214,66.009661 C118.199624,64.4203328 120.042809,63.6256807 122.199825,63.6256807 Z M39.3379241,63.6256807 C40.6540694,63.6256807 41.8148191,64.0458416 42.8202078,64.886176 C43.8255966,65.7265104 44.3282835,67.0539754 44.3282835,68.8686106 L44.3282835,78.2766555 C44.3282835,79.1413475 44.4684265,79.6924281 44.7487167,79.9299139 C45.0290069,80.1673997 45.522554,80.3226766 46.2293727,80.3957492 L46.2293727,81.2908835 L37.3454363,81.2908835 L37.3454363,80.3957492 C38.027882,80.2983191 38.5031496,80.1308637 38.7712533,79.8933778 C39.039357,79.655892 39.1734068,79.11699 39.1734068,78.2766555 L39.1734068,69.2157035 C39.1734068,68.2414027 39.0302172,67.4863309 38.7438337,66.9504655 C38.4574503,66.4146 37.9121112,66.1466714 37.1078002,66.1466714 C36.4619141,66.1466714 35.7825252,66.4420018 35.0696131,67.0326717 C34.3567011,67.6233416 34.0002504,68.0343685 34.0002504,68.265765 L34.0002504,78.2766555 C34.0002504,79.0926325 34.1221139,79.6163113 34.3658445,79.8477077 C34.6095751,80.0791041 35.0665632,80.2617828 35.7368223,80.3957492 L35.7368223,81.2908835 L26.9808439,81.2908835 L26.9808439,80.3957492 C27.6389165,80.3104978 28.1080909,80.1491317 28.3883811,79.9116459 C28.6686713,79.6741601 28.8088143,79.1291687 28.8088143,78.2766555 L28.8088143,69.2157035 C28.8088143,68.2657602 28.6747645,67.5167777 28.4066608,66.9687335 C28.1385572,66.4206893 27.5840783,66.1466714 26.7432077,66.1466714 C25.9754563,66.1466714 25.2625549,66.4602697 24.6044823,67.0874758 C23.9464096,67.714682 23.6173782,68.1074411 23.6173782,68.265765 L23.6173782,78.2766555 C23.6173782,79.0926325 23.7331485,79.6163113 23.9646926,79.8477077 C24.1962367,80.0791041 24.6532248,80.2617828 25.3356705,80.3957492 L25.3356705,81.2908835 L16.3786152,81.2908835 L16.3786152,80.3957492 C17.061061,80.3104978 17.5302354,80.1643549 17.7861525,79.957316 C18.2004945,79.6284895 18.4076625,79.0195606 18.4076625,78.1305112 L18.4076625,67.133146 C18.4076625,66.3537053 18.2675195,65.8239372 17.9872292,65.5438258 C17.706939,65.2637143 17.1707397,65.0749463 16.3786152,64.9775162 L16.3786152,64.0641138 L23.4711406,64.0641138 L23.4711406,66.749517 C24.0926537,65.93354 24.6958779,65.300254 25.2808314,64.8496399 C26.3654326,64.033663 27.571881,63.6256807 28.9002128,63.6256807 C30.3991561,63.6256807 31.5629523,63.9788594 32.3916364,64.6852275 C32.8547246,65.0871265 33.2934331,65.7447697 33.7077751,66.6581767 L33.963691,66.6581767 C34.6705098,65.7934848 35.3468521,65.1419309 35.9927382,64.7034955 C37.0164068,63.9849487 38.1314576,63.6256807 39.3379241,63.6256807 Z M143.002128,63.6256807 C143.76988,63.6256807 144.461455,63.8722968 145.076875,64.3655366 C145.692295,64.8587764 146,65.5803571 146,66.5303004 C146,67.261026 145.783692,67.8638655 145.35107,68.3388372 C144.918449,68.8138088 144.35483,69.0512911 143.660198,69.0512911 C142.868073,69.0512911 142.182591,68.6798445 141.603731,67.9369401 C141.024871,67.1940357 140.619675,66.8225891 140.388131,66.8225891 C139.888483,66.8225891 139.385796,67.1300982 138.880055,67.7451256 C138.374314,68.360153 138.121447,69.2400552 138.121447,70.3848586 L138.121447,77.4545934 C138.121447,78.6968269 138.301196,79.4732112 138.660699,79.7837695 C139.020201,80.0943279 139.736149,80.2983191 140.808564,80.3957492 L140.808564,81.2908835 L130.827845,81.2908835 L130.827845,80.3957492 C131.546851,80.3104978 132.046491,80.1399978 132.326781,79.8842438 C132.607071,79.6284899 132.759401,79.1352575 132.783774,78.4045319 L132.820333,77.308449 L132.820333,67.133146 C132.820333,66.3537053 132.686283,65.8239372 132.41818,65.5438258 C132.150076,65.2637143 131.61997,65.0749463 130.827845,64.9775162 L130.827845,64.0641138 L137.93865,64.0641138 L137.93865,67.0052696 C138.730775,65.970075 139.516794,65.1480211 140.296732,64.5390831 C141.07667,63.9301451 141.97846,63.6256807 143.002128,63.6256807 Z M77.0672343,64.7948358 C75.7998351,64.7948358 74.9528839,65.6047111 74.5263553,67.2244862 C74.2460651,68.3083958 74.1059221,70.1412717 74.1059221,72.7231688 C74.1059221,75.3416022 74.2399719,77.174478 74.5080756,78.2218514 C74.9346042,79.8416265 75.7815554,80.6515018 77.0489546,80.6515018 C78.2554211,80.6515018 79.0475337,80.0303944 79.4253161,78.7881609 C79.8030986,77.5459274 79.991987,75.5242836 79.991987,72.7231688 C79.991987,69.9342328 79.7939588,67.9156336 79.3978966,66.6673107 C79.0018343,65.4189878 78.2249547,64.7948358 77.0672343,64.7948358 Z M58.0746213,65.7630423 C57.2703102,65.7630423 56.5513157,66.1162211 55.9176161,66.8225891 C55.2839165,67.5289572 54.9670715,68.0404575 54.9670715,68.3571052 L54.9670715,77.4545934 C54.9670715,77.8199562 55.2686836,78.291876 55.8719169,78.8703671 C56.4751501,79.4488582 57.154539,79.7380994 57.9101039,79.7380994 C59.2628088,79.7380994 60.1767849,78.842974 60.6520596,77.0526963 C60.9079767,76.0662167 61.0359334,74.6474125 61.0359334,72.796241 C61.0359334,70.6527793 60.8409518,68.9447338 60.4509828,67.6720534 C60.0610139,66.399373 59.2689013,65.7630423 58.0746213,65.7630423 Z M7.82371353,64.7948358 C6.84879109,64.7948358 6.18158854,65.3002467 5.82208589,66.3110838 C5.46258324,67.3219209 5.25846191,68.7955287 5.20971579,70.7319515 L10.2366345,70.7319515 C10.2122615,68.527596 10.0416526,66.987006 9.7248028,66.1101353 C9.40795301,65.2332645 8.77426292,64.7948358 7.82371353,64.7948358 Z M122.199825,64.7948358 C121.224902,64.7948358 120.5577,65.3002467 120.198197,66.3110838 C119.838694,67.3219209 119.634573,68.7955287 119.585827,70.7319515 L124.612746,70.7319515 C124.588373,68.527596 124.417764,66.987006 124.100914,66.1101353 C123.784064,65.2332645 123.150374,64.7948358 122.199825,64.7948358 Z M24.2191422,50.7211607 C25.7529957,52.1439789 27.1833227,53.7028058 28.6092547,55.2553067 C29.9590067,56.7245155 29.5024155,57.7366722 27.7805538,58.1873983 C25.8145257,58.7019113 23.8260342,59.1157358 22.6789403,59.3808998 C19.1893136,59.4995119 17.3844353,58.3044289 16.6910026,55.936931 C16.0219866,53.6506165 16.7051643,51.748078 18.4201893,50.3700688 C20.3847525,48.7917368 22.4171939,49.0495205 24.2191422,50.7211607 Z M43.3567914,50.4134859 C45.0957061,51.8404216 45.6449917,53.8562262 44.9307246,56.0577387 C44.137149,58.5047456 42.3781623,59.583545 38.9478202,59.3602721 C37.8893929,59.115836 35.8175779,58.6893954 33.7712199,58.148673 C32.1610593,57.7227616 31.7938898,56.751366 32.9526767,55.3244303 C34.3488999,53.604912 35.8420558,51.99703 37.5280981,50.6034266 C39.4354212,49.0267605 41.4186261,48.8230637 43.3567914,50.4134859 Z M30.9567967,41.0009873 C33.8616071,41.0590596 36.1591489,43.8670875 35.5009805,46.7902322 C34.8962317,49.4744068 33.5879583,51.878498 32.0629832,54.1453742 C31.260683,55.3386832 30.456871,55.2009542 29.7175655,54.0847323 C28.3074927,51.9555852 27.0612061,49.7226274 26.2866236,47.2753674 C25.2867721,44.1173638 27.7067755,40.9357202 30.9567967,41.0009873 Z" id="Combined-Shape"></path>
            </g>
        </g>
    </g>
</svg>