<svg xmlns="http://www.w3.org/2000/svg" viewBox="0 0 192 116"><defs><style>.cls-1,.cls-30{fill:#d5a097;}.cls-1,.cls-10,.cls-13,.cls-14,.cls-15,.cls-16,.cls-17,.cls-18,.cls-2,.cls-3,.cls-4,.cls-6,.cls-7,.cls-8,.cls-9{fill-rule:evenodd;}.cls-2{fill:#d8e4ff;}.cls-3{fill:#edf3ff;}.cls-4{fill:#f38061;}.cls-11,.cls-12,.cls-5{fill:none;}.cls-5{stroke:#2c1817;stroke-opacity:0.07;}.cls-6{fill:#c1c6db;}.cls-7{fill:#d6d9e6;}.cls-8{fill:#5e5d5b;}.cls-9{fill:#383837;}.cls-10{fill:#ffc873;}.cls-11{stroke:#edf3ff;stroke-width:0.7px;}.cls-12{stroke:#d9a350;stroke-linecap:round;stroke-linejoin:round;stroke-width:0.72px;}.cls-13{fill:#f5a345;}.cls-14,.cls-21{fill:#b27563;}.cls-15{fill:#e59840;}.cls-16{fill:#cc9033;}.cls-17{fill:#fff;}.cls-18{fill:#ffa63e;}.cls-19{fill:#dadbea;}.cls-20{fill:#c3c4df;}.cls-22{fill:#461f1b;}.cls-23{fill:#f1912c;}.cls-24{fill:#dd8f52;}.cls-25{fill:#eaebf2;}.cls-26{fill:#9f6157;}.cls-27{fill:#49211d;}.cls-28{fill:#272322;}.cls-29{fill:#282322;}.cls-31{fill:#141e2c;}.cls-32{fill:#a77860;}.cls-33{fill:#fefdfd;}.cls-34{fill:#44230f;}.cls-35{fill:#17202e;}.cls-36{fill:#18212e;}.cls-37{fill:#462511;}.cls-38{fill:#ba8976;}</style></defs><title>footer-c-plus</title><g id="Layer_2" data-name="Layer 2"><g id="Layer_1-2" data-name="Layer 1"><g id="Website---Home-Page"><g id="Footer_1" data-name="Footer/1"><g id="Group-2"><g id="Group-159"><g id="Group-137"><path id="Fill-1" class="cls-1" d="M102.06,69.59c1,3.74,4.27,7.27,5.63,7.41A6.22,6.22,0,0,0,112,75.49c-.51-1.91-1.14-3.88-1.65-5.79a6.69,6.69,0,0,0-.8-2.06A3.93,3.93,0,0,0,106,66a5.3,5.3,0,0,0-3.51,1.8,1.9,1.9,0,0,0-.47,1.78"/><path id="Fill-3" class="cls-1" d="M105.38,58.82c-.2-.44-.56-.94-1-.79s-.45.8-.38,1.3a44.51,44.51,0,0,0,1.3,5.71,7.11,7.11,0,0,0,.69,1.87A2.07,2.07,0,0,0,107.45,68a.39.39,0,0,0,.24,0,.41.41,0,0,0,.12-.19c.87-2.33-1.49-6.94-2.43-8.94"/><path id="Fill-5" class="cls-1" d="M104.12,65.06c-.66.21-.79,1.11-.91,1-.62-.3-.89-.72-1.28-.51s-.27,1.19-.7,1.26c-.18-.32-1.41-.21-1.21,1.13s1.13,3.4,2.27,3a1.61,1.61,0,0,0,.8-.93,1.46,1.46,0,0,0,1.08.6c.45,0,.92-.27.92-.65.58.41.58.41,1.79.13.46-.11-.38-5.75-2.76-5"/><path id="Fill-7" class="cls-1" d="M110,70c-.38-1.42-.8-5.63-1.66-6s-3.55,1.22-3.95,1.74a1.54,1.54,0,0,0-.12,1.83c.32.4,2.27,0,2.68-.28-.48.5-.77,5,1.31,4.64.68-.1,1.93-1.29,1.74-2"/><path id="Fill-9" class="cls-2" d="M104,78.43,111.62,72,124,94.92s-1,9.46-7.19,10.08c-3.68.36-12.81-26.57-12.81-26.57"/><path id="Fill-11" class="cls-2" d="M137,52s-14.2,6.65-15.5,10.43-4.5,37-4.5,37l8.78,2.54Z"/><path id="Fill-13" class="cls-3" d="M149,52.5s17.81,1.73,20.61,3.59,10.45,44.77,7.85,49c-2.8,4.55-18.39,4.91-18.39,4.91h-34s-.44-51.38,1-52.32C130.26,55,136.16,52,136.16,52Z"/><polygon id="Fill-15" class="cls-4" points="141.62 56 137 58.65 139.71 61.9 137 110 150 110 142.68 61.9 144.59 58.11 141.62 56"/><polyline id="Stroke-17" class="cls-5" points="133 53.76 136.16 60 141.5 56.88 145.82 60 152 53"/><path id="Fill-43" class="cls-6" d="M140,103H100.51L94.08,81.87A1.36,1.36,0,0,1,95.43,80h35.66a2.76,2.76,0,0,1,2.48,1.87Z"/><path id="Fill-45" class="cls-7" d="M139,103H100.56L94.08,81.87A1.36,1.36,0,0,1,95.44,80H130a2.8,2.8,0,0,1,2.5,1.87Z"/><path id="Fill-47" class="cls-6" d="M116,106H155a1,1,0,0,0,0-2H116a1,1,0,0,0,0,2"/><path id="Fill-49" class="cls-6" d="M101,106H140a1,1,0,0,0,0-2H101a1,1,0,0,0,0,2"/><path id="Fill-51" class="cls-6" d="M113.08,91.5a3.4,3.4,0,0,0,3.06,2.5,1.85,1.85,0,0,0,1.78-2.5,3.4,3.4,0,0,0-3.06-2.5,1.85,1.85,0,0,0-1.78,2.5"/><path id="Fill-53" class="cls-8" d="M152.44,105h2.12a.5.5,0,0,0,0-1h-2.12a.5.5,0,0,0,0,1"/><path id="Fill-55" class="cls-9" d="M150,104.5a.5.5,0,1,0,.5-.5.5.5,0,0,0-.5.5"/><path id="Fill-57" class="cls-9" d="M149,104.5a.5.5,0,1,0,.5-.5.5.5,0,0,0-.5.5"/><path id="Fill-59" class="cls-1" d="M160,109.78c-2.65.22-6.3.18-7.36.22-2.38.09-12.57-3.21-11.56-4a3,3,0,0,1,2.25-.07c-.12.06-.13-.72.24-1,.91-.55,4.2,1.47,9.09,1a4.2,4.2,0,0,1-2.22-1.89c-.32-.65.38-1.23.67-1.1,1.16.52,2.26,1.08,3.43,1.57a14.35,14.35,0,0,0,5,1.46c.26,0,.5,3.73.45,3.73"/><path id="Stroke-61" class="cls-5" d="M167,59a14.65,14.65,0,0,0-3.89,7.91,25.17,25.17,0,0,0,.16,5.75q1.42,13.66,2.87,27.34"/><path id="Fill-65" class="cls-10" d="M43.52,56.5s-11.84,5.59-14.42,8,0,45.46,0,45.46H73s0-40.2-1.33-43C69.58,62.5,56.56,56,56.56,56Z"/><path id="Stroke-67" class="cls-11" d="M40,58s3.46,13.53,4,52"/><path id="Stroke-69" class="cls-11" d="M59,57s3.58,1.93,2.92,53"/><path id="Stroke-71" class="cls-11" d="M66,64s2.71,23.73,3,46"/><path id="Fill-73" class="cls-3" d="M43,56.5s3.4,20.41,3.14,53.5H58.76s1.49-34.93-3-54Z"/><path id="Stroke-107" class="cls-12" d="M43,61.59s4.18,3,7.33,2.32S56,60,56,60"/><polygon id="Fill-109" class="cls-13" points="91 82 69.13 82 53 110 73.82 110 91 82"/><path id="Fill-111" class="cls-14" d="M39.34,98c1.36-.25,15.86-6.09,17.21-6.34a.5.5,0,0,0,.06.77c.64.41,3.89-1.74,3.82-2.48a4.66,4.66,0,0,0-.69-1.85c1.14.1,2.36.18,3.51.18,1.4,0,1.71-.19,1.75-.86,0-.46-1.84-.7-4.25-1.08-1-.16-2.61-.6-3.52-.12-6.72,3.57-18.43,6.26-20.85,7a3.26,3.26,0,0,0,3,4.83"/><path id="Fill-113" class="cls-10" d="M29.43,64S24,67.54,19,101.88c-.85,5.91,21-2.42,21-2.42l-.87-6.71L29.5,94.87Z"/><path id="Fill-115" class="cls-3" d="M34.35,92.06,39.47,91,42,100.49,36,102s-3-2.53-1.64-9.94"/><line id="Stroke-117" class="cls-11" x1="26" y1="95" x2="39" y2="93"/><path id="Stroke-119" class="cls-11" d="M30,66c2.7,2.25,5.6,4.86,6,8.38.23,2.14-3.29,14.56-5.32,20.62"/><polygon id="Fill-121" class="cls-15" points="93 82 71.13 82 55 110 75.82 110 93 82"/><path id="Fill-123" class="cls-14" d="M79.8,104s3.29-1.7,4.35-3.54A7.46,7.46,0,0,0,85,96c0-1-2.33-6.44-3.26-5.91-.69.39.64,3.6.64,3.6S80.66,90.1,80,90.73s1.35,4.75,1.35,4.75-1.7-2.87-2.41-2.21,1.49,3.59,1.49,3.59-1.65-2-2.31-1.26S82,100.28,82,100.28Z"/><polygon id="Fill-125" class="cls-16" points="0 116 192 116 192 110 0 110 0 116"/><path id="Fill-127" class="cls-17" d="M86,21H76a9,9,0,0,1-9-9V9a9,9,0,0,1,9-9H86a9,9,0,0,1,9,9v3a9,9,0,0,1-9,9"/><path id="Fill-128" class="cls-17" d="M74.48,23.85a6,6,0,0,0,2-2.56c1.23-3-.28-6.68-3.49-9.29a10.5,10.5,0,0,1,3.54.77c4,1.64,6.33,5.31,5.16,8.19-1,2.37-4,3.47-7.22,2.89"/><path id="Fill-129" class="cls-10" d="M74,11a2,2,0,1,1-2-2,2,2,0,0,1,2,2"/><path id="Fill-130" class="cls-10" d="M82,11a2,2,0,1,1-2-2,2,2,0,0,1,2,2"/><path id="Fill-131" class="cls-10" d="M91,11a2,2,0,1,1-2-2,2,2,0,0,1,2,2"/><path id="Fill-132" class="cls-18" d="M103.06,45h8.88A8.11,8.11,0,0,0,120,36.84V34.16A8.11,8.11,0,0,0,111.94,26h-8.88A8.11,8.11,0,0,0,95,34.16v2.68A8.11,8.11,0,0,0,103.06,45"/><path id="Fill-133" class="cls-18" d="M112.69,47.86a5.41,5.41,0,0,1-1.79-2.35c-1.1-2.78.25-6.12,3.1-8.51a9,9,0,0,0-3.15.71c-3.57,1.5-5.62,4.86-4.58,7.51.85,2.16,3.52,3.17,6.42,2.64"/><path id="Fill-134" class="cls-17" d="M113,35.5a1.5,1.5,0,1,0,1.5-1.5,1.5,1.5,0,0,0-1.5,1.5"/><path id="Fill-135" class="cls-17" d="M106,35.5a1.5,1.5,0,1,0,1.5-1.5,1.5,1.5,0,0,0-1.5,1.5"/><path id="Fill-136" class="cls-17" d="M98,35.5A1.5,1.5,0,1,0,99.5,34,1.5,1.5,0,0,0,98,35.5"/><path class="cls-19" d="M58.9,79a9.41,9.41,0,0,0,3.9-4.28,63,63,0,0,0,3.57-8.47c.61-1.7-.19-3.07-1.2-4.36a12.4,12.4,0,0,0-2-1.94c-.33-.29-.46-.59-.19-1a4.21,4.21,0,0,0-1-4.89,10.57,10.57,0,0,0-2.26-1.41,15.49,15.49,0,0,0-4.86-.86c-2.45-.27-4.95-.27-7.32-1.15a4.19,4.19,0,0,0-.46-.16c-1.76-.46-2.39-1.79-2.65-3.4s-.27-3.15-.42-4.72a11.29,11.29,0,0,1,.18-2.32A17.71,17.71,0,0,1,51,29.88a8.12,8.12,0,0,1,6.86-1.64,3.93,3.93,0,0,1,2.94,2.41,12.91,12.91,0,0,1,.81,2.56,1.25,1.25,0,0,0,.28.79c0,.09.16-.08.15,0a4.18,4.18,0,0,1-.15.61A1.74,1.74,0,0,0,62,35.73a3.23,3.23,0,0,1,.11,1.07,1.27,1.27,0,0,0,0,.34c.13.32,0,.68.18,1s.34.11.47-.07c.23-.78,0-1.6.18-2.39-.35-.22-.28-.57-.27-.89a12.31,12.31,0,0,0-1-5.44,8.9,8.9,0,0,0-5.47-4.83,15.36,15.36,0,0,0-14.31,2,7.94,7.94,0,0,0-2.92,3.36A12.1,12.1,0,0,1,38.28,32a24.76,24.76,0,0,0,.11,13.23,23.34,23.34,0,0,0,4,7.93c2.74,3.76,5.78,7.31,8.28,11.24a18.89,18.89,0,0,1,3.2,8.4c0,.4,0,.8,0,1.2a5,5,0,0,1,0,1,1.48,1.48,0,0,0,0,.21,26.62,26.62,0,0,0,1.81,2.28,10.32,10.32,0,0,0,1.45,1.64A1.22,1.22,0,0,0,58.9,79Z"/><path class="cls-20" d="M54.09,74a16.14,16.14,0,0,0-2.42-8.3,98.86,98.86,0,0,0-7.6-10.6,42.53,42.53,0,0,1-4-5.95,23.59,23.59,0,0,1-2-6.23,23.61,23.61,0,0,1-.41-6.33,17.43,17.43,0,0,1,1.51-6.41c0-.08.4-.39-.11-.32a21.4,21.4,0,0,0-1.85,4.55,39.58,39.58,0,0,0-.59,6A29.08,29.08,0,0,0,38.69,50.7c.27.73.55,1.46.82,2.18a3.27,3.27,0,0,0,.5,1.31,32.5,32.5,0,0,0,4.55,7.65,12.31,12.31,0,0,1,.93,1.34,25.76,25.76,0,0,1,3,6.59,1.67,1.67,0,0,0,.49,1q.72,2.86,1.42,5.73c.32,1.31.92,1.68,2.25,1.37a2,2,0,0,1,.75-.13.5.5,0,0,0,.17-.15c.23-.79.7-1.54.4-2.41V75C54.13,74.71,53.9,74.34,54.09,74Z"/><path class="cls-19" d="M45.57,63.08a13.11,13.11,0,0,0-1.71-2.47,32,32,0,0,1-3.69-6.48c-.18-.43-.44-.83-.66-1.25a21.26,21.26,0,0,0-2.86,3.49A6,6,0,0,0,36,61.05c.08.44.13.88.2,1.32.43,1.95.84,3.91,1.32,5.85a3.44,3.44,0,0,0,.88,2.11.87.87,0,0,0,.77.29c-.07-1.82,1.14-2.68,2.56-3.37a3.52,3.52,0,0,1,1.2-.39,2.55,2.55,0,0,0,2-1.52A2.19,2.19,0,0,0,45.57,63.08Z"/><path class="cls-21" d="M59.76,52.84a21,21,0,0,0,2.47-6.59A25.53,25.53,0,0,0,62.48,39c0-.35.26-.55.22-.86-.08,0-.18.12-.24,0-.18-.33,0-.7-.13-1l0-.26c-.12-.25,0-.54-.15-.79a8.93,8.93,0,0,0-1.59-2.82c-.41-.51-.6-.51-1,0a25.38,25.38,0,0,1-1.69,2.18,24.37,24.37,0,0,1-4.84,4l-1.14.73c-.11.08-.27.17-.24.32s.23.19.4.23.42,0,.6.15c0,.25-.23.22-.37.21a8.63,8.63,0,0,0-4.83,1.36c-.77.43-.81.41-1.06-.39a2.25,2.25,0,0,0-1.79-1.8,2.38,2.38,0,0,1-.5-.26,7.35,7.35,0,0,0-.24,2.51,46.23,46.23,0,0,0,.44,5,3.72,3.72,0,0,0,2.39,3.12,25.49,25.49,0,0,0,6.62,1.31C55.5,52.12,57.7,52,59.76,52.84Z"/><path class="cls-22" d="M44.14,40c0,.17,0,.41.26.42,1.16,0,1.6.83,1.9,1.79s.32.92,1.15.47a8.58,8.58,0,0,1,5.09-1.39c.25,0,.52,0,.5-.34s-.22-.4-.5-.39h-.83c1-.7,2-1.31,2.94-2a18.58,18.58,0,0,0,5.1-5.24c.28-.46.43-.34.68,0a11.74,11.74,0,0,1,1.62,2.81c.35-.06.16-.28.13-.45a2.73,2.73,0,0,1-.12-1.1c0-.18.11-.37-.05-.53a30.84,30.84,0,0,0-.93-3.25,4.51,4.51,0,0,0-4-2.88,7.79,7.79,0,0,0-5.38,1.33A17.36,17.36,0,0,0,44.14,40Z"/><path class="cls-23" d="M62.18,35.66c-.07.14,0,.34-.13.45.15.22.05.53.26.72A2.45,2.45,0,0,0,62.18,35.66Z"/><path class="cls-24" d="M62.33,37.09c0,.34-.13.71.13,1A2,2,0,0,0,62.33,37.09Z"/><path class="cls-25" d="M62,34l.05.53C62.19,34.37,62.3,34.18,62,34Z"/><path class="cls-26" d="M57.36,48.78a6.66,6.66,0,0,1-5.39,0,2.38,2.38,0,0,0,2.46,1.51C55.72,50.31,57,50,57.36,48.78Z"/><path class="cls-26" d="M55,47.19h.07c1.23-.18,1.23-.19.75-1.37-.27-.68-.5-1.37-.76-2.05-.09-.23-.17-.6-.5-.49s-.12.43,0,.66c.25.68.47,1.38.77,2,.19.43.11.62-.35.65-.23,0-.45,0-.39.35S54.81,47.19,55,47.19Z"/><path class="cls-27" d="M60.76,41.4a1,1,0,0,0-.81-.72,10.52,10.52,0,0,0-2.44-.3c-.32,0-.68.06-.69.43s.37.41.67.41A18.24,18.24,0,0,1,60.76,41.4Z"/><path class="cls-28" d="M51,43.2c.07.42.08.9.68.88s.61-.5.61-.92-.06-.92-.62-.92S51,42.76,51,43.2Z"/><path class="cls-29" d="M57.48,43.13c.11.43.07,1,.7,1s.59-.45.6-.86,0-1-.61-1S57.61,42.75,57.48,43.13Z"/><path class="cls-30" d="M149,37.17a26.81,26.81,0,0,0,1.33,7.94c.32,1.12,0,6.44.4,7.56.18.38-7.69,3.44-10.5,5.06a.6.6,0,0,1-.25.1.2.2,0,0,1-.15-.06,12.54,12.54,0,0,1-1.3-2.42,20.1,20.1,0,0,1-1.64-4.63,2.11,2.11,0,0,1-.05-.75l.12-.87a10.13,10.13,0,0,1,1.65-.9,26.26,26.26,0,0,0,3.45-2.58c1.09-.92,1.93-2.07,3-3a.86.86,0,0,0,.18-.2c-.09.11-.2.21-.29.31a10.22,10.22,0,0,1-4.28,2.1,14.6,14.6,0,0,1-2.45.42,1,1,0,0,1-.83-.13c-1.35-.11-2.69-.21-4-.33a1.73,1.73,0,0,1-1.42-1,32.75,32.75,0,0,1-3.64-11,21.69,21.69,0,0,1,.87-10.24,5.6,5.6,0,0,1,.76-1.6c.13-.18.32-.15.5-.11a8.06,8.06,0,0,0,3.75-.09,19.57,19.57,0,0,1,3-.41c.93-.06,1.14.12,1.32,1,.12.57.17,1.15.32,1.71a1.44,1.44,0,0,0,1.52,1.26,5.72,5.72,0,0,0,.7.07c.83,0,1.22.44,1.51,1.13a17.88,17.88,0,0,1,1.33,4.4c0,.19,0,.5.27.5s.43-.28.42-.57c0-.59.14-1.15.11-1.73A3.18,3.18,0,0,1,146,25.35a4.17,4.17,0,0,1,2.35-.9,1.86,1.86,0,0,1,2.14,2.32,8.56,8.56,0,0,1-1.36,3.45,1.92,1.92,0,0,0-.31,1.47,29,29,0,0,1,.4,4.74A1.27,1.27,0,0,1,149,37.17Z"/><path class="cls-31" d="M149,37.17a29,29,0,0,0-.52-6,.69.69,0,0,1,.2-.59,9.14,9.14,0,0,0,1.57-3.7c.27-1.49-.48-2.36-2-2.26a3.59,3.59,0,0,0-3.5,3.61,17,17,0,0,0-.08,1.89c0,.5-.4.5-.71.57s-.25-.28-.27-.45A16.88,16.88,0,0,0,142.11,25a.7.7,0,0,0-.67-.45c-.4,0-.79-.06-1.19-.09a1.55,1.55,0,0,1-1.62-1.37c-.14-.62-.21-1.25-.33-1.87s-.24-.81-1-.77a24.32,24.32,0,0,0-3.8.54,6.91,6.91,0,0,1-3.32-.09,1.22,1.22,0,0,0-.27,0c-.18-.26,0-.44.16-.62a6.42,6.42,0,0,1,1.56-1.56A20.79,20.79,0,0,1,139.48,15a21.27,21.27,0,0,1,7-.52c4,.52,5.87,3.11,6.48,6.46a20.23,20.23,0,0,1-.13,7.48,21.39,21.39,0,0,1-1.39,5.26A10.12,10.12,0,0,1,149,37.17Z"/><path class="cls-32" d="M137.41,45.09a12.94,12.94,0,0,0,7.61-2.5c0-.05.08,0,.12,0a24.17,24.17,0,0,1-6.8,5.94,5.87,5.87,0,0,1-1.34.57c0-1,0-2-.11-3.05C136.86,45.58,137.3,45.44,137.41,45.09Z"/><path class="cls-33" d="M138.74,37.34a1.66,1.66,0,0,1-1.42,1.43,9.12,9.12,0,0,1-4,0,1.37,1.37,0,0,1-1.15-1.41,7,7,0,0,0,6.53,0Z"/><path class="cls-34" d="M135.7,35.21H136c.15,0,.3,0,.32.21a.26.26,0,0,1-.21.32,1.64,1.64,0,0,1-1.51-.13c-.4-.3-.33-.75-.27-1.19.14-1.11.34-2.21.57-3.3,0-.24.07-.51.4-.44s.2.34.16.55c-.18,1.08-.39,2.16-.53,3.24C134.85,35.23,134.93,35.27,135.7,35.21Z"/><path class="cls-34" d="M139.8,31.23c0,.59-.32,1.06-.71,1.06s-.69-.44-.69-1.06.32-1.13.72-1.1S139.81,30.66,139.8,31.23Z"/><path class="cls-34" d="M130.6,31.19c0-.59.33-1.08.71-1.07s.67.48.69,1-.29,1.12-.69,1.13S130.59,31.83,130.6,31.19Z"/><path class="cls-35" d="M139.74,27.77a7.75,7.75,0,0,1,1.86.36c.22.07.37.19.32.41s-.27.16-.44.11a10.07,10.07,0,0,0-2.79-.18c-.24,0-.58.11-.59-.26s.32-.27.52-.31A10.67,10.67,0,0,1,139.74,27.77Z"/><path class="cls-36" d="M131.76,27.8a3.31,3.31,0,0,1,1,.12c.17.07.49,0,.44.32s-.3.23-.51.23c-.44,0-.87,0-1.3,0a6,6,0,0,0-1.58.19c-.15,0-.34.15-.42-.07s0-.36.28-.44A6.67,6.67,0,0,1,131.76,27.8Z"/><path class="cls-37" d="M135.64,42.05a3,3,0,0,1-1.15-.31c-.17-.09-.33-.2-.24-.41s.28-.22.45-.13a2,2,0,0,0,1.78,0c.16-.07.37-.13.48.07s-.11.35-.25.44A2.25,2.25,0,0,1,135.64,42.05Z"/><path class="cls-38" d="M145.14,42.59H145l.45-.49A.56.56,0,0,1,145.14,42.59Z"/></g></g></g></g></g></g></g></svg>