<?xml version="1.0" encoding="UTF-8"?>
<svg width="170px" height="50px" viewBox="0 0 170 50" version="1.1" xmlns="http://www.w3.org/2000/svg" xmlns:xlink="http://www.w3.org/1999/xlink">
    <!-- Generator: Sketch 57.1 (83088) - https://sketch.com -->
    <title>Google Play Badge US</title>
    <desc>Created with Sketch.</desc>
    <defs>
        <linearGradient x1="61.0339412%" y1="4.9481245%" x2="26.5026568%" y2="71.9074222%" id="linearGradient-1">
            <stop stop-color="#00A0FF" offset="0%"></stop>
            <stop stop-color="#00A1FF" offset="1%"></stop>
            <stop stop-color="#00BEFF" offset="26%"></stop>
            <stop stop-color="#00D2FF" offset="51%"></stop>
            <stop stop-color="#00DFFF" offset="76%"></stop>
            <stop stop-color="#00E3FF" offset="100%"></stop>
        </linearGradient>
        <linearGradient x1="107.684729%" y1="50%" x2="-130.640394%" y2="50%" id="linearGradient-2">
            <stop stop-color="#FFE000" offset="0%"></stop>
            <stop stop-color="#FFBD00" offset="41%"></stop>
            <stop stop-color="#FFA500" offset="78%"></stop>
            <stop stop-color="#FF9C00" offset="100%"></stop>
        </linearGradient>
        <linearGradient x1="86.219293%" y1="30.9112842%" x2="-50.1497903%" y2="135.987548%" id="linearGradient-3">
            <stop stop-color="#FF3A44" offset="0%"></stop>
            <stop stop-color="#C31162" offset="100%"></stop>
        </linearGradient>
        <linearGradient x1="-18.7537448%" y1="-11.831554%" x2="42.1210306%" y2="35.0948125%" id="linearGradient-4">
            <stop stop-color="#32A071" offset="0%"></stop>
            <stop stop-color="#2DA771" offset="7%"></stop>
            <stop stop-color="#15CF74" offset="48%"></stop>
            <stop stop-color="#06E775" offset="80%"></stop>
            <stop stop-color="#00F076" offset="100%"></stop>
        </linearGradient>
    </defs>
    <g id="Symbols" stroke="none" stroke-width="1" fill="none" fill-rule="evenodd">
        <g id="Footer/1" transform="translate(-260.000000, -633.000000)" fill-rule="nonzero">
            <g id="Group-4" transform="translate(75.000000, 600.000000)">
                <g id="Google-Play-Badge-US" transform="translate(185.000000, 33.000000)">
                    <rect id="Background-Black" fill="#525F7F" x="0" y="0" width="170" height="50" rx="6"></rect>
                    <path d="M85.175,28.1875 C82.2442812,28.2012918 79.8783424,30.5858514 79.8874994,33.5165883 C79.8967098,36.4473251 82.2775465,38.8170103 85.2082941,38.8124413 C88.1390418,38.8078591 90.5124675,36.4307512 90.5125,33.5 C90.5330912,32.0804672 89.9765395,30.7133872 88.9703189,29.7118796 C87.9640984,28.710372 86.5944205,28.1602446 85.175,28.1875 L85.175,28.1875 Z M85.175,36.725 C83.8540342,36.8173816 82.6108412,36.0928919 82.0400266,34.8980463 C81.4692121,33.7032008 81.6867948,32.2808535 82.5887073,31.3112975 C83.4906199,30.3417415 84.8935473,30.0220405 86.1264848,30.5051038 C87.3594223,30.9881672 88.1717736,32.1758117 88.175,33.5 C88.2156785,34.3283399 87.9200409,35.137991 87.3551754,35.7452213 C86.79031,36.3524517 86.0041151,36.7057705 85.175,36.725 L85.175,36.725 Z M73.5375,28.1875 C70.6051244,28.1943997 68.2329094,30.5759336 68.2374999,33.5083137 C68.2421036,36.4406939 70.621774,38.8147782 73.5541569,38.8124853 C76.4865397,38.8101892 78.8624919,36.4323838 78.8625,33.5 C78.8830912,32.0804672 78.3265395,30.7133872 77.3203189,29.7118796 C76.3140984,28.710372 74.9444205,28.1602446 73.525,28.1875 L73.5375,28.1875 Z M73.5375,36.725 C72.2158447,36.8225913 70.9690269,36.1017141 70.3941897,34.9076208 C69.8193524,33.7135274 70.0335284,32.2893269 70.9341417,31.3171167 C71.834755,30.3449066 73.2384469,30.022622 74.4729423,30.5046158 C75.7074377,30.9866097 76.5214018,32.1747514 76.525,33.5 C76.5656785,34.3283399 76.2700409,35.137991 75.7051754,35.7452213 C75.14031,36.3524517 74.3541151,36.7057705 73.525,36.725 L73.5375,36.725 Z M59.675,29.825 L59.675,32.075 L65.075,32.075 C64.9903293,33.1347547 64.5498058,34.1347431 63.825,34.9125 C62.7325286,36.0252808 61.220679,36.6245725 59.6625,36.5625 C56.3487915,36.5625 53.6625,33.8762085 53.6625,30.5625 C53.6625,27.2487915 56.3487915,24.5625 59.6625,24.5625 C61.1847447,24.5376735 62.6547024,25.1175651 63.75,26.175 L65.3375,24.5875 C63.8436495,23.0748227 61.800898,22.2315676 59.675,22.25 C56.648701,22.1322238 53.8004919,23.6795897 52.2523176,26.2825713 C50.7041432,28.8855529 50.7041432,32.1269471 52.2523176,34.7299287 C53.8004919,37.3329103 56.648701,38.8802762 59.675,38.7625 C61.8397063,38.8603179 63.9409259,38.0170953 65.4375,36.45 C66.7470947,35.011152 67.4463039,33.1197015 67.3875,31.175 C67.3915336,30.7012353 67.3496715,30.2281935 67.2625,29.7625 L59.675,29.825 Z M116.3125,31.575 C115.6451,29.6115126 113.83491,28.2638163 111.7625,28.1874904 C110.380454,28.1847979 109.058931,28.7542594 108.111724,29.7606669 C107.164517,30.7670744 106.676119,32.1206539 106.7625,33.5 C106.731801,34.9116202 107.276456,36.2750354 108.271315,37.2769676 C109.266175,38.2788998 110.625698,38.8331985 112.0375,38.8125 C113.813573,38.8220737 115.475804,37.9393069 116.4625,36.4625 L114.65,35.2125 C114.099683,36.1299277 113.10732,36.6902088 112.0375,36.6874904 C110.929489,36.7297314 109.908302,36.0902498 109.4625,35.075 L116.575,32.1375 L116.3125,31.575 Z M109.0625,33.35 C109.011315,32.5689553 109.276657,31.8001812 109.798708,31.2169889 C110.32076,30.6337966 111.055575,30.2852771 111.8375,30.25 C112.661712,30.1956895 113.438833,30.6383532 113.8125,31.375 L109.0625,33.35 Z M103.2875,38.5 L105.625,38.5 L105.625,22.875 L103.2875,22.875 L103.2875,38.5 Z M99.4625,29.375 L99.375,29.375 C98.6624526,28.578346 97.6438215,28.1235999 96.575,28.1249968 C93.7376836,28.2625896 91.5079214,30.6030995 91.5079214,33.44375 C91.5079214,36.2844005 93.7376836,38.6249104 96.575,38.7625 C97.6472862,38.7805297 98.6725199,38.322836 99.375,37.5125 L99.45,37.5125 L99.45,38.275 C99.45,40.3125 98.3625,41.4 96.6125,41.4 C95.4203788,41.3720968 94.3634101,40.6262918 93.9375,39.5125 L91.9,40.3625 C92.684602,42.2710137 94.5490386,43.5123229 96.6125,43.5000909 C99.35,43.5000909 101.6125,41.8875 101.6125,37.9625 L101.6125,28.5 L99.4625,28.5 L99.4625,29.375 Z M96.7875,36.725 C95.1161095,36.5776997 93.8342204,35.1778688 93.8342204,33.5 C93.8342204,31.8221312 95.1161095,30.4223003 96.7875,30.275 C97.5951495,30.3164469 98.3518574,30.6822127 98.8860623,31.2893706 C99.4202671,31.8965285 99.6867162,32.6936461 99.625,33.5 C99.6939185,34.3100618 99.4283219,35.1130389 98.8899629,35.7222346 C98.3516039,36.3314303 97.587388,36.6937673 96.775,36.725 L96.7875,36.725 Z M127.2625,22.875 L121.675,22.875 L121.675,38.5 L124.0125,38.5 L124.0125,32.575 L127.275,32.575 C129.090855,32.7054548 130.827468,31.8106362 131.775163,30.2562162 C132.722858,28.7017962 132.722858,26.7482038 131.775163,25.1937838 C130.827468,23.6393638 129.090855,22.7445452 127.275,22.875 L127.2625,22.875 Z M127.2625,30.375 L124,30.375 L124,25.05 L127.3125,25.05 C128.793313,25.05 129.99375,26.2504365 129.99375,27.73125 C129.99375,29.2120635 128.793313,30.4125 127.3125,30.4125 L127.2625,30.375 Z M141.675,28.125 C139.935891,28.0210487 138.300859,28.95886 137.5125,30.5125 L139.5875,31.375 C140.005507,30.6045852 140.838906,30.1535695 141.7125,30.225 C142.31191,30.1549933 142.914317,30.3287126 143.38441,30.7071377 C143.854504,31.0855629 144.152873,31.6369686 144.2125,32.2375 L144.2125,32.4 C143.461741,32.0024989 142.62449,31.7964065 141.775,31.8 C139.5375,31.8 137.275,33.05 137.275,35.3125 C137.31961,36.287136 137.75655,37.2022869 138.486414,37.8497467 C139.216278,38.4972065 140.176998,38.8219158 141.15,38.75 C142.349036,38.8361039 143.499461,38.2608914 144.15,37.25 L144.225,37.25 L144.225,38.5 L146.475,38.5 L146.475,32.4875 C146.475,29.75 144.4,28.1625 141.7375,28.1625 L141.675,28.125 Z M141.3875,36.6875 C140.625,36.6875 139.5625,36.3 139.5625,35.3625 C139.5625,34.1125 140.8875,33.7 142.0625,33.7 C142.805052,33.6816774 143.538914,33.8629842 144.1875,34.225 C144.02587,35.6242688 142.858155,36.6906757 141.45,36.725 L141.3875,36.6875 Z M154.675,28.5 L152,35.275 L151.925,35.275 L149.15,28.5 L146.65,28.5 L150.8125,37.975 L148.4375,43.2375 L150.875,43.2375 L157.275,28.5 L154.675,28.5 Z M133.6625,38.5 L136,38.5 L136,22.875 L133.6625,22.875 L133.6625,38.5 Z" id="Google-Play" fill="#FFFFFF"></path>
                    <path d="M59.275,13.8 C59.317942,14.7265388 58.9790845,15.6301586 58.3375,16.3 C57.6205622,17.044754 56.6206048,17.4492823 55.5875,17.4125 C54.0029253,17.4000985 52.5801853,16.4390202 51.9771148,14.9736408 C51.3740443,13.5082615 51.7081694,11.8241531 52.825,10.7 C53.5506662,9.95915746 54.5507236,9.55189428 55.5875,9.575 C56.115947,9.57323929 56.6391699,9.6795854 57.125,9.8875 C57.5773181,10.069942 57.9799801,10.3569457 58.3,10.725 L57.6375,11.3875 C57.1316835,10.7858456 56.3723561,10.4571123 55.5875,10.5 C54.7985617,10.4961298 54.0420992,10.8138596 53.492545,11.3799239 C52.9429909,11.9459883 52.6477854,12.7115217 52.675,13.5 C52.6582524,14.6914871 53.3599707,15.7760494 54.4536666,16.2490729 C55.5473625,16.7220964 56.8182407,16.4906821 57.675,15.6625 C58.0596369,15.2456708 58.2814787,14.7043766 58.3,14.1375 L55.5875,14.1375 L55.5875,13.2375 L59.225,13.2375 C59.2583414,13.4231427 59.2750743,13.6113871 59.275,13.8 L59.275,13.8 Z M65,10.675 L61.625,10.675 L61.625,13.05 L64.7,13.05 L64.7,13.95 L61.625,13.95 L61.625,16.325 L65,16.325 L65,17.25 L60.625,17.25 L60.625,9.75 L65,9.75 L65,10.675 Z M69.1,17.25 L68.1375,17.25 L68.1375,10.675 L66.0375,10.675 L66.0375,9.75 L71.25,9.75 L71.25,10.675 L69.1,10.675 L69.1,17.25 Z M74.925,17.25 L74.925,9.75 L75.8875,9.75 L75.8875,17.25 L74.925,17.25 Z M80.1625,17.25 L79.2,17.25 L79.2,10.675 L77.1,10.675 L77.1,9.75 L82.25,9.75 L82.25,10.675 L80.1625,10.675 L80.1625,17.25 Z M92.0125,16.275 C90.4912373,17.7877849 88.0337627,17.7877849 86.5125,16.275 C85.0378361,14.7140423 85.0378361,12.2734577 86.5125,10.7125 C87.239998,9.97968336 88.2298947,9.56754121 89.2625,9.56754121 C90.2951053,9.56754121 91.285002,9.97968336 92.0125,10.7125 C93.4934569,12.2709498 93.4934569,14.7165502 92.0125,16.275 L92.0125,16.275 Z M87.225,15.65 C88.3516549,16.7719563 90.1733451,16.7719563 91.3,15.65 C92.4064979,14.4302139 92.4064979,12.5697861 91.3,11.35 C90.1733451,10.2280437 88.3516549,10.2280437 87.225,11.35 C86.1185021,12.5697861 86.1185021,14.4302139 87.225,15.65 L87.225,15.65 Z M94.475,17.25 L94.475,9.75 L95.65,9.75 L99.3,15.5875 L99.3,9.75 L100.2625,9.75 L100.2625,17.25 L99.2625,17.25 L95.45,11.1375 L95.45,17.25 L94.475,17.25 Z" id="GET-IT-ON" stroke="#FFFFFF" stroke-width="0.5" fill="#FFFFFF"></path>
                    <g id="Icon" transform="translate(11.250000, 9.750000)">
                        <path d="M1.8,0.675 C1.3925812,1.16388542 1.18694206,1.78974365 1.225,2.425 L1.225,30.075 C1.18694206,30.7102563 1.3925812,31.3361146 1.8,31.825 L1.8875,31.9125 L17.375,16.4375 L17.375,16.075 L1.8875,0.5875 L1.8,0.675 Z" id="Shape" fill="url(#linearGradient-1)"></path>
                        <path d="M22.5,21.6 L17.375,16.4375 L17.375,16.075 L22.5,10.9 L22.6125,10.9625 L28.75,14.45 C30.5,15.4375 30.5,17.0625 28.75,18.0625 L22.6375,21.5375 L22.5,21.6 Z" id="Shape" fill="url(#linearGradient-2)"></path>
                        <path d="M22.65,21.525 L17.375,16.25 L1.8,31.825 C2.53589716,32.471903 3.6280362,32.503407 4.4,31.9 L22.6625,21.525" id="Shape" fill="url(#linearGradient-3)"></path>
                        <path d="M22.65,10.975 L4.3875,0.6 C3.6155362,-0.00340701137 2.52339716,0.0280969994 1.7875,0.675 L17.375,16.25 L22.65,10.975 Z" id="Shape" fill="url(#linearGradient-4)"></path>
                        <path d="M22.5,21.4125 L4.3875,31.725 C3.64629817,32.2791706 2.62870183,32.2791706 1.8875,31.725 L1.8,31.8125 L1.8875,31.9 C2.62730723,32.4583491 3.64769277,32.4583491 4.3875,31.9 L22.65,21.525 L22.5,21.4125 Z" id="Shape" fill="#000000" opacity="0.2"></path>
                        <path d="M1.8,31.65 C1.3925812,31.1611146 1.18694206,30.5352563 1.225,29.9 L1.225,30.0875 C1.18694206,30.7227563 1.3925812,31.3486146 1.8,31.8375 L1.8875,31.75 L1.8,31.65 Z M28.75,17.875 L22.5,21.4125 L22.6125,21.525 L28.75,18.05 C29.4588376,17.7170165 29.9355855,17.0304996 30,16.25 C29.8575369,16.9560474 29.3958824,17.5561982 28.75,17.875 Z" id="Shape" fill="#000000" opacity="0.12"></path>
                        <path d="M4.3875,0.775 L28.75,14.625 C29.3958824,14.9438018 29.8575369,15.5439526 30,16.25 C29.9355855,15.4695004 29.4588376,14.7829835 28.75,14.45 L4.3875,0.6 C2.6375,-0.3875 1.2125,0.4375 1.2125,2.4375 L1.2125,2.625 C1.25,0.6125 2.65,-0.2125 4.3875,0.775 L4.3875,0.775 Z" id="Shape" fill="#FFFFFF" opacity="0.25"></path>
                    </g>
                </g>
            </g>
        </g>
    </g>
</svg>