<?xml version="1.0" encoding="UTF-8"?>
<svg width="50px" height="50px" viewBox="0 0 50 50" version="1.1" xmlns="http://www.w3.org/2000/svg" xmlns:xlink="http://www.w3.org/1999/xlink">
    <!-- Generator: Sketch 59.1 (86144) - https://sketch.com -->
    <title>ic-about</title>
    <desc>Created with Sketch.</desc>
    <defs>
        <circle id="path-1" cx="25" cy="25" r="25"></circle>
        <path d="M3.8598662,0.845933303 C0.424626528,2.64574217 -0.901363111,6.88949248 0.898445752,10.3249334 L0.898445752,10.3249334 C2.69815402,13.7603742 6.94210553,15.0861627 10.3775464,13.2864544 L10.3775464,13.2864544 C13.8126855,11.4866455 15.1387757,7.24269403 13.3389669,3.80745435 L13.3389669,3.80745435 C12.084201,1.41220261 9.64136613,0.0425531915 7.11272069,0.0425531915 L7.11272069,0.0425531915 C6.01458679,0.0425531915 4.90015593,0.300990896 3.8598662,0.845933303 L3.8598662,0.845933303 Z" id="path-3"></path>
        <path d="M3.8598662,0.845933303 C0.424626528,2.64574217 -0.901363111,6.88949248 0.898445752,10.3249334 L0.898445752,10.3249334 C2.69815402,13.7603742 6.94210553,15.0861627 10.3775464,13.2864544 L10.3775464,13.2864544 C13.8126855,11.4866455 15.1387757,7.24269403 13.3389669,3.80745435 L13.3389669,3.80745435 C12.084201,1.41220261 9.64136613,0.0425531915 7.11272069,0.0425531915 L7.11272069,0.0425531915 C6.01458679,0.0425531915 4.90015593,0.300990896 3.8598662,0.845933303" id="path-5"></path>
        <path d="M3.8598662,0.845933303 C0.424626528,2.64574217 -0.901363111,6.88949248 0.898445752,10.3249334 L0.898445752,10.3249334 C2.69815402,13.7603742 6.94210553,15.0861627 10.3775464,13.2864544 L10.3775464,13.2864544 C13.8126855,11.4866455 15.1387757,7.24269403 13.3389669,3.80745435 L13.3389669,3.80745435 C12.084201,1.41220261 9.64136613,0.0425531915 7.11272069,0.0425531915 L7.11272069,0.0425531915 C6.01458679,0.0425531915 4.90015593,0.300990896 3.8598662,0.845933303" id="path-7"></path>
        <path d="M3.8598662,0.845933303 C0.424626528,2.64574217 -0.901363111,6.88949248 0.898445752,10.3249334 L0.898445752,10.3249334 C2.69815402,13.7603742 6.94210553,15.0861627 10.3775464,13.2864544 L10.3775464,13.2864544 C13.8126855,11.4866455 15.1387757,7.24269403 13.3389669,3.80745435 L13.3389669,3.80745435 C12.084201,1.41220261 9.64136613,0.0425531915 7.11272069,0.0425531915 L7.11272069,0.0425531915 C6.01458679,0.0425531915 4.90015593,0.300990896 3.8598662,0.845933303 L3.8598662,0.845933303 Z" id="path-9"></path>
        <path d="M3.8598662,0.845933303 C0.424626528,2.64574217 -0.901363111,6.88949248 0.898445752,10.3249334 L0.898445752,10.3249334 C2.69815402,13.7603742 6.94210553,15.0861627 10.3775464,13.2864544 L10.3775464,13.2864544 C13.8126855,11.4866455 15.1387757,7.24269403 13.3389669,3.80745435 L13.3389669,3.80745435 C12.084201,1.41220261 9.64136613,0.0425531915 7.11272069,0.0425531915 L7.11272069,0.0425531915 C6.01458679,0.0425531915 4.90015593,0.300990896 3.8598662,0.845933303" id="path-11"></path>
        <path d="M3.8598662,0.845933303 C0.424626528,2.64574217 -0.901363111,6.88949248 0.898445752,10.3249334 L0.898445752,10.3249334 C2.69815402,13.7603742 6.94210553,15.0861627 10.3775464,13.2864544 L10.3775464,13.2864544 C13.8126855,11.4866455 15.1387757,7.24269403 13.3389669,3.80745435 L13.3389669,3.80745435 C12.084201,1.41220261 9.64136613,0.0425531915 7.11272069,0.0425531915 L7.11272069,0.0425531915 C6.01458679,0.0425531915 4.90015593,0.300990896 3.8598662,0.845933303 L3.8598662,0.845933303 Z" id="path-13"></path>
        <path d="M3.8598662,0.845933303 C0.424626528,2.64574217 -0.901363111,6.88949248 0.898445752,10.3249334 L0.898445752,10.3249334 C2.69815402,13.7603742 6.94210553,15.0861627 10.3775464,13.2864544 L10.3775464,13.2864544 C13.8126855,11.4866455 15.1387757,7.24269403 13.3389669,3.80745435 L13.3389669,3.80745435 C12.084201,1.41220261 9.64136613,0.0425531915 7.11272069,0.0425531915 L7.11272069,0.0425531915 C6.01458679,0.0425531915 4.90015593,0.300990896 3.8598662,0.845933303" id="path-15"></path>
        <path d="M3.8598662,0.845933303 C0.424626528,2.64574217 -0.901363111,6.88949248 0.898445752,10.3249334 L0.898445752,10.3249334 C2.69815402,13.7603742 6.94210553,15.0861627 10.3775464,13.2864544 L10.3775464,13.2864544 C13.8126855,11.4866455 15.1387757,7.24269403 13.3389669,3.80745435 L13.3389669,3.80745435 C12.084201,1.41220261 9.64136613,0.0425531915 7.11272069,0.0425531915 L7.11272069,0.0425531915 C6.01458679,0.0425531915 4.90015593,0.300990896 3.8598662,0.845933303" id="path-17"></path>
        <path d="M3.8598662,0.845933303 C0.424626528,2.64574217 -0.901363111,6.88949248 0.898445752,10.3249334 L0.898445752,10.3249334 C2.69815402,13.7603742 6.94210553,15.0861627 10.3775464,13.2864544 L10.3775464,13.2864544 C13.8126855,11.4866455 15.1387757,7.24269403 13.3389669,3.80745435 L13.3389669,3.80745435 C12.084201,1.41220261 9.64136613,0.0425531915 7.11272069,0.0425531915 L7.11272069,0.0425531915 C6.01458679,0.0425531915 4.90015593,0.300990896 3.8598662,0.845933303" id="path-19"></path>
        <path d="M3.8598662,0.845933303 C0.424626528,2.64574217 -0.901363111,6.88949248 0.898445752,10.3249334 L0.898445752,10.3249334 C2.69815402,13.7603742 6.94210553,15.0861627 10.3775464,13.2864544 L10.3775464,13.2864544 C13.8126855,11.4866455 15.1387757,7.24269403 13.3389669,3.80745435 L13.3389669,3.80745435 C12.084201,1.41220261 9.64136613,0.0425531915 7.11272069,0.0425531915 L7.11272069,0.0425531915 C6.01458679,0.0425531915 4.90015593,0.300990896 3.8598662,0.845933303" id="path-21"></path>
        <path d="M3.8598662,0.845933303 C0.424626528,2.64574217 -0.901363111,6.88949248 0.898445752,10.3249334 L0.898445752,10.3249334 C2.69815402,13.7603742 6.94210553,15.0861627 10.3775464,13.2864544 L10.3775464,13.2864544 C13.8126855,11.4866455 15.1387757,7.24269403 13.3389669,3.80745435 L13.3389669,3.80745435 C12.084201,1.41220261 9.64136613,0.0425531915 7.11272069,0.0425531915 L7.11272069,0.0425531915 C6.01458679,0.0425531915 4.90015593,0.300990896 3.8598662,0.845933303" id="path-23"></path>
        <path d="M3.8598662,0.845933303 C0.424626528,2.64574217 -0.901363111,6.88949248 0.898445752,10.3249334 L0.898445752,10.3249334 C2.69815402,13.7603742 6.94210553,15.0861627 10.3775464,13.2864544 L10.3775464,13.2864544 C13.8126855,11.4866455 15.1387757,7.24269403 13.3389669,3.80745435 L13.3389669,3.80745435 C12.084201,1.41220261 9.64136613,0.0425531915 7.11272069,0.0425531915 L7.11272069,0.0425531915 C6.01458679,0.0425531915 4.90015593,0.300990896 3.8598662,0.845933303" id="path-25"></path>
        <path d="M3.8598662,0.845933303 C0.424626528,2.64574217 -0.901363111,6.88949248 0.898445752,10.3249334 L0.898445752,10.3249334 C2.69815402,13.7603742 6.94210553,15.0861627 10.3775464,13.2864544 L10.3775464,13.2864544 C13.8126855,11.4866455 15.1387757,7.24269403 13.3389669,3.80745435 L13.3389669,3.80745435 C12.084201,1.41220261 9.64136613,0.0425531915 7.11272069,0.0425531915 L7.11272069,0.0425531915 C6.01458679,0.0425531915 4.90015593,0.300990896 3.8598662,0.845933303" id="path-27"></path>
        <path d="M3.8598662,0.845933303 C0.424626528,2.64574217 -0.901363111,6.88949248 0.898445752,10.3249334 L0.898445752,10.3249334 C2.69815402,13.7603742 6.94210553,15.0861627 10.3775464,13.2864544 L10.3775464,13.2864544 C13.8126855,11.4866455 15.1387757,7.24269403 13.3389669,3.80745435 L13.3389669,3.80745435 C12.084201,1.41220261 9.64136613,0.0425531915 7.11272069,0.0425531915 L7.11272069,0.0425531915 C6.01458679,0.0425531915 4.90015593,0.300990896 3.8598662,0.845933303" id="path-29"></path>
    </defs>
    <g id="Pages" stroke="none" stroke-width="1" fill="none" fill-rule="evenodd">
        <g id="X---Top-Nav-Menu" transform="translate(-194.000000, -111.000000)">
            <g id="Group-5" transform="translate(174.000000, 72.000000)">
                <g id="Group-4" transform="translate(20.000000, 39.000000)">
                    <g id="Group">
                        <g id="ic-about">
                            <mask id="mask-2" fill="white">
                                <use xlink:href="#path-1"></use>
                            </mask>
                            <use id="Mask" fill="#FFF5E8" xlink:href="#path-1"></use>
                            <g id="Group-159" mask="url(#mask-2)">
                                <g transform="translate(0.000000, 11.000000)">
                                    <polygon id="Fill-1" fill="#E2E2E2" points="0 8.02240622 4.72131695 28.0141844 18.7943262 24.6016067 14.0730093 4.60992908"></polygon>
                                    <g id="Group-82" stroke-width="1" fill="none" transform="translate(2.127660, 0.709220)">
                                        <path d="M4.15214264,15.2020319 L3.82580162,15.2809578 C2.43113575,15.6181592 1.02987714,14.7492675 0.696144241,13.3400057 L0.131964839,10.958098 C-0.201768055,9.5489371 0.658285886,8.13311496 2.05305164,7.79591353 L2.37939267,7.7169876 C3.77405854,7.37978616 5.17531715,8.24877879 5.50905004,9.65793966 L6.07312956,12.0398474 C6.40696234,13.4491092 5.54680851,14.8648304 4.15214264,15.2020319" id="Fill-2" fill="#FFF5E8"></path>
                                        <path d="M2.34460094,8.298597 C0.578243932,8.72562462 0.94074518,10.269121 1.28706423,11.4739021 L1.6584557,11.6155045 L3.05042453,11.2790096 L4.44239337,10.9424137 L4.71019878,10.6461892 C4.47925282,9.41345095 4.11095795,7.87156938 2.34460094,8.298597" id="Fill-4" fill="#EB7150"></path>
                                        <path d="M4.43751873,12.9540055 L2.5641794,13.4069717 L2.77185096,14.2838367 L2.77235041,14.2837358 C2.77255019,14.2847451 2.77235041,14.2858553 2.77255019,14.2868646 C2.85615823,14.6397099 3.34322246,14.8244087 3.86055339,14.6993585 C4.37788433,14.5743083 4.72949755,14.1867437 4.64588952,13.8338984 C4.64568974,13.8328891 4.64499051,13.8320817 4.64469084,13.8309714 L4.64519029,13.8308705 L4.43751873,12.9540055 Z" id="Fill-6" fill="#F0A79E"></path>
                                        <path d="M4.71016881,10.6462093 C4.67560683,10.6575133 4.54994506,10.738155 4.48152033,10.7828663 C4.0985416,9.16569217 3.46573769,9.01389602 2.57242034,9.2299835 C1.53226451,9.48139588 1.16277095,9.83292914 1.5556388,11.4914838 C1.47532714,11.4830058 1.32349416,11.4680685 1.28703426,11.4739223 C1.23718909,11.4817947 1.13360304,11.6493357 1.34007592,12.2004042 C1.5465488,12.7514727 1.77349915,12.7478393 1.89136949,12.7009076 L1.89146938,12.7008067 C2.29452602,13.5544582 3.013635,14.0705046 3.68060134,13.9092212 C4.34756768,13.7479377 4.75731695,12.959284 4.73464189,12.0141915 C4.86120268,11.9962262 5.04909599,11.8843977 4.98846269,11.3182909 C4.92563181,10.732503 4.75821596,10.6304645 4.71016881,10.6462093" id="Fill-8" fill="#F5B1A8"></path>
                                        <path d="M11.1462991,6.69906518 L6.84293277,7.73963591 C6.7304565,7.76678562 6.61638198,7.69603488 6.58951154,7.58238962 L6.58641494,7.56916802 C6.55944461,7.45552276 6.62946759,7.34036357 6.74194386,7.31311293 L11.0453102,6.27264313 C11.1577864,6.24539249 11.2717611,6.31614322 11.2986315,6.42978848 L11.301828,6.44301009 C11.3286984,6.55665535 11.2586755,6.67181454 11.1462991,6.69906518" id="Fill-10" fill="#FFFFFF"></path>
                                        <path d="M11.4458695,7.96391877 L7.14250325,9.0044895 C7.03002697,9.03163921 6.91595245,8.96088847 6.88908201,8.84724321 L6.88598542,8.83402161 C6.85901508,8.72047727 6.92903806,8.60521716 7.04151433,8.57796652 L11.3448806,7.53749672 C11.4573569,7.51024608 11.5713315,7.58099681 11.598202,7.69464207 L11.6013985,7.70786368 C11.6282689,7.82150894 11.5582459,7.93666813 11.4458695,7.96391877" id="Fill-12" fill="#FFFFFF"></path>
                                        <path d="M11.74545,9.22878245 L7.44208371,10.2693532 C7.32960743,10.2965029 7.21553291,10.2257522 7.18866247,10.1121069 L7.18556588,10.0988853 C7.15859554,9.98534096 7.22861852,9.87008084 7.3410948,9.8428302 L11.6444611,8.8023604 C11.7569374,8.77521069 11.870912,8.84596142 11.8977824,8.95950576 L11.9009789,8.97272736 C11.9278494,9.08637262 11.8578264,9.20153181 11.74545,9.22878245" id="Fill-14" fill="#FFFFFF"></path>
                                        <path d="M12.950904,14.7648004 L2.05468984,17.3994326 C1.94221357,17.4265824 1.82823894,17.3559326 1.8012686,17.2422873 L1.79817201,17.2290657 C1.77130157,17.1154204 1.84122465,17.0001603 1.95370093,16.9730106 L12.8499151,14.3383784 C12.9623914,14.3112286 13.076366,14.3818785 13.1033363,14.4955237 L13.1064329,14.5087453 C13.1334033,14.6223906 13.0633803,14.7375498 12.950904,14.7648004" id="Fill-16" fill="#FFFFFF"></path>
                                        <path d="M13.2854061,16.1771102 L2.38919189,18.8117425 C2.27671561,18.8388922 2.16274098,18.7682424 2.13577065,18.6545971 L2.13267406,18.6413755 C2.10580362,18.5277303 2.1757267,18.4124701 2.28820298,18.3853204 L13.1844171,15.7506882 C13.2968934,15.7235385 13.410868,15.7941883 13.4378384,15.9078335 L13.440935,15.9211561 C13.4679053,16.0347004 13.3978823,16.1498596 13.2854061,16.1771102" id="Fill-18" fill="#FFFFFF"></path>
                                        <path d="M9.09391669,18.6837553 L2.7237239,20.224022 C2.61124763,20.2511717 2.49717311,20.1805219 2.47030267,20.0668767 L2.46720607,20.0536551 C2.44023574,19.9400098 2.51025872,19.8248506 2.62273499,19.7976 L8.99292778,18.2573333 C9.10540406,18.2301835 9.21937868,18.3009343 9.24624913,18.4144786 L9.24944561,18.4278011 C9.27631605,18.5413455 9.20629308,18.6565047 9.09391669,18.6837553" id="Fill-20" fill="#FFFFFF"></path>
                                        <polygon id="Fill-22" fill="#E2E2E2" points="46.9726601 23.2879225 33.1138048 27.7840762 26.8753671 8.15281617 40.7342224 3.65666244"></polygon>
                                        <path d="M33.6895215,15.4490236 L33.3711717,15.5522733 C32.0058735,15.9952475 30.5435821,15.235964 30.1050644,13.8563751 L29.364579,11.5261426 C28.9261612,10.1464528 29.6777345,8.66896347 31.0431326,8.22609011 L31.3613825,8.12273953 C32.7267805,7.67976524 34.189072,8.43904881 34.6275897,9.81873862 L35.3680751,12.1489711 C35.806393,13.52856 35.0550195,15.0060493 33.6895215,15.4490236" id="Fill-24" fill="#FFF5E8"></path>
                                        <path d="M40.025422,6.43713606 L35.8133553,7.80370519 C35.7032764,7.83933288 35.5843073,7.77756476 35.549046,7.66634178 L35.5448507,7.65342296 C35.5094896,7.54219998 35.5706223,7.42199438 35.6807012,7.38626576 L39.892768,6.01979756 C40.0028469,5.98406894 40.121816,6.04583706 40.1571771,6.15706004 L40.1612726,6.17007979 C40.1966337,6.28120185 40.1355009,6.40140745 40.025422,6.43713606" id="Fill-26" fill="#FFFFFF"></path>
                                        <path d="M40.4188393,7.6751831 L36.2067726,9.0416513 C36.0966936,9.07737991 35.9777245,9.0156118 35.9424633,8.90438881 L35.9383678,8.89146999 C35.9029068,8.78024701 35.9640396,8.66004141 36.0741185,8.62431279 L40.2861852,7.25784459 C40.3962641,7.22211598 40.5152332,7.2838841 40.5505943,7.39510708 L40.5546898,7.4080259 C40.5900509,7.51924888 40.5289182,7.63945448 40.4188393,7.6751831" id="Fill-28" fill="#FFFFFF"></path>
                                        <path d="M40.8122465,8.91323013 L36.6001798,10.2796983 C36.4901009,10.3154269 36.3711318,10.2536588 36.3358705,10.1424358 L36.331775,10.1294161 C36.2963141,10.018294 36.3574468,9.89798752 36.4676256,9.86235983 L40.6796923,8.4957907 C40.7896714,8.46016301 40.9086405,8.52193113 40.9440016,8.63315411 L40.9480971,8.64607293 C40.9834582,8.75729592 40.9224253,8.87750152 40.8122465,8.91323013" id="Fill-30" fill="#FFFFFF"></path>
                                        <path d="M42.6314454,14.9775068 L31.9664769,18.4375306 C31.856398,18.4732593 31.7374288,18.4113902 31.7020677,18.3002682 L31.6979722,18.2872484 C31.6626111,18.1760254 31.7238438,18.0558198 31.8338228,18.0200912 L42.4988912,14.5601683 C42.6088702,14.5244397 42.7279393,14.5862078 42.7632005,14.6975317 L42.767296,14.7104505 C42.802757,14.8215726 42.7416242,14.9417782 42.6314454,14.9775068" id="Fill-32" fill="#FFFFFF"></path>
                                        <path d="M43.0708021,16.359851 L32.4057337,19.8198749 C32.2956548,19.8556035 32.1766856,19.7937344 32.1413245,19.6826124 L32.137229,19.6695926 C32.1018679,19.5583696 32.1631006,19.438164 32.2730796,19.4024354 L42.938148,15.9425125 C43.0481271,15.9067839 43.1671961,15.968552 43.2024573,16.079775 L43.2066527,16.0927947 C43.2420138,16.2039168 43.180881,16.3241224 43.0708021,16.359851" id="Fill-34" fill="#FFFFFF"></path>
                                        <path d="M44.6114874,21.2082445 L33.9464189,24.6681674 C33.8364399,24.7039969 33.7173709,24.6421279 33.6821097,24.5309049 L33.6780142,24.5179861 C33.6425532,24.4067631 33.7037858,24.2865575 33.8138647,24.2508289 L44.4788333,20.7908051 C44.5889122,20.7551774 44.7078813,20.8169455 44.7432424,20.9281685 L44.7473379,20.9411882 C44.782699,21.0523103 44.7216662,21.1725159 44.6114874,21.2082445" id="Fill-36" fill="#FFFFFF"></path>
                                        <path d="M39.0800719,19.1794344 L32.8450305,21.2021383 C32.7349516,21.2379679 32.6159824,21.1760988 32.5807212,21.0649768 L32.5766257,21.051957 C32.5411647,20.940734 32.6022975,20.8205284 32.7123764,20.7847998 L38.9474178,18.7619949 C39.0574968,18.7263672 39.1764659,18.7880344 39.211827,18.8993583 L39.2159225,18.9122772 C39.2512836,19.0235001 39.1901508,19.1437057 39.0800719,19.1794344" id="Fill-38" fill="#FFFFFF"></path>
                                        <path d="M39.7116072,21.1667529 L33.4765658,23.1895578 C33.3664869,23.2252864 33.2475177,23.1634173 33.2122565,23.0522953 L33.208161,23.0393765 C33.1727,22.9280526 33.2338328,22.8079479 33.3440116,22.7721183 L39.579053,20.7493134 C39.6890321,20.7136857 39.8081011,20.7754539 39.8433623,20.8866768 L39.8474578,20.8996966 C39.8828189,21.0108187 39.821786,21.1310243 39.7116072,21.1667529" id="Fill-40" fill="#FFFFFF"></path>
                                        <path d="M33.5385176,13.2454561 L31.7050345,13.8403275 L31.9777345,14.6985208 L31.9781341,14.6984199 C31.9785336,14.6994292 31.9783338,14.7005394 31.9786335,14.7015486 C32.0884127,15.0469253 32.5877635,15.1937759 33.0942064,15.0295656 C33.6005494,14.8652543 33.9219958,14.4520539 33.8122166,14.1066773 C33.8119169,14.105668 33.8111178,14.1048606 33.810918,14.1038513 L33.8112177,14.1036494 L33.5385176,13.2454561 Z" id="Fill-42" fill="#F0A79E"></path>
                                        <path d="M30.8073419,8.97345405 C30.5273499,8.50766996 30.8783638,7.3902928 32.1816302,7.85335182 C33.4848966,8.31641084 34.6873739,12.0029178 34.6873739,12.0029178 C34.6873739,12.0029178 34.0412846,12.1915528 33.1994106,11.6179773 C32.3577365,11.0444018 30.8073419,8.97345405 30.8073419,8.97345405" id="Fill-44" fill="#F5B1A8"></path>
                                        <path d="M31.1033064,8.76455266 C29.3744082,9.32551213 29.8513835,10.8363078 30.2870043,12.0109113 L30.6678853,12.1237491 L32.0302867,11.6816832 L33.3927879,11.2396173 L33.6374188,10.9239136 C33.3148736,9.712774 32.8322046,8.20369412 31.1033064,8.76455266" id="Fill-46" fill="#EB7150"></path>
                                        <path d="M33.6374288,10.9239136 C33.6037659,10.9378417 33.4845969,11.0277688 33.4197683,11.0776273 C32.9167216,9.49476888 32.274528,9.39192295 31.4001898,9.67563239 C30.3821097,10.0058698 30.0400859,10.3845527 30.5560184,12.0079844 C30.4753072,12.0055621 30.3227749,12.0023324 30.2870143,12.0109113 C30.2378683,12.022619 30.147268,12.1976286 30.3942963,12.7311356 C30.6414244,13.2647435 30.8673759,13.2436495 30.9813505,13.1879371 L30.9814504,13.1878362 C31.447238,14.0079795 32.202707,14.4674051 32.8555889,14.2555566 C33.5083708,14.043809 33.8577864,13.2262898 33.7643892,12.28584 C33.8891519,12.2582866 34.068155,12.132429 33.9651683,11.5726806 C33.8586854,10.9934531 33.6842773,10.9045353 33.6374288,10.9239136" id="Fill-48" fill="#F5B1A8"></path>
                                        <path d="M31.4001398,9.6756122 C31.4001398,9.6756122 31.9443412,11.4491242 30.5560683,12.0079642 C30.1152532,11.153909 30.1174507,10.7741158 30.1174507,10.7741158 L30.2802717,9.84214389 L31.4028369,9.4191534 L31.4001398,9.6756122 Z" id="Fill-50" fill="#5546C5"></path>
                                        <path d="M31.3719509,9.68477649 C31.3719509,9.68477649 31.9689941,11.4400205 33.4197982,11.0776879 C33.2860454,10.1240164 33.0478074,9.8235529 33.0478074,9.8235529 L32.3783438,9.16146328 L31.2220158,9.47787348 L31.3719509,9.68477649 Z" id="Fill-52" fill="#5546C5"></path>
                                        <polygon id="Fill-54" fill="#FFFFFF" points="30.380951 26.6562126 13.933643 23.3611056 18.5057137 0.0633224129 34.9530217 3.35853035"></polygon>
                                        <path d="M21.7221656,11.3379214 L20.5703326,11.1070984 C19.16368,10.8253066 18.2494856,9.44470845 18.5283788,8.02333526 L19.2246129,4.47580658 C19.5035061,3.05453432 20.8699031,2.13073763 22.2766557,2.41263036 L23.4284887,2.64335244 C24.8351413,2.92514424 25.7493357,4.30584333 25.4704425,5.72721652 L24.7742084,9.2747452 C24.4953152,10.6960175 23.1289182,11.6197132 21.7221656,11.3379214" id="Fill-56" fill="#AE9AD9"></path>
                                        <path d="M22.7289182,3.15775369 C20.6771751,2.74667274 20.3220657,4.53794813 20.1112976,5.9670928 L20.4326441,6.29571534 L22.0495655,6.61969517 L23.6664869,6.943675 L24.0876236,6.76371984 C24.4324443,5.3614221 24.7806613,3.56883464 22.7289182,3.15775369" id="Fill-58" fill="#5546C5"></path>
                                        <path d="M22.7041454,9.04648576 L20.5280392,8.61047552 L20.328159,9.62904389 L20.3287584,9.62914481 C20.3284587,9.63035595 20.3276596,9.63136524 20.3274598,9.63257638 C20.2470482,10.0425471 20.6688842,10.4724007 21.2698232,10.5928082 C21.8707622,10.7132156 22.4231545,10.4784564 22.5035661,10.0684857 C22.5037659,10.0673755 22.5034662,10.0661643 22.503666,10.0649532 L22.5042653,10.0650541 L22.7041454,9.04648576 Z" id="Fill-60" fill="#F0A79E"></path>
                                        <path d="M24.0875837,6.76371984 C24.0460294,6.75877436 23.8761163,6.78208879 23.7832185,6.79561319 C24.1519129,4.91723667 23.561862,4.45094794 22.5242034,4.24303565 C21.3160324,4.0010096 20.7621416,4.1893418 20.3839576,6.11596204 C20.3040455,6.0680211 20.1522126,5.97869956 20.1113575,5.9670928 C20.055419,5.95114613 19.8673259,6.07619629 19.8211767,6.7532233 C19.7750275,7.43025031 20.0142643,7.53652781 20.1599041,7.54480393 L20.1601039,7.54480393 C20.1756867,8.63392117 20.682729,9.52320038 21.4574768,9.6784281 C22.2321247,9.83365582 23.03634,9.20739574 23.4621716,8.20719633 C23.6031166,8.24998993 23.8531415,8.22415229 24.0589152,7.60223213 C24.2719808,6.95871331 24.14542,6.77058297 24.0875837,6.76371984" id="Fill-62" fill="#F5B1A8"></path>
                                        <path d="M23.3649386,4.55936512 C23.0926381,4.70833528 21.147278,5.308354 20.6178604,5.20843499 C21.3732294,4.90353061 21.3635401,4.82541211 21.3635401,4.82541211 L20.6178604,5.09872593 C20.6178604,5.09872593 20.8129458,4.06410997 21.4505444,3.94703315 C22.0880432,3.8298554 23.5080811,4.07914829 23.5080811,4.07914829 L23.5756068,4.56764124 L23.3649386,4.55936512 Z" id="Fill-64" fill="#5546C5"></path>
                                        <path d="M32.7013485,5.75927135 L27.7025472,4.7578608 C27.5718909,4.73161944 27.4862851,4.60222937 27.5121566,4.47031608 L27.5151533,4.45487405 C27.5411248,4.32296077 27.6691839,4.23636429 27.7998402,4.26250472 L32.7985416,5.26391527 C32.929098,5.29015663 33.0149036,5.41954671 32.9889322,5.55145999 L32.9859355,5.56690202 C32.9600639,5.69891623 32.8320048,5.78541178 32.7013485,5.75927135" id="Fill-66" fill="#E2E2E2"></path>
                                        <path d="M32.4129957,7.22854511 L27.4142943,6.22703363 C27.283638,6.2008932 27.1979323,6.07150313 27.2239037,5.93948892 L27.2269004,5.92414781 C27.252772,5.7921336 27.3808311,5.70553713 27.5114874,5.73167755 L32.5102887,6.73318903 C32.6408451,6.75943039 32.7265508,6.88882047 32.7006793,7.02073375 L32.6976825,7.03617578 C32.6717111,7.16808906 32.543652,7.25468554 32.4129957,7.22854511" id="Fill-68" fill="#E2E2E2"></path>
                                        <path d="M32.1246429,8.69776841 L27.1259415,7.69635785 C26.9952852,7.6701165 26.9095795,7.54072642 26.9355509,7.40881314 L26.9385476,7.39337111 C26.9644191,7.26145783 27.0924783,7.17486135 27.2231346,7.20100178 L32.2219359,8.20241233 C32.3524923,8.22865369 32.438198,8.35804376 32.4123264,8.49005797 L32.4093297,8.50539908 C32.3833583,8.63741329 32.2552992,8.72390884 32.1246429,8.69776841" id="Fill-70" fill="#E2E2E2"></path>
                                        <path d="M30.7521227,15.0770524 L18.0952452,12.5412289 C17.964589,12.5150885 17.8788832,12.3856984 17.9047548,12.2536842 L17.9078514,12.2383431 C17.9337229,12.1063289 18.061782,12.0197324 18.1924383,12.0459738 L30.8493158,14.5817972 C30.9798721,14.6079377 31.0656778,14.7373277 31.0397063,14.869241 L31.0367096,14.884683 C31.0108381,15.0165963 30.8827789,15.1032937 30.7521227,15.0770524" id="Fill-72" fill="#E2E2E2"></path>
                                        <path d="M30.4301169,16.7175308 L17.7732394,14.1818083 C17.6425832,14.1556679 17.5569773,14.0261769 17.5828489,13.8942636 L17.5858456,13.8789225 C17.6117171,13.7469083 17.7398761,13.6603118 17.8704325,13.6864522 L30.5274098,16.2222757 C30.6579662,16.2484161 30.743672,16.3778062 30.7178004,16.5097194 L30.7148037,16.5251615 C30.6888323,16.6570748 30.560873,16.7437722 30.4301169,16.7175308" id="Fill-74" fill="#E2E2E2"></path>
                                        <path d="M24.850904,17.304772 L17.4513435,15.8223372 C17.3206872,15.7961968 17.2349815,15.6668067 17.260953,15.5347925 L17.2639497,15.5194514 C17.2898212,15.3874372 17.4178803,15.3008407 17.5485366,15.3269811 L24.9480971,16.8095168 C25.0786535,16.8356573 25.1644591,16.9650474 25.1384877,17.0969606 L25.135491,17.1124027 C25.1095195,17.2443159 24.9815603,17.3310134 24.850904,17.304772" id="Fill-76" fill="#E2E2E2"></path>
                                        <path d="M29.7039656,20.2897465 L17.0470882,17.7539231 C16.9164319,17.7277827 16.8307262,17.5983926 16.8566976,17.4663784 L16.8596943,17.4510373 C16.8855659,17.3190231 17.013625,17.2324266 17.1442813,17.258668 L29.8011587,19.7943905 C29.931815,19.8206318 30.0175207,19.9500219 29.9915493,20.0819352 L29.9886525,20.0973772 C29.9626811,20.2292905 29.8346219,20.315887 29.7039656,20.2897465" id="Fill-78" fill="#E2E2E2"></path>
                                        <path d="M24.1246529,20.8768767 L16.7250924,19.3944419 C16.594536,19.3683015 16.5088303,19.2389114 16.5347018,19.1068972 L16.5376985,19.0915561 C16.56367,18.9595419 16.6917291,18.8730463 16.8222855,18.8990858 L24.2219459,20.3816216 C24.3525022,20.4078629 24.438208,20.5371521 24.4123364,20.6690653 L24.4093397,20.6845074 C24.3833683,20.8165216 24.2553092,20.9031181 24.1246529,20.8768767" id="Fill-80" fill="#E2E2E2"></path>
                                    </g>
                                    <g id="Group-125" stroke-width="1" fill="none" transform="translate(17.375887, 1.063830)">
                                        <g id="Group-85">
                                            <mask id="mask-4" fill="white">
                                                <use xlink:href="#path-3"></use>
                                            </mask>
                                            <g id="Clip-84"></g>
                                            <polygon id="Fill-83" fill="#FCFBFA" mask="url(#mask-4)" points="16.8474222 34.9152658 -6.95610885 30.1953825 -0.33913787 -3.17567527 23.4643931 1.54420804"></polygon>
                                        </g>
                                        <g id="Group-88">
                                            <mask id="mask-6" fill="white">
                                                <use xlink:href="#path-5"></use>
                                            </mask>
                                            <g id="Clip-87"></g>
                                            <path d="M5.43705045,13.1959962 L1.52789095,12.4208843 C0.11116141,12.1399125 -0.809516624,10.7638248 -0.52864544,9.34719582 L0.923494794,2.02351994 C1.20446658,0.606790403 2.5805543,-0.313887631 3.99728384,-0.0329158493 L7.90644334,0.742196067 C9.32317288,1.02306725 10.2438509,2.39925557 9.96287913,3.81588451 L8.51083949,11.1395604 C8.22986771,12.5561893 6.85377999,13.4768674 5.43705045,13.1959962" id="Fill-86" fill="#FFF5E8" mask="url(#mask-6)"></path>
                                        </g>
                                        <g id="Group-91">
                                            <mask id="mask-8" fill="white">
                                                <use xlink:href="#path-7"></use>
                                            </mask>
                                            <g id="Clip-90"></g>
                                            <path d="M5.77303959,1.25664705 C2.80357125,0.66784367 2.2897138,3.23360998 1.98459836,5.28058951 L2.44966551,5.75139078 L4.78978925,6.21545194 L7.12991298,6.6794125 L7.73933907,6.42167899 C8.23840853,4.41312811 8.74250792,1.84545043 5.77303959,1.25664705" id="Fill-89" fill="#EB7150" mask="url(#mask-8)"></path>
                                        </g>
                                        <g id="Group-94">
                                            <mask id="mask-10" fill="white">
                                                <use xlink:href="#path-9"></use>
                                            </mask>
                                            <g id="Clip-93"></g>
                                            <path d="M5.73708566,9.69150445 L2.5877471,9.06698858 L2.29842563,10.5259695 L2.29923042,10.5261707 C2.29892863,10.5278809 2.29782204,10.5292893 2.29752025,10.5309994 C2.18102711,11.1181932 2.79166038,11.733957 3.66133494,11.906383 C4.53100951,12.0788089 5.33036568,11.7426085 5.44675821,11.1555153 C5.44716061,11.1538051 5.44665761,11.152095 5.44706001,11.1502842 L5.4478648,11.1504854 L5.73708566,9.69150445 Z" id="Fill-92" fill="#F0A79E" mask="url(#mask-10)"></path>
                                        </g>
                                        <g id="Group-97">
                                            <mask id="mask-12" fill="white">
                                                <use xlink:href="#path-11"></use>
                                            </mask>
                                            <g id="Clip-96"></g>
                                            <path d="M7.73932901,6.42170917 C7.67907047,6.41466727 7.43330818,6.44796539 7.29890851,6.46748152 C7.83238268,3.77677179 6.97860269,3.10899854 5.47666616,2.8112268 C3.72816257,2.46456416 2.92649263,2.7343695 2.37923646,5.49398924 C2.26344751,5.42528042 2.04374025,5.29731905 1.9845883,5.28061969 C1.90370706,5.25788441 1.63148735,5.43694985 1.5646899,6.40671998 C1.49789246,7.37649012 1.84405211,7.52879634 2.05500729,7.54056637 L2.05520849,7.54056637 C2.07784317,9.10054826 2.81150848,10.3744278 3.93298124,10.5967507 C5.05405161,10.8190735 6.21777577,9.92203611 6.83424375,8.489412 C7.03825763,8.55057593 7.40001006,8.51365625 7.6978824,7.62285599 C8.00611639,6.70097078 7.82292641,6.43156783 7.73932901,6.42170917" id="Fill-95" fill="#F5B1A8" mask="url(#mask-12)"></path>
                                        </g>
                                        <g id="Group-100">
                                            <mask id="mask-14" fill="white">
                                                <use xlink:href="#path-13"></use>
                                            </mask>
                                            <g id="Clip-99"></g>
                                            <path d="M6.69340576,3.26429254 C6.2994618,3.47766209 3.48390926,4.3371762 2.71775062,4.19402445 C3.81095518,3.75722549 3.79697198,3.64535989 3.79697198,3.64535989 L2.71775062,4.03678889 C2.71775062,4.03678889 3.00013078,2.55487149 3.92272019,2.38717368 C4.84551079,2.21937528 6.9006388,2.57639958 6.9006388,2.57639958 L6.9984206,3.27616317 L6.69340576,3.26429254 Z" id="Fill-98" fill="#EB7150" mask="url(#mask-14)"></path>
                                        </g>
                                        <g id="Group-103">
                                            <mask id="mask-16" fill="white">
                                                <use xlink:href="#path-15"></use>
                                            </mask>
                                            <g id="Clip-102"></g>
                                            <path d="M20.2946934,5.00065389 L12.8820884,3.53090891 C12.7420552,3.50314371 12.6502087,3.36572607 12.6779739,3.22559227 L12.7176098,3.02560233 C12.745375,2.88556914 12.882692,2.79362205 13.0228258,2.82138725 L20.4353302,4.29123284 C20.575464,4.31899804 20.6673105,4.45631507 20.6396459,4.59644887 L20.5999095,4.79643881 C20.5721443,4.93657261 20.4348272,5.02841909 20.2946934,5.00065389" id="Fill-101" fill="#E2E2E2" mask="url(#mask-16)"></path>
                                        </g>
                                        <g id="Group-106">
                                            <mask id="mask-18" fill="white">
                                                <use xlink:href="#path-17"></use>
                                            </mask>
                                            <g id="Clip-105"></g>
                                            <path d="M19.8773704,7.10516574 L12.464866,5.63542075 C12.3248328,5.60765555 12.2328857,5.47033851 12.2606509,5.33010412 L12.3003873,5.13011418 C12.3281525,4.99008098 12.4654695,4.8981339 12.6056033,4.9258991 L20.0180071,6.39564408 C20.1581409,6.42350988 20.250088,6.56082692 20.2223228,6.70096072 L20.1825864,6.90095066 C20.1548212,7.04108445 20.0175041,7.13293094 19.8773704,7.10516574" id="Fill-104" fill="#E2E2E2" mask="url(#mask-18)"></path>
                                        </g>
                                        <g id="Group-109">
                                            <mask id="mask-20" fill="white">
                                                <use xlink:href="#path-19"></use>
                                            </mask>
                                            <g id="Clip-108"></g>
                                            <path d="M19.4601378,9.20972788 L12.0475328,7.7398823 C11.9074996,7.7121171 11.8156531,7.57480006 11.8433177,7.43466626 L11.8830542,7.23467632 C11.9108194,7.09454253 12.0481364,7.00269604 12.1882702,7.03046124 L19.600674,8.50020623 C19.7409084,8.52797143 19.8327549,8.66528847 19.8049897,8.80542226 L19.7653539,9.0055128 C19.7375887,9.145546 19.6002716,9.23749308 19.4601378,9.20972788" id="Fill-107" fill="#E2E2E2" mask="url(#mask-20)"></path>
                                        </g>
                                        <g id="Group-112">
                                            <mask id="mask-22" fill="white">
                                                <use xlink:href="#path-21"></use>
                                            </mask>
                                            <g id="Clip-111"></g>
                                            <path d="M17.473608,18.3471556 L-1.02224234,14.6797344 C-1.16227554,14.6519692 -1.25422262,14.5145516 -1.22645742,14.3745184 L-1.18682159,14.1744278 C-1.15895579,14.0343946 -1.02163875,13.9424476 -0.881504954,13.9702128 L17.6142448,17.6376339 C17.7543786,17.6654997 17.8463256,17.8028168 17.8185604,17.94285 L17.778824,18.1430411 C17.7510588,18.2830743 17.6137418,18.3749208 17.473608,18.3471556" id="Fill-110" fill="#C9C3CC" mask="url(#mask-22)"></path>
                                        </g>
                                        <g id="Group-115">
                                            <mask id="mask-24" fill="white">
                                                <use xlink:href="#path-23"></use>
                                            </mask>
                                            <g id="Clip-114"></g>
                                            <path d="M17.0076556,20.6970776 L-1.48819476,17.0295559 C-1.62822796,17.0018913 -1.72017504,16.864373 -1.69240984,16.7243398 L-1.65277401,16.5243499 C-1.6249082,16.3842161 -1.48759117,16.2923696 -1.34745737,16.3200342 L17.1482923,19.987556 C17.2884261,20.0153212 17.3803732,20.1527388 17.352608,20.292772 L17.3128716,20.4928625 C17.285207,20.6328957 17.1477893,20.7247422 17.0076556,20.6970776" id="Fill-113" fill="#C9C3CC" mask="url(#mask-24)"></path>
                                        </g>
                                        <g id="Group-118">
                                            <mask id="mask-26" fill="white">
                                                <use xlink:href="#path-25"></use>
                                            </mask>
                                            <g id="Clip-117"></g>
                                            <path d="M8.93295106,21.5382124 L-1.95412706,19.3793672 C-2.09416025,19.3517026 -2.18610734,19.2141844 -2.15834214,19.0741512 L-2.1186057,18.8741613 C-2.0909411,18.7340275 -1.95352346,18.642181 -1.81338967,18.6699462 L9.07358785,20.8286907 C9.21372164,20.8564559 9.30566873,20.9937729 9.27790353,21.1339067 L9.23816709,21.3339973 C9.21050249,21.4740305 9.07308485,21.565877 8.93295106,21.5382124" id="Fill-116" fill="#C9C3CC" mask="url(#mask-26)"></path>
                                        </g>
                                        <g id="Group-121">
                                            <mask id="mask-28" fill="white">
                                                <use xlink:href="#path-27"></use>
                                            </mask>
                                            <g id="Clip-120"></g>
                                            <path d="M15.9566722,25.8136512 L-2.53917811,22.1462301 C-2.67921131,22.1184649 -2.77115839,21.9810472 -2.74339319,21.841014 L-2.70375736,21.6409235 C-2.67589155,21.5008903 -2.53857452,21.4089432 -2.39844072,21.4367084 L16.097309,25.1041296 C16.2374428,25.1319954 16.3293899,25.2693124 16.3016247,25.4093456 L16.2618882,25.6094361 C16.234123,25.7494693 16.096806,25.8414164 15.9566722,25.8136512" id="Fill-119" fill="#C9C3CC" mask="url(#mask-28)"></path>
                                        </g>
                                        <g id="Group-124">
                                            <mask id="mask-30" fill="white">
                                                <use xlink:href="#path-29"></use>
                                            </mask>
                                            <g id="Clip-123"></g>
                                            <path d="M7.88197777,26.654786 L-3.00510035,24.4960414 C-3.14523414,24.4682762 -3.23708063,24.3308586 -3.20931543,24.1908254 L-3.169579,23.9908355 C-3.14191439,23.8507017 -3.00449676,23.7587546 -2.86436296,23.7865198 L8.02261456,25.9452643 C8.16274835,25.9731301 8.25469544,26.1104472 8.22693023,26.2504804 L8.1871938,26.4505709 C8.1594286,26.5906041 8.02211156,26.6825512 7.88197777,26.654786" id="Fill-122" fill="#C9C3CC" mask="url(#mask-30)"></path>
                                        </g>
                                    </g>
                                    <g id="Group-158" stroke-width="1" fill="none" transform="translate(16.666667, 0.000000)">
                                        <path d="M14.4771314,26.746999 C14.5810385,27.1772341 15.1375116,28.1270857 15.8305254,28.7023394 C16.5234391,29.2773923 17.2977367,29.7189759 17.5199656,29.4505308 C17.7422946,29.1821862 18.078641,28.6114518 17.5390853,27.9254255 C16.9995295,27.2392989 16.1711763,26.4626862 16.1711763,26.4626862 L14.4771314,26.746999 Z" id="Fill-126" fill="#F0ADA4"></path>
                                        <path d="M14.4771314,26.746999 C14.4827372,26.7699971 14.4901448,26.7951042 14.4982532,26.8208138 C14.620379,27.0395468 14.7204821,27.2099738 14.7204821,27.2099738 C14.7204821,27.2099738 16.386398,28.3218163 16.6763967,28.1213613 C16.9661952,27.9208058 17.0273582,27.6944403 17.0002302,27.5269257 C16.9902199,27.465564 16.9053325,27.2970452 16.7840075,27.0720856 C16.4471606,26.721691 16.1711763,26.4626862 16.1711763,26.4626862 L14.4771314,26.746999 Z" id="Fill-128" fill="#EE8B7C"></path>
                                        <path d="M13.8652712,24.1292932 C13.8652712,24.1292932 13.7299318,25.2003618 13.8315365,25.5105851 C13.9331411,25.8209087 14.4771014,26.7469588 14.4771014,26.7469588 C14.4771014,26.7469588 16.1432175,27.8588013 16.433016,27.6583463 C16.7229146,27.4577908 16.7839775,27.2314253 16.7569497,27.0639108 C16.7298217,26.8962958 16.1435178,25.9288692 15.7760393,25.1855988 C15.4085608,24.4421276 14.8447801,22.765978 14.8447801,22.765978 L13.8652712,24.1292932 Z" id="Fill-130" fill="#F0ADA4"></path>
                                        <path d="M15.7760293,25.1855587 C15.4085508,24.4421878 14.8447701,22.7659378 14.8447701,22.7659378 L13.8823789,24.1055519 L13.838834,24.3686743 L13.838834,24.3689755 C14.0465479,24.6931583 14.7455679,24.5258447 14.8937205,23.9296014 C15.0799123,24.286323 15.1348689,26.0831875 15.6768271,26.4270542 C16.2187853,26.7708206 16.6188975,26.8864136 16.6188975,26.8864136 L16.6462256,26.8088829 C16.4537273,26.432377 16.0529145,25.7455473 15.7760293,25.1855587" id="Fill-132" fill="#EE8B7C"></path>
                                        <path d="M24.2755038,27.2331527 C24.2755038,27.2331527 21.0283592,23.2128039 20.4120244,22.264057 C19.7957897,21.3152097 19.5451315,20.7197699 18.0915343,20.4231045 C16.6379371,20.1265395 14.9336817,19.2344342 14.1765018,20.3295052 C13.4193219,21.4243754 12.7298117,22.3019185 13.2749732,23.2881252 C13.8201347,24.2742314 13.9127301,24.7407212 14.3144439,24.468962 C14.7162577,24.1972028 14.8178624,23.8710115 14.7555983,23.1158905 C14.6935343,22.3605687 15.5683354,24.3250482 15.4499134,25.023628 C15.3313913,25.7222077 17.2931119,28.8425174 19.5118973,29.7369325 C21.7307827,30.6311467 29.0664384,39.8700552 29.0664384,39.8700552 L33.1550497,39.8700552 L33.1550497,33.2919966 C33.1550497,33.2919966 24.4727069,27.477997 24.2755038,27.2331527" id="Fill-134" fill="#F5B1A8"></path>
                                        <path d="M18.345666,23.5255479 C18.345666,23.5255479 17.3410313,22.82506 16.979659,22.2196777 C16.6187874,21.6152998 15.4653994,19.8110036 15.461195,19.8043753 C14.9327507,19.7722382 14.4789834,19.8920493 14.1765719,20.3295153 C13.9477362,20.6602259 13.7259077,20.9709513 13.541718,21.2710313 C13.5035787,21.4836382 14.694205,23.4348611 14.771885,23.5171119 C14.7734867,23.3980039 14.767981,23.2657397 14.7556683,23.1159006 C14.7299418,22.8033675 14.8647807,22.9571233 15.0231438,23.2935584 L18.345666,23.5255479 Z" id="Fill-136" fill="#EE8B7C"></path>
                                        <path d="M17.8928596,26.8918569 L17.8928596,26.8918569 C17.2599077,27.2245761 16.4705947,26.977221 16.1389531,26.3421119 L10.4209636,15.3925065 C10.0894221,14.7574979 10.8169715,14.9363608 11.4501236,14.6036416 L11.6647447,14.5362542 C12.2976966,14.203535 12.391293,13.5475368 12.7229346,14.1826459 L18.4409242,25.1322513 C18.7724656,25.7673603 18.5259117,26.5591376 17.8928596,26.8918569" id="Fill-138" fill="#FFC873"></path>
                                        <path d="M16.0006707,26.309784 C15.6424017,25.3840353 15.6947556,24.6828443 14.8809173,23.4136305 C14.0671792,22.1444167 12.9788582,20.595309 12.9276054,19.6222585 C12.8762525,18.6493084 13.7373395,17.9846734 14.8253601,19.2005597 C15.9133808,20.4164461 16.220397,21.4672282 16.956355,22.4136652 C17.692213,23.3602026 18.5082535,23.4768 19.1176812,24.0655111 C19.727209,24.6542223 19.9958858,26.8462724 19.2183849,27.4973496 C18.440784,28.1484267 16.2671452,26.9984214 16.0006707,26.309784" id="Fill-142" fill="#F5B1A8"></path>
                                        <path d="M13.6715217,20.5191642 C13.2561939,19.7525944 13.0734056,19.1910994 13.432075,18.932898 C13.9309889,18.5737662 14.5945724,19.0188647 15.1149084,19.9574683 C14.8541398,20.4126097 13.9046618,20.8434474 13.8501056,20.8001628 C13.7956495,20.7568782 13.6715217,20.5191642 13.6715217,20.5191642" id="Fill-144" fill="#F5C5BF"></path>
                                        <path d="M14.7758792,22.2075159 C14.7758792,22.2075159 15.5496762,21.6185034 15.9219596,21.50281 C15.4776019,21.8160461 14.7758792,22.2075159 14.7758792,22.2075159" id="Fill-146" fill="#EE8B7C"></path>
                                        <path d="M14.9078551,22.4602539 C14.9078551,22.4602539 15.6816521,21.8712415 16.0539356,21.755548 C15.6095779,22.0687841 14.9078551,22.4602539 14.9078551,22.4602539" id="Fill-148" fill="#EE8B7C"></path>
                                        <path d="M1.89503188,11.4121584 C0.10408721,7.9826298 1.42354625,3.74595834 4.84186712,1.94919426 C8.2603882,0.152430189 12.4833378,1.47607618 14.2742825,4.90560479 C16.0652272,8.3351334 14.7457681,12.5719053 11.3274473,14.3686694 C7.90892619,16.165333 3.68597656,14.841687 1.89503188,11.4121584" id="Fill-150" fill-opacity="0" fill="#F5F5F5"></path>
                                        <path d="M2.72220387,11.6714645 C0.931259197,8.24193587 2.25061814,4.00516397 5.66903911,2.2083999 C7.24015736,1.38267779 8.98075017,1.21767397 10.5774948,1.61165449 C8.77103417,0.920104694 6.68928997,0.978152296 4.84188714,1.94919426 C1.42346617,3.74595834 0.10410723,7.9826298 1.8950519,11.4121584 C2.86284873,13.2655641 4.54137762,14.5022391 6.41891148,14.9655152 C4.88262911,14.3774066 3.54525161,13.2475874 2.72220387,11.6714645" id="Fill-152" fill="#E8E8E8"></path>
                                        <path d="M11.3274072,14.3686593 C7.90898626,16.165323 3.68593651,14.841677 1.89499184,11.4121484 C0.104147272,7.98261976 1.42350621,3.74594829 4.84192719,1.94918422 C8.26034816,0.152420146 12.4833979,1.47616657 14.2742425,4.90559475 C16.0651871,8.33512336 14.7457281,12.5718953 11.3274072,14.3686593 M4.34501537,0.997625358 C0.402854941,3.06976404 -1.11871227,7.95560453 0.946615013,11.9106748 C3.0119423,15.8657451 7.88205852,17.392156 11.824319,15.3201178 C15.7664795,13.2480795 17.2880467,8.36213859 15.2227194,4.40716872 C13.157292,0.45209842 8.28727589,-1.07431247 4.34501537,0.997625358" id="Fill-154" fill="#FFC873"></path>
                                        <path d="M13.4536172,15.5817939 L12.9488974,14.6153717 C12.6076459,14.8877334 12.2370642,15.1328791 11.8364515,15.3434774 C11.4500536,15.5465436 11.0531447,15.7077311 10.6508304,15.8324632 L11.1554501,16.7988854 C11.5545612,16.6641105 11.9484669,16.4971986 12.3333634,16.2950363 C12.7323743,16.0852414 13.1053585,15.845318 13.4536172,15.5817939" id="Fill-156" fill="#EAB063"></path>
                                    </g>
                                </g>
                            </g>
                        </g>
                    </g>
                </g>
            </g>
        </g>
    </g>
</svg>