<?xml version="1.0" encoding="UTF-8"?>
<svg width="50px" height="50px" viewBox="0 0 50 50" version="1.1" xmlns="http://www.w3.org/2000/svg" xmlns:xlink="http://www.w3.org/1999/xlink">
    <!-- Generator: Sketch 59.1 (86144) - https://sketch.com -->
    <title>ic-career</title>
    <desc>Created with Sketch.</desc>
    <defs>
        <circle id="path-1" cx="25" cy="25" r="25"></circle>
    </defs>
    <g id="Pages" stroke="none" stroke-width="1" fill="none" fill-rule="evenodd">
        <g id="X---Top-Nav-Menu" transform="translate(-194.000000, -271.000000)">
            <g id="Group-5" transform="translate(174.000000, 72.000000)">
                <g id="Group-4" transform="translate(20.000000, 39.000000)">
                    <g id="Group" transform="translate(0.000000, 160.000000)">
                        <g id="ic-career">
                            <mask id="mask-2" fill="white">
                                <use xlink:href="#path-1"></use>
                            </mask>
                            <use id="Mask" fill="#FFF5E8" xlink:href="#path-1"></use>
                            <g id="Group-137" mask="url(#mask-2)">
                                <g transform="translate(0.000000, 10.000000)">
                                    <path d="M26.5788089,18.1223625 C26.8397414,19.0955402 27.6908427,20.0151432 28.0451048,20.0520833 C28.4494181,20.0520833 28.8628003,19.9434426 29.1666667,19.6582464 C29.0333879,19.1612753 28.8706065,18.6473255 28.7372129,18.1503544 C28.6871616,17.9640476 28.635618,17.7740697 28.5283981,17.6135752 C28.3333588,17.3212662 27.9657804,17.1665077 27.6147326,17.189796 C27.2639145,17.2129697 26.9351373,17.399047 26.6996897,17.6601519 C26.5837452,17.7885246 26.5340383,17.9554435 26.5788089,18.1223625" id="Fill-1" stroke="none" fill="#F3B595" fill-rule="evenodd"></path>
                                    <path d="M27.4424592,15.3165723 C27.3893728,15.2029106 27.2968832,15.072024 27.1891672,15.1112783 C27.0804224,15.1508841 27.0729122,15.3211422 27.0908134,15.4495681 C27.1613894,15.9558897 27.2951342,16.4476814 27.4286732,16.9373639 C27.4745579,17.1059815 27.5217801,17.2770599 27.6084055,17.4232967 C27.6951338,17.5696507 27.8287757,17.6898743 27.9828908,17.7070993 C28.0039813,17.70956 28.0268208,17.7094428 28.0444134,17.6962018 C28.0598455,17.6846013 28.0687961,17.6646812 28.0759977,17.645347 C28.3020263,17.0396594 27.6864919,15.8397674 27.4424592,15.3165723" id="Fill-3" stroke="none" fill="#F2AC88" fill-rule="evenodd"></path>
                                    <path d="M27.1157955,16.9437219 C26.9434989,16.9961175 26.9081362,17.2313454 26.87707,17.2160909 C26.7172219,17.1377185 26.6456152,17.0285056 26.5436032,17.084328 C26.441371,17.1403715 26.4748609,17.3940594 26.3630443,17.4101981 C26.3139111,17.3290622 25.9943251,17.3557022 26.0476445,17.7046751 C26.1023961,18.0643703 26.3424436,18.5903168 26.6382342,18.4728134 C26.7254842,18.4382146 26.833445,18.3098783 26.8453427,18.2318375 C26.9075854,18.3147421 27.0097075,18.3832765 27.126812,18.3883613 C27.2439164,18.3935567 27.3669697,18.3170634 27.3666392,18.2193466 C27.5178945,18.3262382 27.5178945,18.3262382 27.8321926,18.2529505 C27.9541443,18.2244314 27.7352482,16.7555838 27.1157955,16.9437219" id="Fill-5" stroke="none" fill="#F2AC88" fill-rule="evenodd"></path>
                                    <path d="M28.6409776,18.2292062 C28.5417269,17.8600332 28.4318839,16.7626948 28.2088082,16.6790156 C27.9741869,16.5909734 27.2841988,16.9979586 27.1803935,17.1322033 C27.0763762,17.2666717 27.041845,17.4777715 27.1475571,17.6105619 C27.2304954,17.7143778 27.7384004,17.6089957 27.8463368,17.5351611 C27.7217703,17.6670565 27.6467762,18.8281612 28.1886827,18.7458245 C28.3640926,18.7191993 28.6893848,18.409094 28.6409776,18.2292062" id="Fill-7" stroke="none" fill="#F3B595" fill-rule="evenodd"></path>
                                    <path d="M27.0833333,20.4234901 L29.067243,18.75 L32.2916667,24.7199953 C32.2916667,24.7199953 32.0323007,27.181731 30.4199087,27.3427791 C29.4608549,27.4385062 27.0833333,20.4234901 27.0833333,20.4234901" id="Fill-9" stroke="none" fill="#D8E4FF" fill-rule="evenodd"></path>
                                    <path d="M35.6770833,13.5416667 C35.6770833,13.5416667 31.9792049,15.2733577 31.6408946,16.2584071 C31.3025842,17.2432255 30.46875,25.9012186 30.46875,25.9012186 L32.7547217,26.5625 L35.6770833,13.5416667 Z" id="Fill-11" stroke="none" fill="#D8E4FF" fill-rule="evenodd"></path>
                                    <path d="M38.8047812,13.671835 C38.8047812,13.671835 43.4419484,14.1236501 44.1712476,14.6077461 C44.9006634,15.0918421 46.8928527,26.2656463 46.2160378,27.3665612 C45.4867387,28.5529389 41.4258496,28.6458333 41.4258496,28.6458333 L32.5683576,28.6458333 C32.5683576,28.6458333 32.4526588,15.2660192 32.8382438,15.0201973 C33.9212875,14.3298757 35.4579126,13.5416667 35.4579126,13.5416667 L38.8047812,13.671835 Z" id="Fill-13" stroke="none" fill="#EDF3FF" fill-rule="evenodd"></path>
                                    <polygon id="Fill-15" stroke="none" fill="#F38061" fill-rule="evenodd" points="36.8798152 14.5833333 35.6770833 15.2736974 36.3814284 16.1199501 35.6770833 28.6458333 39.0625 28.6458333 37.1561706 16.1199501 37.6543082 15.1321839"></polygon>
                                    <polyline id="Stroke-17" stroke-opacity="0.07" stroke="#2C1817" stroke-width="0.5" fill="none" points="34.6354167 13.9990082 35.4571438 15.625 36.8480128 14.8120041 37.9746331 15.625 39.5833333 13.8020833"></polyline>
                                    <path d="M35.4166667,13.2783872 L35.5185972,8.86732004 L38.3259354,7.29166667 L38.8020833,13.4078629 C38.8020833,13.4078629 36.7803421,14.9636502 35.4166667,13.2783872" id="Fill-19" stroke="none" fill="#F3B595" fill-rule="evenodd"></path>
                                    <path d="M38.0208333,9.63541667 C38.0208333,9.63541667 37.5282564,11.8221137 35.6770833,11.9791667 L35.7476237,9.64839722 L38.0208333,9.63541667 Z" id="Fill-21" stroke="none" fill="#F2AC88" fill-rule="evenodd"></path>
                                    <path d="M33.1024082,8.24329937 C33.4514698,11.9222552 34.33426,12.886903 36.579509,11.1244969 C37.8142735,10.1553224 38.698928,9.32837929 38.5182222,6.90472838 C38.395305,5.2554879 37.1956097,4.51312122 35.0463643,4.72194163 C33.334378,4.8883547 32.9533929,6.67327484 33.1024082,8.24329937" id="Fill-23" stroke="none" fill="#F3B595" fill-rule="evenodd"></path>
                                    <path d="M39.1477122,4.89180391 C39.0536332,4.5891554 38.8999055,4.27532356 38.6070744,4.12726111 C38.2066915,3.92467998 38.1100791,4.02952358 37.7007143,4.21078651 C37.7167205,3.81377876 37.4609682,3.44542826 37.1939312,3.41642153 C35.2172349,3.20184163 30.988284,4.15312253 30.7631622,4.66848705 C30.5395373,5.18035678 31.4840126,5.49383914 31.7064859,5.5418342 C31.5246612,5.53006842 31.0683145,5.75291931 30.9684779,5.89760347 C30.7751379,6.17811834 31.1406298,6.50068714 32.2300813,6.50604581 C31.6577767,6.88616209 32.2198328,7.33011647 33.2010415,7.01931346 C33.5584728,6.90608237 35.2130894,6.32920961 36.1890011,5.93266783 C36.8650575,5.65786112 37.6591445,5.98159484 37.8930179,6.64781765 C38.2644977,7.70592252 38.3540858,9.28475058 38.4308921,9.32109636 C38.9800512,9.58157445 39.2612519,8.87085136 39.296949,7.77546877 C39.3225127,6.99135516 39.381931,5.64516339 39.1477122,4.89180391" id="Fill-25" stroke="none" fill="#F38061" fill-rule="evenodd"></path>
                                    <path d="M35.4166782,7.48676712 C35.4140946,7.62049128 35.8480125,7.77821722 36.1063669,7.80736223 C36.3646038,7.83650724 36.4557325,7.73800645 36.458316,7.60428229 C36.461017,7.47055813 36.1474687,7.32654749 35.8891143,7.29740248 C35.6308774,7.26825747 35.4192617,7.35304295 35.4166782,7.48676712" id="Fill-27" stroke="none" fill="#2C1817" fill-rule="evenodd"></path>
                                    <path d="M35.4174394,8.32693069 C35.409678,8.47064712 35.4612612,8.59012498 35.5326658,8.5936693 C35.6040703,8.59721362 35.6685493,8.48356674 35.6763106,8.33985031 C35.684072,8.19601954 35.6324888,8.07665602 35.5609649,8.07299737 C35.4895604,8.06945305 35.4252008,8.18309993 35.4174394,8.32693069" id="Fill-29" stroke="none" fill="#2C1817" fill-rule="evenodd"></path>
                                    <path d="M34.3749761,7.62391437 C34.3722753,7.77132443 33.9339206,7.83661094 33.6756989,7.8044831 C33.4174771,7.77235527 33.3305812,7.64178225 33.3333994,7.49437219 C33.3359828,7.34696213 33.65374,7.26655664 33.9120792,7.29868447 C34.1704184,7.33081231 34.3775595,7.4765043 34.3749761,7.62391437" id="Fill-31" stroke="none" fill="#2C1817" fill-rule="evenodd"></path>
                                    <path d="M34.1138106,8.33973601 C34.1060493,8.48345247 34.0416901,8.5972137 33.9701666,8.59366938 C33.8986431,8.59001073 33.8471796,8.47064718 33.8549409,8.3268164 C33.8627022,8.18309995 33.9270614,8.06945305 33.9984655,8.07299737 C34.0699891,8.07654169 34.121572,8.19601956 34.1138106,8.33973601" id="Fill-33" stroke="none" fill="#2C1817" fill-rule="evenodd"></path>
                                    <path d="M34.8029123,8.07291667 C34.7425044,8.52332505 34.5939785,9.47795958 34.6464429,9.57035374 C34.6984454,9.66201211 34.8447545,9.65192128 34.8958333,9.5707742" id="Stroke-35" stroke="#2C1817" stroke-width="0.5" fill="none"></path>
                                    <path d="M35.15625,10.15625 C35.15625,10.15625 34.9926081,10.4025475 34.7871635,10.4159177 C34.5818465,10.4292878 34.375,10.2592331 34.375,10.2592331" id="Stroke-37" stroke="#2C1817" stroke-width="0.5" fill="none"></path>
                                    <path d="M38.28125,7.59570774 C38.28125,8.02649679 38.6310532,8.35617765 39.0624428,8.33209345 C39.4939468,8.30800925 39.84375,7.93913477 39.84375,7.50834572 C39.84375,7.07755667 39.4939468,6.74798942 39.0624428,6.77207361 C38.6310532,6.79615781 38.28125,7.16491869 38.28125,7.59570774" id="Fill-39" stroke="none" fill="#F3B595" fill-rule="evenodd"></path>
                                    <path d="M39.3229167,7.29529488 C38.9378462,7.26831613 38.5408606,7.39320526 38.28125,7.62286187 C38.5331508,7.60667462 38.8108445,7.68075377 39.0027489,7.8125" id="Stroke-41" stroke="#2C1817" stroke-width="0.5" fill="none"></path>
                                    <path d="M36.4583333,26.8229167 L26.1751066,26.8229167 L24.5007629,21.319432 C24.4191103,21.0509776 24.5761345,20.8333333 24.8513341,20.8333333 L34.137864,20.8333333 C34.4131798,20.8333333 34.7024534,21.0509776 34.784106,21.319432 L36.4583333,26.8229167 Z" id="Fill-43" stroke="none" fill="#C1C6DB" fill-rule="evenodd"></path>
                                    <path d="M36.1979167,26.8229167 L26.1884218,26.8229167 L24.5009857,21.319432 C24.4185717,21.0509776 24.5768348,20.8333333 24.8542055,20.8333333 L33.8591401,20.8333333 C34.1365108,20.8333333 34.4281838,21.0509776 34.5103633,21.319432 L36.1979167,26.8229167 Z" id="Fill-45" stroke="none" fill="#D6D9E6" fill-rule="evenodd"></path>
                                    <path d="M30.1995849,27.6041667 L40.3733318,27.6041667 C40.5122269,27.6041667 40.625,27.4875657 40.625,27.3436904 C40.625,27.1998152 40.5122269,27.0833333 40.3733318,27.0833333 L30.1995849,27.0833333 C30.0605747,27.0833333 29.9479167,27.1998152 29.9479167,27.3436904 C29.9479167,27.4875657 30.0605747,27.6041667 30.1995849,27.6041667" id="Fill-47" stroke="none" fill="#C1C6DB" fill-rule="evenodd"></path>
                                    <path d="M26.2933376,27.6041667 L36.4670791,27.6041667 C36.6060907,27.6041667 36.71875,27.4875657 36.71875,27.3436904 C36.71875,27.1998152 36.6060907,27.0833333 36.4670791,27.0833333 L26.2933376,27.0833333 C26.1543259,27.0833333 26.0416667,27.1998152 26.0416667,27.3436904 C26.0416667,27.4875657 26.1543259,27.6041667 26.2933376,27.6041667" id="Fill-49" stroke="none" fill="#C1C6DB" fill-rule="evenodd"></path>
                                    <path d="M29.4488978,23.828125 C29.5408521,24.1876786 29.8970284,24.4791667 30.2445539,24.4791667 C30.5920793,24.4791667 30.7993771,24.1876786 30.707316,23.828125 C30.6154684,23.4685714 30.2591854,23.1770833 29.9116599,23.1770833 C29.5641344,23.1770833 29.3569434,23.4685714 29.4488978,23.828125" id="Fill-51" stroke="none" fill="#C1C6DB" fill-rule="evenodd"></path>
                                    <path d="M39.6983967,27.34375 L40.249376,27.34375 C40.313028,27.34375 40.3645833,27.2855718 40.3645833,27.2135417 C40.3645833,27.1416745 40.313028,27.0833333 40.249376,27.0833333 L39.6983967,27.0833333 C39.6348886,27.0833333 39.5833333,27.1416745 39.5833333,27.2135417 C39.5833333,27.2855718 39.6348886,27.34375 39.6983967,27.34375" id="Fill-53" stroke="none" fill="#5E5D5B" fill-rule="evenodd"></path>
                                    <path d="M39.0625,27.2135417 C39.0625,27.2854088 39.1206782,27.34375 39.1927083,27.34375 C39.2645755,27.34375 39.3229167,27.2854088 39.3229167,27.2135417 C39.3229167,27.1416745 39.2645755,27.0833333 39.1927083,27.0833333 C39.1206782,27.0833333 39.0625,27.1416745 39.0625,27.2135417" id="Fill-55" stroke="none" fill="#383837" fill-rule="evenodd"></path>
                                    <path d="M38.8020833,27.2135417 C38.8020833,27.2854088 38.8602615,27.34375 38.9322917,27.34375 C39.0041588,27.34375 39.0625,27.2854088 39.0625,27.2135417 C39.0625,27.1416745 39.0041588,27.0833333 38.9322917,27.0833333 C38.8602615,27.0833333 38.8020833,27.1416745 38.8020833,27.2135417" id="Fill-57" stroke="none" fill="#383837" fill-rule="evenodd"></path>
                                    <path d="M41.665245,28.5886095 C40.9745131,28.6457379 40.02313,28.6342034 39.7470541,28.6453026 C39.1270584,28.6702215 36.4735489,27.8102489 36.7370923,27.6168829 C36.8869999,27.5070876 37.2033243,27.5584488 37.3225032,27.6000165 C37.2915336,27.614489 37.2888825,27.4110031 37.3844426,27.3527866 C37.6235235,27.207082 38.4797081,27.7342954 39.7533203,27.6066542 C39.6105225,27.5463702 39.3227577,27.4103502 39.1748987,27.1145884 C39.0900635,26.9448355 39.2723868,26.7933637 39.3490277,26.8278584 C39.6499275,26.9634431 39.9380538,27.1086036 40.2429302,27.2367888 C40.5862476,27.3810787 40.8661795,27.5448468 41.5476326,27.6168829 C41.6133075,27.6238472 41.6770544,28.5875213 41.665245,28.5886095" id="Fill-59" stroke="none" fill="#F3B595" fill-rule="evenodd"></path>
                                    <path d="M43.4895833,15.3645833 C42.9891069,15.9075524 42.5817468,16.6183799 42.4774414,17.4248623 C42.4135306,17.9198884 42.4656833,18.4250807 42.517836,18.9221863 C42.7668415,21.2954234 43.015847,23.6685451 43.2649474,26.0416667" id="Stroke-61" stroke-opacity="0.07" stroke="#2C1817" stroke-width="0.5" fill="none"></path>
                                    <path d="M11.3336661,14.713728 C11.3336661,14.713728 8.2499049,16.1702864 7.57733594,16.8083013 C6.93458007,17.4179341 7.57733594,28.6458333 7.57733594,28.6458333 L19.0104167,28.6458333 C19.0104167,28.6458333 19.0104167,18.1761075 18.6648452,17.439337 C18.11981,16.2770681 14.7285718,14.5833333 14.7285718,14.5833333 L11.3336661,14.713728 Z" id="Fill-65" stroke="none" fill="#FFC873" fill-rule="evenodd"></path>
                                    <path d="M10.4166667,15.1041667 C10.4166667,15.1041667 11.3177077,18.6271131 11.4583333,28.6458333" id="Stroke-67" stroke="#EDF3FF" stroke-width="0.5" fill="none"></path>
                                    <path d="M15.3645833,14.84375 C15.3645833,14.84375 16.296779,15.3471709 16.1246179,28.6458333" id="Stroke-69" stroke="#EDF3FF" stroke-width="0.5" fill="none"></path>
                                    <path d="M17.1875,16.6666667 C17.1875,16.6666667 17.8927877,22.8464702 17.96875,28.6458333" id="Stroke-71" stroke="#EDF3FF" stroke-width="0.5" fill="none"></path>
                                    <path d="M11.1979167,14.713728 C11.1979167,14.713728 12.0826013,20.0276885 12.0166217,28.6458333 L15.3023611,28.6458333 C15.3023611,28.6458333 15.6897591,19.5482176 14.5312822,14.5833333 L11.1979167,14.713728 Z" id="Fill-73" stroke="none" fill="#EDF3FF" fill-rule="evenodd"></path>
                                    <path d="M12.7038901,1.76666759 C13.4265049,3.03322449 12.8716608,4.72641109 11.4646723,5.54852274 C10.0576839,6.37063438 8.33124327,6.01031163 7.60862854,4.74363674 C6.88601381,3.47707983 7.44074128,1.78389323 8.84796293,0.961899573 C10.2549514,0.139787927 11.981392,0.500110683 12.7038901,1.76666759" id="Fill-75" stroke="none" fill="#F38061" fill-rule="evenodd"></path>
                                    <path d="M13.8484485,4.24446173 C14.3881096,5.17532754 13.8721712,6.47807424 12.6960887,7.1542319 C11.5198893,7.83038955 10.1289006,7.6238537 9.58912272,6.69298789 C9.04934479,5.76212208 9.56528321,4.45937537 10.7413657,3.78321772 C11.9176819,3.10717642 13.3086706,3.31359592 13.8484485,4.24446173" id="Fill-77" stroke="none" fill="#FFCC8A" fill-rule="evenodd"></path>
                                    <path d="M17.1875,7.94270833 C17.1875,10.315856 15.3220303,12.2395833 13.0208916,12.2395833 C10.7196364,12.2395833 8.85416667,10.315856 8.85416667,7.94270833 C8.85416667,5.56956063 10.7196364,3.64583333 13.0208916,3.64583333 C15.3220303,3.64583333 17.1875,5.56956063 17.1875,7.94270833" id="Fill-79" stroke="none" fill="#F38061" fill-rule="evenodd"></path>
                                    <path d="M18.75,8.07297525 C18.75,9.94262551 17.5841183,11.4583333 16.1459496,11.4583333 C14.7075483,11.4583333 13.5416667,9.94262551 13.5416667,8.07297525 C13.5416667,6.20320782 14.7075483,4.6875 16.1459496,4.6875 C17.5841183,4.6875 18.75,6.20320782 18.75,8.07297525" id="Fill-81" stroke="none" fill="#F38061" fill-rule="evenodd"></path>
                                    <path d="M14.5833333,14.5804705 L14.4814028,10.1694034 L11.6741826,8.59375 L11.1979167,14.7099462 C11.1979167,14.7099462 13.2196579,16.2657335 14.5833333,14.5804705" id="Fill-83" stroke="none" fill="#F3B595" fill-rule="evenodd"></path>
                                    <path d="M12.5,10.6770833 C12.5,10.6770833 12.5139037,12.3406342 14.3229167,12.5 L14.3229167,10.6770833 L12.5,10.6770833 Z" id="Fill-85" stroke="none" fill="#F2AC88" fill-rule="evenodd"></path>
                                    <path d="M16.643353,9.02404764 C16.2913912,12.628726 15.2369152,12.2181167 13.5149214,11.4844356 C12.228975,10.9364507 11.4328626,9.50095206 11.8147711,8.01421481 C12.1966796,6.52747756 13.5769287,5.67077703 14.8977542,6.10052789 C16.2186971,6.53027876 16.7935562,7.48572162 16.643353,9.02404764" id="Fill-87" stroke="none" fill="#F3B595" fill-rule="evenodd"></path>
                                    <path d="M11.9791667,8.63737422 C11.9791667,9.06816338 11.6293379,9.39784432 11.1979167,9.37376012 C10.766381,9.34967591 10.4166667,8.98091494 10.4166667,8.55012578 C10.4166667,8.11933662 10.766381,7.78965568 11.1979167,7.81373988 C11.6293379,7.83782409 11.9791667,8.20658506 11.9791667,8.63737422" id="Fill-89" stroke="none" fill="#F3B595" fill-rule="evenodd"></path>
                                    <path d="M10.6770833,8.33696076 C11.0621538,8.30998783 11.4591394,8.43485002 11.71875,8.66445707 C11.4669894,8.64827331 11.1891555,8.72233648 10.9972511,8.85416667" id="Stroke-91" stroke="#2C1817" stroke-width="0.5" fill="none"></path>
                                    <path d="M14.5831943,7.89046207 C14.5921815,7.95272105 14.1633962,8.04281789 13.90525,8.06632959 C13.6469855,8.08984129 13.5508458,8.04752023 13.5418586,7.98526125 C13.5328714,7.92300227 13.8412751,7.84381486 14.0994214,7.82030316 C14.3576859,7.79679146 14.5743253,7.82820309 14.5831943,7.89046207" id="Fill-93" stroke="none" fill="#2C1817" fill-rule="evenodd"></path>
                                    <path d="M14.8400855,9.10040845 C14.8569888,9.24399374 14.8137914,9.36668973 14.7439476,9.3746093 C14.6739865,9.3824141 14.6036733,9.27234352 14.5870047,9.12875822 C14.5701013,8.98517292 14.6131814,8.86236216 14.6830251,8.85455736 C14.7529862,8.84675257 14.8232995,8.95682315 14.8400855,9.10040845" id="Fill-95" stroke="none" fill="#2C1817" fill-rule="evenodd"></path>
                                    <path d="M15.885705,7.74206857 C15.8945687,7.81400439 16.3376374,7.82639213 16.5957494,7.79922603 C16.8537433,7.77205994 16.9354078,7.7044707 16.9264259,7.63253489 C16.917444,7.56070773 16.594804,7.53560626 16.3366919,7.56277236 C16.0786981,7.58993845 15.8767231,7.67013276 15.885705,7.74206857" id="Fill-97" stroke="none" fill="#2C1817" fill-rule="evenodd"></path>
                                    <path d="M15.8890816,8.8683472 C15.9058675,9.01193545 15.9760634,9.12189352 16.0460245,9.11420334 C16.1159856,9.10628361 16.1590657,8.98358509 16.1421623,8.83999684 C16.1253764,8.69640859 16.0550631,8.58633575 15.985102,8.5941407 C15.9153757,8.60194566 15.8721782,8.72475895 15.8890816,8.8683472" id="Fill-99" stroke="none" fill="#2C1817" fill-rule="evenodd"></path>
                                    <path d="M15.3759486,8.59375 C15.4623624,9.04054506 15.6659043,9.98580609 15.6177193,10.0820827 C15.5700038,10.1776211 15.4209401,10.177832 15.3645833,10.1001148" id="Stroke-101" stroke="#2C1817" stroke-width="0.5" fill="none"></path>
                                    <path d="M14.84375,10.6770833 C14.84375,10.6770833 15.0233768,10.9349525 15.2276706,10.9374759 C15.4319645,10.9399993 15.625,10.743293 15.625,10.743293" id="Stroke-103" stroke="#2C1817" stroke-width="0.5" fill="none"></path>
                                    <path d="M16.6666667,6.07216881 C16.6666667,6.07216881 15.04235,7.58411335 13.4664775,7.69825011 L11.8904851,7.8125 C11.8904851,7.8125 11.3669529,6.12284599 12.1480542,5.61607422 C12.9292755,5.10941557 16.6666667,6.07216881 16.6666667,6.07216881" id="Fill-105" stroke="none" fill="#F38061" fill-rule="evenodd"></path>
                                    <path d="M11.1979167,16.0385076 C11.1979167,16.0385076 12.2866667,16.8068804 13.1054861,16.6440008 C13.9243056,16.4809779 14.5833333,15.625 14.5833333,15.625" id="Stroke-107" stroke="#D9A350" stroke-width="0.5" fill="none" stroke-linecap="round" stroke-linejoin="round"></path>
                                    <polygon id="Fill-109" stroke="none" fill="#F5A345" fill-rule="evenodd" points="23.6979167 21.3541667 18.0015915 21.3541667 13.8020833 28.6458333 19.225088 28.6458333"></polygon>
                                    <path d="M10.2454588,25.5208333 C10.5978811,25.4565917 14.3744207,23.9348526 14.726843,23.870734 C14.6656166,23.9257455 14.6755359,24.0253077 14.7429192,24.0694893 C14.9078998,24.1775432 15.755834,23.6162288 15.7369074,23.4252269 C15.7218573,23.2738529 15.6405642,23.0661137 15.5569907,22.9419378 C15.8540015,22.9688897 16.172105,22.9900575 16.4720802,22.9900575 C16.8347639,22.9900575 16.915943,22.9403379 16.9270025,22.7645964 C16.9342995,22.6464509 16.4466547,22.5820862 15.8210509,22.4833854 C15.559157,22.4420345 15.1398076,22.3273349 14.9032252,22.4529876 C13.1542255,23.3823991 10.1032813,24.083396 9.47459918,24.261968 C9.20996891,24.7525181 9.47459918,25.5208333 10.2454588,25.5208333" id="Fill-111" stroke="none" fill="#F3B595" fill-rule="evenodd"></path>
                                    <path d="M7.66442149,16.6666667 C7.66442149,16.6666667 6.24392676,17.589559 4.95426244,26.5310283 C4.73210864,28.0712466 10.4166667,25.9011992 10.4166667,25.9011992 L10.1908787,24.1541539 L7.68224068,24.7055757 L7.66442149,16.6666667 Z" id="Fill-113" stroke="none" fill="#FFC873" fill-rule="evenodd"></path>
                                    <path d="M8.94641598,23.9736603 L10.2778393,23.6979167 L10.9375,26.1694669 L9.37311686,26.5625 C9.37311686,26.5625 8.59198981,25.9039847 8.94641598,23.9736603" id="Fill-115" stroke="none" fill="#EDF3FF" fill-rule="evenodd"></path>
                                    <line x1="6.77083333" y1="24.7395833" x2="10.15625" y2="24.21875" id="Stroke-117" stroke="#EDF3FF" stroke-width="0.5" fill="none"></line>
                                    <path d="M7.8125,17.1875 C8.51530772,17.7729273 9.2708697,18.4525002 9.37206935,19.3692681 C9.4334413,19.9268179 8.51635582,23.1602526 7.98625131,24.7395833" id="Stroke-119" stroke="#EDF3FF" stroke-width="0.5" fill="none"></path>
                                    <polygon id="Fill-121" stroke="none" fill="#E59840" fill-rule="evenodd" points="24.21875 21.3541667 18.5223066 21.3541667 14.3229167 28.6458333 19.7459213 28.6458333"></polygon>
                                    <path d="M20.781868,27.0833333 C20.781868,27.0833333 21.6378932,26.640523 21.9142391,26.1614391 C22.1906948,25.6824694 22.129699,25.3331944 22.129699,24.9860868 C22.129699,24.7179139 21.524678,23.3098637 21.2815726,23.4468589 C21.1006697,23.5488353 21.4473363,24.3858632 21.4473363,24.3858632 C21.4473363,24.3858632 21.0051169,23.4632846 20.8208132,23.6274279 C20.6365094,23.7917992 21.1709903,24.864833 21.1709903,24.864833 C21.1709903,24.864833 20.728771,24.1175762 20.5443575,24.2900464 C20.3600538,24.4624025 20.9312857,25.2239177 20.9312857,25.2239177 C20.9312857,25.2239177 20.5013533,24.6923628 20.3294462,24.8967719 C20.1574293,25.101181 21.3516738,26.1134167 21.3516738,26.1134167 L20.781868,27.0833333 Z" id="Fill-123" stroke="none" fill="#F3B595" fill-rule="evenodd"></path>
                                    <polygon id="Fill-125" stroke="none" fill="#CC9033" fill-rule="evenodd" points="0 30.2083333 50 30.2083333 50 28.6458333 0 28.6458333"></polygon>
                                    <path d="M22.389637,5.46875 L19.7977468,5.46875 C18.4999424,5.46875 17.4479167,4.41783525 17.4479167,3.12128529 L17.4479167,2.34734863 C17.4479167,1.05091475 18.4999424,0 19.7977468,0 L22.389637,0 C23.6874414,0 24.7395833,1.05091475 24.7395833,2.34734863 L24.7395833,3.12128529 C24.7395833,4.41783525 23.6874414,5.46875 22.389637,5.46875" id="Fill-127" stroke="none" fill="#FFFFFF" fill-rule="evenodd"></path>
                                    <path d="M19.3955004,6.21053905 C19.6292251,6.03574718 19.8108796,5.81245471 19.9199905,5.54398198 C20.2408147,4.75409821 19.8467371,3.80341541 19.0104167,3.125 C19.3076909,3.13543534 19.6220063,3.20006327 19.9325348,3.32659171 C20.9789116,3.75337323 21.5798505,4.70820645 21.2747657,5.45919488 C21.0249465,6.07428677 20.2446017,6.36113992 19.3955004,6.21053905" id="Fill-128" stroke="none" fill="#FFFFFF" fill-rule="evenodd"></path>
                                    <path d="M19.2708333,2.86458333 C19.2708333,3.15219923 19.0375057,3.38541667 18.749929,3.38541667 C18.4623523,3.38541667 18.2291667,3.15219923 18.2291667,2.86458333 C18.2291667,2.57696743 18.4623523,2.34375 18.749929,2.34375 C19.0375057,2.34375 19.2708333,2.57696743 19.2708333,2.86458333" id="Fill-129" stroke="none" fill="#FFC873" fill-rule="evenodd"></path>
                                    <path d="M21.3541667,2.86458333 C21.3541667,3.15219923 21.120981,3.38541667 20.8332623,3.38541667 C20.5456856,3.38541667 20.3125,3.15219923 20.3125,2.86458333 C20.3125,2.57696743 20.5456856,2.34375 20.8332623,2.34375 C21.120981,2.34375 21.3541667,2.57696743 21.3541667,2.86458333" id="Fill-130" stroke="none" fill="#FFC873" fill-rule="evenodd"></path>
                                    <path d="M23.6979167,2.86458333 C23.6979167,3.15219923 23.464731,3.38541667 23.1771543,3.38541667 C22.8895777,3.38541667 22.65625,3.15219923 22.65625,2.86458333 C22.65625,2.57696743 22.8895777,2.34375 23.1771543,2.34375 C23.464731,2.34375 23.6979167,2.57696743 23.6979167,2.86458333" id="Fill-131" stroke="none" fill="#FFC873" fill-rule="evenodd"></path>
                                    <path d="M26.8377629,11.71875 L29.1518205,11.71875 C30.3106788,11.71875 31.25,10.7678018 31.25,9.59485773 L31.25,8.89472561 C31.25,7.72166576 30.3106788,6.77083333 29.1518205,6.77083333 L26.8377629,6.77083333 C25.6790189,6.77083333 24.7395833,7.72166576 24.7395833,8.89472561 L24.7395833,9.59485773 C24.7395833,10.7678018 25.6790189,11.71875 26.8377629,11.71875" id="Fill-132" stroke="none" fill="#FFA63E" fill-rule="evenodd"></path>
                                    <path d="M29.3452583,12.4638476 C29.1376177,12.3035578 28.9760036,12.0989428 28.8790814,11.8527579 C28.59388,11.128579 28.9441213,10.2571683 29.6875,9.63541667 C29.4233988,9.64500051 29.1438782,9.70406092 28.8679516,9.82026499 C27.9376848,10.2114055 27.4035697,11.0866497 27.674743,11.775009 C27.8968755,12.3388982 28.5904019,12.6018549 29.3452583,12.4638476" id="Fill-133" stroke="none" fill="#FFA63E" fill-rule="evenodd"></path>
                                    <path d="M29.4270833,9.24479167 C29.4270833,9.46052747 29.6018814,9.63541667 29.8176496,9.63541667 C30.0335352,9.63541667 30.2083333,9.46052747 30.2083333,9.24479167 C30.2083333,9.02905586 30.0335352,8.85416667 29.8176496,8.85416667 C29.6018814,8.85416667 29.4270833,9.02905586 29.4270833,9.24479167" id="Fill-134" stroke="none" fill="#FFFFFF" fill-rule="evenodd"></path>
                                    <path d="M27.6041667,9.24479167 C27.6041667,9.46052747 27.7790559,9.63541667 27.9947917,9.63541667 C28.2105275,9.63541667 28.3854167,9.46052747 28.3854167,9.24479167 C28.3854167,9.02905586 28.2105275,8.85416667 27.9947917,8.85416667 C27.7790559,8.85416667 27.6041667,9.02905586 27.6041667,9.24479167" id="Fill-135" stroke="none" fill="#FFFFFF" fill-rule="evenodd"></path>
                                    <path d="M25.5208333,9.24479167 C25.5208333,9.46052747 25.6957488,9.63541667 25.911517,9.63541667 C26.1272852,9.63541667 26.3020833,9.46052747 26.3020833,9.24479167 C26.3020833,9.02905586 26.1272852,8.85416667 25.911517,8.85416667 C25.6957488,8.85416667 25.5208333,9.02905586 25.5208333,9.24479167" id="Fill-136" stroke="none" fill="#FFFFFF" fill-rule="evenodd"></path>
                                </g>
                            </g>
                        </g>
                    </g>
                </g>
            </g>
        </g>
    </g>
</svg>