<?xml version="1.0" encoding="UTF-8"?>
<svg width="24px" height="24px" viewBox="0 0 24 24" version="1.1" xmlns="http://www.w3.org/2000/svg" xmlns:xlink="http://www.w3.org/1999/xlink">
    <!-- Generator: Sketch 60.1 (88133) - https://sketch.com -->
    <title>Artboard</title>
    <desc>Created with Sketch.</desc>
    <g id="Artboard" stroke="none" stroke-width="1" fill="none" fill-rule="evenodd">
        <path d="M11.9944531,2.00554688 C8.8084375,2.00554688 6.21640625,4.59757813 6.21640625,7.78359375 C6.21640625,9.75703125 7.21113281,11.5022656 8.72523437,12.5450781 C7.3115625,13.0328906 6.01585938,13.83875 4.92730469,14.9272656 C3.03960938,16.8150391 2,19.3248438 2,21.9944531 L3.56164062,21.9944531 C3.56164062,17.3445703 7.34457031,13.5616406 11.9944531,13.5616406 C15.1804688,13.5616406 17.7725,10.9696484 17.7725,7.78359375 C17.7725,4.59757813 15.1804688,2.00554688 11.9944531,2.00554688 Z M11.9944531,12 C9.66953125,12 7.77804687,10.1085547 7.77804687,7.78359375 C7.77804687,5.45863281 9.66953125,3.5671875 11.9944531,3.5671875 C14.319375,3.5671875 16.2108594,5.45863281 16.2108594,7.78359375 C16.2108594,10.1085547 14.319375,12 11.9944531,12 Z" id="Shape" stroke="#2C3035" stroke-width="0.5" fill="#2C3035" fill-rule="nonzero"></path>
        <path d="M17.9964066,14.0181109 C18.6411704,14.0181109 19.2161191,14.3507598 19.5343943,14.9113347 L19.5343943,14.9113347 L22.75,20.4801232 C23.0703285,21.034538 23.0682752,21.6977823 22.7458932,22.2542505 C22.4214579,22.8148255 21.8444559,23.1495277 21.2017454,23.1495277 L21.2017454,23.1495277 L14.7787474,23.1495277 C14.1380903,23.1495277 13.5651951,22.8189322 13.2448665,22.2686242 C12.9204312,21.7121561 12.9183778,21.0448049 13.2387064,20.48423 L13.2387064,20.48423 L16.4584189,14.9092813 C16.776694,14.3528131 17.3516427,14.0181109 17.9964066,14.0181109 Z M17.9943532,20.4349487 C17.7150924,20.4349487 17.4810062,20.6690349 17.4810062,20.9482957 C17.4810062,21.2275565 17.7150924,21.4616427 17.9943532,21.4616427 C18.263347,21.4616427 18.5077002,21.2275565 18.4953799,20.960616 C18.5077002,20.6669815 18.2756674,20.4349487 17.9943532,20.4349487 Z M17.9584028,16.8177531 L17.8670431,16.8312526 C17.6226899,16.9010678 17.4707392,17.1228337 17.4707392,17.3918275 L17.4707392,17.3918275 L17.5056468,17.8805339 L17.5580082,18.8014784 L17.5580082,18.8014784 L17.6103696,19.722423 C17.6226899,19.9318686 17.7849076,20.0838193 17.9943532,20.0838193 C18.2037988,20.0838193 18.3680698,19.9216016 18.3783368,19.7101027 C18.3783368,19.5827926 18.3783368,19.4657495 18.3906571,19.336386 L18.4255647,18.7419302 L18.4255647,18.7419302 L18.4604723,18.1474743 C18.4727926,17.8908008 18.4953799,17.6341273 18.5077002,17.3774538 C18.5077002,17.2850513 18.4953799,17.2029158 18.4604723,17.1207803 C18.3557495,16.8908008 18.1113963,16.7737577 17.8670431,16.8312526 Z" id="Combined-Shape" fill="#2C3035" fill-rule="nonzero"></path>
    </g>
</svg>