<?xml version="1.0" encoding="UTF-8"?>
<svg width="15px" height="24px" viewBox="0 0 15 24" version="1.1" xmlns="http://www.w3.org/2000/svg" xmlns:xlink="http://www.w3.org/1999/xlink">
    <!-- Generator: Sketch 59.1 (86144) - https://sketch.com -->
    <title>businessman</title>
    <desc>Created with Sketch.</desc>
    <g id="Page-1" stroke="none" stroke-width="1" fill="none" fill-rule="evenodd">
        <g id="businessman" fill="#2C3035" fill-rule="nonzero">
            <path d="M7.5,10.78125 C10.4723906,10.78125 12.890625,8.36301563 12.890625,5.390625 C12.890625,2.41823437 10.4723906,0 7.5,0 C4.52760937,0 2.109375,2.41823437 2.109375,5.390625 C2.109375,8.36301563 4.52760937,10.78125 7.5,10.78125 Z" id="Path"></path>
            <path d="M8.671875,12.0860625 C8.2910625,12.1525313 7.8995625,12.1875 7.5,12.1875 C7.1004375,12.1875 6.7089375,12.1525313 6.328125,12.0860625 L6.328125,14.0625 L6.74709375,14.0625 L6.349875,19.4648438 L7.5,20.6150156 L8.65017187,19.4648438 L8.25295312,14.0625 L8.671875,14.0625 L8.671875,12.0860625 Z" id="Path"></path>
            <path d="M12.2355,10.2612656 C11.6179219,10.861875 10.887,11.3462813 10.078125,11.6791406 L10.078125,14.0625 L9.66295313,14.0625 L10.0998281,20.0039062 L7.5,22.6037344 L4.90017188,20.0039062 L5.33704688,14.0625 L4.921875,14.0625 L4.921875,11.6791406 C4.11304688,11.3463281 3.38207813,10.861875 2.7645,10.2612656 C1.10592188,11.2972031 0,13.1389219 0,15.234375 L0,24 L15,24 L15,15.234375 C15,13.1389219 13.8940781,11.2972031 12.2355,10.2612656 Z" id="Path"></path>
        </g>
    </g>
</svg>