<?xml version="1.0" encoding="UTF-8"?>
<svg width="48px" height="48px" viewBox="0 0 48 48" version="1.1" xmlns="http://www.w3.org/2000/svg" xmlns:xlink="http://www.w3.org/1999/xlink">
    <!-- Generator: Sketch 58 (84663) - https://sketch.com -->
    <title>emoji_4</title>
    <desc>Created with Sketch.</desc>
    <defs>
        <polygon id="path-1" points="0 0.125612308 47.136 0.125612308 47.136 47.2615385 0 47.2615385"></polygon>
    </defs>
    <g id="Website---Inner-Pages" stroke="none" stroke-width="1" fill="none" fill-rule="evenodd">
        <g id="Interview/Feedback-Form-Option-1" transform="translate(-574.000000, -271.000000)">
            <g id="emoji_4" transform="translate(574.000000, 271.000000)">
                <g id="Group-3" transform="translate(0.000000, 0.612628)">
                    <mask id="mask-2" fill="white">
                        <use xlink:href="#path-1"></use>
                    </mask>
                    <g id="Clip-2"></g>
                    <path d="M47.136,23.6936123 C47.136,36.7097354 36.5841231,47.2616123 23.568,47.2616123 C10.5511385,47.2616123 0,36.7097354 0,23.6936123 C0,10.6774892 10.5511385,0.125612308 23.568,0.125612308 C36.5841231,0.125612308 47.136,10.6774892 47.136,23.6936123" id="Fill-1" fill="#FFD21F" mask="url(#mask-2)"></path>
                </g>
                <path d="M12.8394092,24.6488123 L12.8394092,24.6488123 C11.8978708,24.6488123 11.1276554,23.8785969 11.1276554,22.9370585 L11.1276554,18.82752 C11.1276554,17.88672 11.8978708,17.1157662 12.8394092,17.1157662 C13.7802092,17.1157662 14.5511631,17.88672 14.5511631,18.82752 L14.5511631,22.9370585 C14.5511631,23.8785969 13.7802092,24.6488123 12.8394092,24.6488123" id="Fill-4" fill="#403408"></path>
                <path d="M34.2965908,24.6488123 L34.2965908,24.6488123 C33.3550523,24.6488123 32.5848369,23.8785969 32.5848369,22.9370585 L32.5848369,18.82752 C32.5848369,17.88672 33.3550523,17.1157662 34.2965908,17.1157662 C35.2381292,17.1157662 36.0083446,17.88672 36.0083446,18.82752 L36.0083446,22.9370585 C36.0083446,23.8785969 35.2381292,24.6488123 34.2965908,24.6488123" id="Fill-6" fill="#403408"></path>
                <path d="M23.5304862,37.9461415 C17.5105477,37.9461415 14.6423631,33.3152492 13.9666708,30.8665108 C13.7909169,30.22848 14.1653169,29.5682954 14.8040862,29.3925415 C15.4421169,29.2167877 16.1008246,29.5919262 16.2773169,30.2292185 C16.3378708,30.4418954 17.8568862,35.5498338 23.5304862,35.5498338 C29.2122092,35.5498338 30.7976862,30.3857723 30.8634092,30.1657108 C31.0495015,29.5321108 31.7133785,29.1665723 32.34624,29.3504492 C32.9805785,29.5335877 33.3475938,30.1937723 33.1659323,30.8281108 C32.4629169,33.2901415 29.5437785,37.9461415 23.5304862,37.9461415" id="Fill-8" fill="#403408"></path>
            </g>
        </g>
    </g>
</svg>