<?xml version="1.0" encoding="UTF-8"?>
<svg width="48px" height="48px" viewBox="0 0 48 48" version="1.1" xmlns="http://www.w3.org/2000/svg" xmlns:xlink="http://www.w3.org/1999/xlink">
    <!-- Generator: Sketch 58 (84663) - https://sketch.com -->
    <title>emoji_3</title>
    <desc>Created with Sketch.</desc>
    <defs>
        <polygon id="path-1" points="0.000295384615 0.12576 47.1355569 0.12576 47.1355569 47.2615385 0.000295384615 47.2615385"></polygon>
    </defs>
    <g id="Website---Inner-Pages" stroke="none" stroke-width="1" fill="none" fill-rule="evenodd">
        <g id="Interview/Feedback-Form-Option-1" transform="translate(-506.000000, -271.000000)">
            <g id="emoji_3" transform="translate(506.000000, 271.000000)">
                <g id="Group-3" transform="translate(0.000000, 0.612628)">
                    <mask id="mask-2" fill="white">
                        <use xlink:href="#path-1"></use>
                    </mask>
                    <g id="Clip-2"></g>
                    <path d="M47.1355569,23.69376 C47.1355569,36.7098831 36.58368,47.26176 23.5675569,47.26176 C10.5514338,47.26176 0.000295384615,36.7098831 0.000295384615,23.69376 C0.000295384615,10.6776369 10.5514338,0.12576 23.5675569,0.12576 C36.58368,0.12576 47.1355569,10.6776369 47.1355569,23.69376" id="Fill-1" fill="#FFD21F" mask="url(#mask-2)"></path>
                </g>
                <path d="M12.8388923,25.7584246 L12.8388923,25.7584246 C11.8980923,25.7584246 11.1271385,24.9882092 11.1271385,24.0466708 L11.1271385,19.9378708 C11.1271385,18.9963323 11.8980923,18.2253785 12.8388923,18.2253785 C13.7804308,18.2253785 14.5506462,18.9963323 14.5506462,19.9378708 L14.5506462,24.0466708 C14.5506462,24.9882092 13.7804308,25.7584246 12.8388923,25.7584246" id="Fill-4" fill="#403408"></path>
                <path d="M34.2968123,25.7584246 L34.2968123,25.7584246 C33.3552738,25.7584246 32.5850585,24.9882092 32.5850585,24.0466708 L32.5850585,19.9378708 C32.5850585,18.9963323 33.3552738,18.2253785 34.2968123,18.2253785 C35.2376123,18.2253785 36.0078277,18.9963323 36.0078277,19.9378708 L36.0078277,24.0466708 C36.0078277,24.9882092 35.2376123,25.7584246 34.2968123,25.7584246" id="Fill-6" fill="#403408"></path>
                <path d="M37.0639015,32.0663631 L10.0716554,32.0663631 C9.50525538,32.0663631 9.04519385,31.6063015 9.04519385,31.0391631 C9.04519385,30.4720246 9.50525538,30.0119631 10.0716554,30.0119631 L37.0639015,30.0119631 C37.63104,30.0119631 38.0911015,30.4720246 38.0911015,31.0391631 C38.0911015,31.6063015 37.63104,32.0663631 37.0639015,32.0663631" id="Fill-8" fill="#403408"></path>
            </g>
        </g>
    </g>
</svg>