<?xml version="1.0" encoding="UTF-8"?>
<svg width="25px" height="25px" viewBox="0 0 25 25" version="1.1" xmlns="http://www.w3.org/2000/svg" xmlns:xlink="http://www.w3.org/1999/xlink">
    <!-- Generator: Sketch 51.3 (57544) - http://www.bohemiancoding.com/sketch -->
    <title>Artboard 2</title>
    <desc>Created with Sketch.</desc>
    <defs></defs>
    <g id="Artboard-2" stroke="none" stroke-width="1" fill="none" fill-rule="evenodd">
        <g id="export" transform="translate(4.000000, 5.000000)" fill="#2C3035" fill-rule="nonzero">
            <path d="M4.515625,4.78125 L7.171875,2.65625 L2.131375,2.65625 C0.954125,2.65625 0,3.6125 0,4.77275 L0,12.22725 C0,13.396 0.9530625,14.34375 2.131375,14.34375 L12.743625,14.34375 C13.920875,14.34375 14.875,13.3875 14.875,12.22725 L14.875,8.39375 L12.75,10.09375 L12.75,12.21875 L2.125,12.21875 L2.125,4.78125 L4.515625,4.78125 Z" id="Shape"></path>
            <path d="M11.6875,2.6318125 C7.9273125,2.669 4.2149375,5.9510625 4.2149375,10.1181875 C6.0148125,8.3650625 8.1461875,6.7861875 11.6875,6.9136875 L11.6875,9.03125 L17,4.78125 L11.6875,0.53125 L11.6875,2.6318125 Z" id="Shape"></path>
        </g>
    </g>
</svg>