<?xml version="1.0" encoding="UTF-8"?>
<svg width="50px" height="50px" viewBox="0 0 50 50" version="1.1" xmlns="http://www.w3.org/2000/svg" xmlns:xlink="http://www.w3.org/1999/xlink">
    <!-- Generator: Sketch 57.1 (83088) - https://sketch.com -->
    <title>Group</title>
    <desc>Created with Sketch.</desc>
    <g id="Job-Card-Activities" stroke="none" stroke-width="1" fill="none" fill-rule="evenodd">
        <g id="1---CV-Feedback---Pending" transform="translate(-695.000000, -120.000000)" fill-rule="nonzero">
            <g id="Group-3" transform="translate(460.000000, 100.000000)">
                <g id="warning" transform="translate(235.000000, 20.000000)">
                    <g id="Group" transform="translate(25.000000, 24.945783) scale(-1, 1) rotate(-180.000000) translate(-25.000000, -24.945783) translate(0.000000, 0.445783)">
                        <g>
                            <g>
                                <path d="M3.05898594,0.0179467871 C0.428714859,0.0179467871 -0.730798193,1.92846386 0.480170683,4.26317771 L22.7686998,47.1797189 C23.9795432,49.5144327 25.9643574,49.5144327 27.1767068,47.1797189 L49.4653614,4.26317771 C50.6790914,1.92846386 49.5181978,0.0179467871 46.8865462,0.0179467871 L3.05898594,0.0179467871 Z" id="Path" fill="#FFCC4D"></path>
                                <path d="M21.7877761,34.7738454 C21.7877761,36.6330321 23.1600151,37.7838855 24.9748996,37.7838855 C26.746988,37.7838855 28.1635291,36.5901104 28.1635291,34.7738454 L28.1635291,17.7271586 C28.1635291,15.9122741 26.746988,14.7171185 24.9748996,14.7171185 C23.1600151,14.7171185 21.7877761,15.8694779 21.7877761,17.7271586 L21.7877761,34.7738454 Z M21.5222139,8.65261044 C21.5222139,10.5560994 23.0715361,12.1052962 24.9748996,12.1052962 C26.8783886,12.1052962 28.4290914,10.5559739 28.4290914,8.65261044 C28.4290914,6.74774096 26.8783886,5.19841867 24.9748996,5.19841867 C23.0715361,5.19841867 21.5222139,6.74774096 21.5222139,8.65261044 L21.5222139,8.65261044 Z" id="Shape" fill="#231F20"></path>
                            </g>
                        </g>
                    </g>
                </g>
            </g>
        </g>
    </g>
</svg>