<?xml version="1.0" encoding="UTF-8"?>
<svg width="19px" height="16px" viewBox="0 0 19 16" version="1.1" xmlns="http://www.w3.org/2000/svg" xmlns:xlink="http://www.w3.org/1999/xlink">
    <!-- Generator: Sketch 57.1 (83088) - https://sketch.com -->
    <title>ic_filter_edit</title>
    <desc>Created with Sketch.</desc>
    <g id="Page-1" stroke="none" stroke-width="1" fill="none" fill-rule="evenodd">
        <g id="ic_filter_edit" fill="#FFFFFF" fill-rule="nonzero">
            <path d="M16.3026667,10.2413333 L17.7586667,11.6973333 L13.456,16 L12,16 L12,14.544 L16.3026667,10.2413333 Z M15.2514468,0 C15.9026486,0 16.2415141,0.76873476 15.8012996,1.2428153 L15.8012996,1.2428153 L9.9240372,7.5622266 C9.7562574,7.7449616 9.6615697,7.9836479 9.6615697,8.2305649 L9.6615697,8.2305649 L9.6615697,12.7211611 C9.6615697,13.0437828 9.5104017,13.2051183 9.2363059,13.5310487 L9.2363059,13.5310487 L7.1880625,15.8570063 C6.872437,16.1648459 6.3391961,15.9426206 6.3391961,15.5047381 L6.3391961,15.5047381 L6.3391961,8.2289188 C6.3391961,7.9820018 6.2461696,7.7433154 6.0767286,7.5605969 L6.0767286,7.5605969 L0.19943298,1.2428153 C-0.24244271,0.76708865 0.09810058,0 0.74928582,0 L0.74928582,0 L15.2514468,0 Z M17.7073333,9 C17.8162228,9 17.9079996,9.037333 17.9826667,9.112 L18.888,10.0173333 C18.962667,10.0920004 19,10.1837772 19,10.2926667 C19,10.4015561 18.962667,10.493333 18.888,10.568 L18.1786667,11.2773333 L16.7226667,9.8213333 L17.432,9.112 C17.506667,9.037333 17.5984439,9 17.7073333,9 Z" id="Combined-Shape"></path>
        </g>
    </g>
</svg>