<?xml version="1.0" encoding="UTF-8"?>
<svg width="18px" height="23px" viewBox="0 0 18 23" version="1.1" xmlns="http://www.w3.org/2000/svg" xmlns:xlink="http://www.w3.org/1999/xlink">
    <!-- Generator: Sketch 57.1 (83088) - https://sketch.com -->
    <title>sync-file</title>
    <desc>Created with Sketch.</desc>
    <g id="Page-1" stroke="none" stroke-width="1" fill="none" fill-rule="evenodd">
        <g id="sync-file" fill="#4E5867" fill-rule="nonzero">
            <path d="M11.683135,0 L2.44853319,0 C1.09886062,0 0.00178097345,1.09830088 0.00178097345,2.44721018 L0.00178097345,20.5467854 C0.00178097345,21.8955929 1.09886062,22.9938938 2.44853319,22.9938938 L15.0489712,22.9938938 C16.3979314,22.9938938 17.4965376,21.8955929 17.4965376,20.5467854 L17.4965376,5.79223451 L11.683135,0 Z M15.0489712,21.4942633 L2.44853319,21.4942633 C1.92574115,21.4942633 1.50059735,21.0696283 1.50059735,20.5467854 L1.50059735,2.44721018 C1.50059735,1.92518142 1.92569027,1.50013938 2.44853319,1.50013938 L11.1225863,1.49133628 L11.1225863,4.69719027 C11.1225863,5.63423673 11.8835708,6.39486504 12.8194978,6.39486504 L15.9616438,6.38606195 L15.9961438,20.5467854 C15.9961438,21.0696283 15.5726283,21.4942633 15.0489712,21.4942633 Z" id="Shape"></path>
            <path d="M12.9574469,6.97149336 C12.7883053,6.90127212 12.5941792,6.93938496 12.4650841,7.06888717 L11.2957478,8.23822345 C9.41997566,6.87806858 6.77762168,7.03693142 5.08859735,8.72621018 L4.60976991,9.20452876 C4.24263496,9.57186726 4.24263496,10.1685442 4.60976991,10.5358319 C4.79432965,10.7194757 5.03491372,10.811323 5.27554867,10.811323 C5.51684513,10.811323 5.75666593,10.7194757 5.94112389,10.5358319 L6.41908628,10.0574624 C7.37190708,9.10474336 8.82340044,8.95280088 9.93900221,9.59598673 L8.88843142,10.6452854 C8.75933628,10.7744823 8.72076549,10.9693717 8.79052876,11.1381571 C8.86029204,11.3074004 9.02556637,11.4176681 9.20834513,11.4176681 L12.7842854,11.4176681 C13.0345376,11.4176681 13.2366018,11.2147898 13.2366018,10.9653518 L13.2366018,7.3894115 C13.2365,7.20602212 13.1266903,7.04090044 12.9574469,6.97149336 Z" id="Path"></path>
            <path d="M11.5581106,14.6502876 L11.0800465,15.1286571 C10.5298274,15.6799956 9.79688053,15.9831173 9.01742478,15.9831173 C8.49692257,15.9831173 7.9989115,15.845219 7.5602323,15.5914049 L8.6108031,14.5400199 C8.74071239,14.4109248 8.77928319,14.2168496 8.70860398,14.0476062 C8.63884071,13.8787699 8.47366814,13.7685531 8.29078761,13.7685531 L4.71484735,13.7685531 C4.4646969,13.7685531 4.26253097,13.9706173 4.26253097,14.2208186 L4.26253097,17.7971659 C4.26253097,17.9800973 4.37315487,18.1444558 4.54158407,18.2146261 C4.71082743,18.2852544 4.90571681,18.2458695 5.03481195,18.1163673 L6.20246903,16.9487102 C7.01642478,17.5405531 7.9908208,17.865708 9.01732301,17.865708 C10.299573,17.865708 11.5050376,17.3664757 12.4111969,16.4594513 L12.8899226,15.9814889 C13.2572611,15.6133872 13.2572611,15.0175243 12.8899226,14.6502367 C12.5211593,14.2829491 11.9261106,14.2829491 11.5581106,14.6502876 Z" id="Path"></path>
        </g>
    </g>
</svg>