<?xml version="1.0" encoding="UTF-8"?>
<svg width="24px" height="24px" viewBox="0 0 24 24" version="1.1" xmlns="http://www.w3.org/2000/svg" xmlns:xlink="http://www.w3.org/1999/xlink">
    <!-- Generator: Sketch 57.1 (83088) - https://sketch.com -->
    <title>Artboard</title>
    <desc>Created with Sketch.</desc>
    <g id="Artboard" stroke="none" stroke-width="1" fill="none" fill-rule="evenodd">
        <g id="file" transform="translate(3.000000, 0.000000)" fill="#2C3035" fill-rule="nonzero">
            <path d="M13.337961,0 L2.67592191,0 C1.20374837,0 0.0104121475,1.19333623 0.0104121475,2.66550976 L0.0104121475,21.3240781 C0.0104121475,22.7962516 1.20374837,23.9895879 2.67592191,23.9895879 L16.0034707,23.9895879 C17.4756443,23.9895879 18.6689805,22.7962516 18.6689805,21.3240781 L18.6689805,5.33101952 C16.5872278,3.24926681 15.419974,2.08175271 13.337961,0 Z M12.6715835,2.16093709 L16.5080434,5.99739696 L13.337961,5.99739696 C12.9706725,5.99739696 12.6715835,5.69830803 12.6715835,5.33101952 L12.6715835,2.16093709 Z M16.6698482,21.3240781 C16.6698482,21.6913666 16.3710195,21.9904555 16.0034707,21.9904555 L2.67592191,21.9904555 C2.30863341,21.9904555 2.00954447,21.6913666 2.00954447,21.3240781 L2.00954447,2.66550976 C2.00954447,2.29822126 2.30863341,1.99913232 2.67592191,1.99913232 L10.6724512,1.99913232 L10.6724512,5.33101952 C10.6724512,6.80319306 11.8657874,7.99652928 13.337961,7.99652928 L16.6698482,7.99652928 L16.6698482,21.3240781 Z" id="Shape"></path>
            <polygon id="Path" points="13.5805119 11.3617354 12.6382646 10.4194881 9.33969631 13.7180564 6.04112798 10.4194881 5.09888069 11.3617354 8.39744902 14.6603037 5.09888069 17.958872 6.04112798 18.9011193 9.33969631 15.602551 12.6382646 18.9011193 13.5805119 17.958872 10.2819436 14.6603037"></polygon>
        </g>
    </g>
</svg>