<svg width="24" height="24" viewBox="0 0 24 24" fill="none" xmlns="http://www.w3.org/2000/svg">
<path d="M19 14.5H16" stroke="#6E7191" stroke-width="2" stroke-linecap="round" stroke-linejoin="round"/>
<path d="M5 14.5H7.5" stroke="#6E7191" stroke-width="2" stroke-linecap="round" stroke-linejoin="round"/>
<path d="M15.8676 3H8.13238C7.42985 3 6.77884 3.3686 6.41739 3.97101L4.55798 7.07003C4.21181 7.64698 3.58831 8 2.91548 8H2.23607C1.55341 8 1 8.55341 1 9.23607V9.3109C1 9.73323 1.23861 10.1193 1.61635 10.3082C2.29705 10.6485 2.44427 11.5557 1.90613 12.0939L1.45982 12.5402C1.1654 12.8346 1 13.2339 1 13.6503V16.2929C1 16.7456 1.17986 17.1799 1.5 17.5C1.82014 17.8201 2 18.2544 2 18.7071V19C2 20.1046 2.89543 21 4 21H5.5C6.32843 21 7 20.3284 7 19.5C7 18.6716 7.67157 18 8.5 18H15.5C16.3284 18 17 18.6716 17 19.5C17 20.3284 17.6716 21 18.5 21H20C21.1046 21 22 20.1046 22 19V18.7071C22 18.2544 22.1799 17.8201 22.5 17.5C22.8201 17.1799 23 16.7456 23 16.2929V13.6503C23 13.2339 22.8346 12.8346 22.5402 12.5402L22.0939 12.0939C21.5557 11.5557 21.7029 10.6485 22.3836 10.3082C22.7614 10.1193 23 9.73323 23 9.3109V9.23607C23 8.55341 22.4466 8 21.7639 8H21.0845C20.4117 8 19.7882 7.64698 19.442 7.07003L17.5826 3.97101C17.2212 3.3686 16.5701 3 15.8676 3Z" stroke="#6E7191" stroke-width="2"/>
</svg>
